<svg width="25" height="19" viewBox="0 0 25 19" fill="none" xmlns="http://www.w3.org/2000/svg">
<path d="M0 18.2467V17.1733H7.05333C6.61889 15.4356 5.76917 13.9342 4.50417 12.6692C3.23917 11.4042 1.73778 10.5544 0 10.12C0.408889 10.0178 0.811389 9.94111 1.2075 9.89C1.60361 9.83889 2.01889 9.81333 2.45333 9.81333C5.18778 9.81333 7.50694 10.5353 9.41083 11.9792C11.3147 13.4231 12.2667 15.5122 12.2667 18.2467H0ZM13.34 18.2467C13.34 17.8889 13.3208 17.4992 13.2825 17.0775C13.2442 16.6558 13.1611 16.2278 13.0333 15.7933C13.8 14.1833 14.9372 12.7842 16.445 11.5958C17.9528 10.4075 19.8311 9.81333 22.08 9.81333C22.5144 9.81333 22.9297 9.83889 23.3258 9.89C23.7219 9.94111 24.1244 10.0178 24.5333 10.12C22.7956 10.5544 21.3006 11.4042 20.0483 12.6692C18.7961 13.9342 17.94 15.4356 17.48 17.1733H24.5333V18.2467H13.34ZM12.7267 14.6817C12.4456 13.0206 12.4711 11.4744 12.8033 10.0433C13.1356 8.61222 13.7106 7.36 14.5283 6.28667C15.3461 5.21333 16.3747 4.33806 17.6142 3.66083C18.8536 2.98361 20.2272 2.59389 21.735 2.49167C20.0483 3.565 18.7961 4.79806 17.9783 6.19083C17.1606 7.58361 16.6111 8.97 16.33 10.35C15.5889 10.7589 14.8414 11.3978 14.0875 12.2667C13.3336 13.1356 12.88 13.9406 12.7267 14.6817ZM11.5767 12.8033C11.2189 12.2922 10.7461 11.7811 10.1583 11.27C9.57056 10.7589 8.97 10.3628 8.35667 10.0817C8.43333 9.85167 8.49083 9.56417 8.52917 9.21917C8.5675 8.87417 8.58667 8.53556 8.58667 8.20333C8.58667 6.64444 8.3375 5.175 7.83917 3.795C7.34083 2.415 6.64444 1.15 5.75 0C7.25778 0.613333 8.61222 1.61 9.81333 2.99C11.0144 4.37 11.8322 6.10778 12.2667 8.20333C11.9856 8.86778 11.7939 9.62167 11.6917 10.465C11.5894 11.3083 11.5511 12.0878 11.5767 12.8033Z" fill="#262626"/>
</svg>
