<svg width="24" height="21" viewBox="0 0 24 21" fill="none" xmlns="http://www.w3.org/2000/svg">
<path d="M6.24833 20.5467C6.04389 20.5467 5.85222 20.5019 5.67333 20.4125C5.49444 20.3231 5.35389 20.1761 5.25167 19.9717L2.645 15.2567H4.485L5.865 17.8633H8.81667V16.79H6.51667L5.13667 14.1833H2.03167L0.153333 10.8483C0.102222 10.7461 0.0638889 10.6503 0.0383333 10.5608C0.0127778 10.4714 0 10.3756 0 10.2733C0 10.2222 0.0511111 10.0306 0.153333 9.69833L2.03167 6.36333H5.13667L6.51667 3.75667H8.81667V2.68333H5.865L4.485 5.29H2.645L5.25167 0.575C5.35389 0.370556 5.49444 0.223611 5.67333 0.134167C5.85222 0.0447222 6.04389 0 6.24833 0H9.69833C10.0306 0 10.3053 0.108611 10.5225 0.325833C10.7397 0.543056 10.8483 0.817778 10.8483 1.15V6.51667H8.51L7.43667 7.59H10.8483V11.6533H7.935L6.63167 9.085H3.98667L2.91333 10.1583H5.98L7.28333 12.7267H10.8483V19.3967C10.8483 19.7289 10.7397 20.0036 10.5225 20.2208C10.3053 20.4381 10.0306 20.5467 9.69833 20.5467H6.24833ZM14.4517 20.5467C13.8639 20.5467 13.3719 20.3486 12.9758 19.9525C12.5797 19.5564 12.3817 19.0644 12.3817 18.4767C12.3817 17.9911 12.5286 17.5694 12.8225 17.2117C13.1164 16.8539 13.4806 16.6111 13.915 16.4833V4.06333C13.4806 3.93556 13.1164 3.69278 12.8225 3.335C12.5286 2.97722 12.3817 2.55556 12.3817 2.07C12.3817 1.48222 12.5797 0.990278 12.9758 0.594167C13.3719 0.198056 13.8639 0 14.4517 0C15.0394 0 15.5314 0.198056 15.9275 0.594167C16.3236 0.990278 16.5217 1.48222 16.5217 2.07C16.5217 2.55556 16.3747 2.97722 16.0808 3.335C15.7869 3.69278 15.4228 3.93556 14.9883 4.06333V8.66333L19.1283 6.17167C18.9239 5.50722 19.0325 4.90667 19.4542 4.37C19.8758 3.83333 20.4317 3.565 21.1217 3.565C21.7094 3.565 22.2014 3.76306 22.5975 4.15917C22.9936 4.55528 23.1917 5.04722 23.1917 5.635C23.1917 6.22278 22.9936 6.71472 22.5975 7.11083C22.2014 7.50694 21.7094 7.705 21.1217 7.705C20.8406 7.705 20.585 7.6475 20.355 7.5325C20.125 7.4175 19.9078 7.27056 19.7033 7.09167L15.41 9.69833L19.895 13.2633C20.0739 13.1356 20.2656 13.0397 20.47 12.9758C20.6744 12.9119 20.8917 12.88 21.1217 12.88C21.7094 12.88 22.2014 13.0781 22.5975 13.4742C22.9936 13.8703 23.1917 14.3622 23.1917 14.95C23.1917 15.5378 22.9936 16.0297 22.5975 16.4258C22.2014 16.8219 21.7094 17.02 21.1217 17.02C20.355 17.02 19.7736 16.7006 19.3775 16.0617C18.9814 15.4228 18.9239 14.7711 19.205 14.1067L14.9883 10.7333V16.5217C15.4228 16.6494 15.7806 16.8858 16.0617 17.2308C16.3428 17.5758 16.4833 17.9911 16.4833 18.4767C16.4833 19.0644 16.2917 19.5564 15.9083 19.9525C15.525 20.3486 15.0394 20.5467 14.4517 20.5467Z" fill="#262626"/>
</svg>
