<svg width="69" height="53" viewBox="0 0 69 53" fill="none" xmlns="http://www.w3.org/2000/svg">
<path fill-rule="evenodd" clip-rule="evenodd" d="M65.3833 0V3.87866C59.8951 5.88396 55.5943 9.03699 52.4808 13.3378C49.3673 17.6387 47.8106 22.111 47.8106 26.7548C47.8106 27.7575 47.9689 28.4963 48.2856 28.9712C48.4966 29.2878 48.7341 29.4461 48.998 29.4461C49.2618 29.4461 49.6576 29.2614 50.1853 28.892C51.874 27.6783 54.0112 27.0714 56.597 27.0714C59.6049 27.0714 62.2698 28.2984 64.5918 30.7522C66.9137 33.2061 68.0746 36.1216 68.0746 39.499C68.0746 43.0346 66.7422 46.1481 64.0772 48.8394C61.4123 51.5307 58.1801 52.8764 54.3806 52.8764C49.9478 52.8764 46.122 51.0558 42.9029 47.4146C39.6839 43.7734 38.0744 38.8921 38.0744 32.7707C38.0744 25.6466 40.2644 19.2614 44.6444 13.6149C49.0244 7.96837 55.9373 3.43012 65.3833 0ZM27.3089 0V3.87866C21.8207 5.88396 17.5199 9.03699 14.4064 13.3378C11.2929 17.6387 9.73622 22.111 9.73622 26.7548C9.73622 27.7575 9.89453 28.4963 10.2112 28.9712C10.4222 29.2878 10.6597 29.4461 10.9236 29.4461C11.1874 29.4461 11.5832 29.2614 12.1109 28.892C13.7996 27.6783 15.9368 27.0714 18.5226 27.0714C21.5305 27.0714 24.1954 28.2984 26.5174 30.7522C28.8393 33.2061 30.0002 36.1216 30.0002 39.499C30.0002 43.0346 28.6678 46.1481 26.0028 48.8394C23.3379 51.5307 20.1057 52.8764 16.3062 52.8764C11.8734 52.8764 8.04757 51.0558 4.82853 47.4146C1.60949 43.7734 0 38.8921 0 32.7707C0 25.6466 2.18997 19.2614 6.56997 13.6149C10.95 7.96837 17.8629 3.43012 27.3089 0Z" fill="#FFD92A"/>
</svg>
