<svg width="33" height="33" viewBox="0 0 33 33" fill="none" xmlns="http://www.w3.org/2000/svg">
<path d="M30.2833 25.6833L29.21 24.61V10.4267H15.0267L14.7967 10.1967V4.29333H8.81667L7.74333 3.22H15.87V9.35333H30.2833V25.6833ZM31.97 32.7367L28.06 28.8267H2.53V3.29667L0 0.766667L0.766667 0L32.7367 31.97L31.97 32.7367ZM3.60333 27.7533H8.66333V22.6933H3.60333V27.7533ZM3.60333 21.62H8.66333V16.56H3.60333V21.62ZM3.60333 15.4867H8.66333V10.4267H3.60333V15.4867ZM9.73667 27.7533H14.7967V22.6933H9.73667V27.7533ZM9.73667 21.62H14.7967V16.56H9.73667V21.62ZM15.87 27.7533H26.9867L21.9267 22.6933H15.87V27.7533ZM24.61 16.56H23.5367V15.4867H24.61V16.56Z" fill="#262626"/>
</svg>
