<svg width="28" height="27" viewBox="0 0 28 27" fill="none" xmlns="http://www.w3.org/2000/svg">
<path d="M7.21587 26.68C5.2164 26.68 3.51389 25.9794 2.10833 24.5782C0.702778 23.1767 0 21.4751 0 19.4733V10.7333H14.4133V19.4733C14.4133 21.4751 13.7136 23.1767 12.3142 24.5782C10.9145 25.9794 9.21508 26.68 7.21587 26.68ZM4.14 16.79C4.44667 16.79 4.715 16.675 4.945 16.445C5.175 16.215 5.29 15.9467 5.29 15.64C5.29 15.3333 5.175 15.065 4.945 14.835C4.715 14.605 4.44667 14.49 4.14 14.49C3.83333 14.49 3.565 14.605 3.335 14.835C3.105 15.065 2.99 15.3333 2.99 15.64C2.99 15.9467 3.105 16.215 3.335 16.445C3.565 16.675 3.83333 16.79 4.14 16.79ZM7.20667 22.0033C8.10111 22.0033 8.86778 21.7989 9.50667 21.39C10.1456 20.9811 10.5033 20.47 10.58 19.8567H3.83333C3.91 20.47 4.26778 20.9811 4.90667 21.39C5.54556 21.7989 6.31222 22.0033 7.20667 22.0033ZM10.2733 16.79C10.58 16.79 10.8483 16.675 11.0783 16.445C11.3083 16.215 11.4233 15.9467 11.4233 15.64C11.4233 15.3333 11.3083 15.065 11.0783 14.835C10.8483 14.605 10.58 14.49 10.2733 14.49C9.96667 14.49 9.69833 14.605 9.46833 14.835C9.23833 15.065 9.12333 15.3333 9.12333 15.64C9.12333 15.9467 9.23833 16.215 9.46833 16.445C9.69833 16.675 9.96667 16.79 10.2733 16.79ZM20.5467 15.9467C19.8567 15.9467 19.1539 15.8444 18.4383 15.64C17.7228 15.4356 17.1478 15.1544 16.7133 14.7967V8.43333H13.34V0H27.7533V8.74C27.7533 10.7418 27.0527 12.4434 25.6515 13.8448C24.25 15.2461 22.5484 15.9467 20.5467 15.9467ZM17.48 6.05667C17.7867 6.05667 18.055 5.94167 18.285 5.71167C18.515 5.48167 18.63 5.21333 18.63 4.90667C18.63 4.6 18.515 4.33167 18.285 4.10167C18.055 3.87167 17.7867 3.75667 17.48 3.75667C17.1733 3.75667 16.905 3.87167 16.675 4.10167C16.445 4.33167 16.33 4.6 16.33 4.90667C16.33 5.21333 16.445 5.48167 16.675 5.71167C16.905 5.94167 17.1733 6.05667 17.48 6.05667ZM17.1733 11.27H23.92C23.7922 10.6567 23.4089 10.1456 22.77 9.73667C22.1311 9.32778 21.39 9.12333 20.5467 9.12333C19.9078 9.12333 19.205 9.29583 18.4383 9.64083C17.6717 9.98583 17.25 10.5289 17.1733 11.27ZM23.6133 6.05667C23.92 6.05667 24.1883 5.94167 24.4183 5.71167C24.6483 5.48167 24.7633 5.21333 24.7633 4.90667C24.7633 4.6 24.6483 4.33167 24.4183 4.10167C24.1883 3.87167 23.92 3.75667 23.6133 3.75667C23.3067 3.75667 23.0383 3.87167 22.8083 4.10167C22.5783 4.33167 22.4633 4.6 22.4633 4.90667C22.4633 5.21333 22.5783 5.48167 22.8083 5.71167C23.0383 5.94167 23.3067 6.05667 23.6133 6.05667Z" fill="#262626"/>
</svg>
