<svg width="27" height="25" viewBox="0 0 27 25" fill="none" xmlns="http://www.w3.org/2000/svg">
<path d="M0 0.996667V11.5767C0 14.3622 0.760278 16.8539 2.28083 19.0517C3.80139 21.2494 5.76278 22.8594 8.165 23.8817C6.93833 23.0639 5.94806 21.9778 5.19417 20.6233C4.44028 19.2689 4.06333 17.7867 4.06333 16.1767C4.06333 15.0011 4.36361 13.5956 4.96417 11.96C5.56472 10.3244 6.41444 8.54833 7.51333 6.63167L0 0.996667ZM13.34 0C10.8611 2.99 8.87417 5.95444 7.37917 8.89333C5.88417 11.8322 5.13667 14.26 5.13667 16.1767C5.13667 18.4511 5.93528 20.3869 7.5325 21.9842C9.12972 23.5814 11.0656 24.38 13.34 24.38C15.6144 24.38 17.5503 23.5814 19.1475 21.9842C20.7447 20.3869 21.5433 18.4511 21.5433 16.1767C21.5433 14.26 20.7958 11.8258 19.3008 8.87417C17.8058 5.9225 15.8189 2.96444 13.34 0ZM26.68 0.996667L19.1667 6.63167C20.24 8.52278 21.0833 10.2925 21.6967 11.9408C22.31 13.5892 22.6167 15.0011 22.6167 16.1767C22.6167 17.7867 22.2397 19.2689 21.4858 20.6233C20.7319 21.9778 19.7417 23.0639 18.515 23.8817C20.9172 22.8594 22.8786 21.2494 24.3992 19.0517C25.9197 16.8539 26.68 14.3622 26.68 11.5767V0.996667Z" fill="#262626"/>
</svg>
