<svg width="18" height="31" viewBox="0 0 18 31" fill="none" xmlns="http://www.w3.org/2000/svg">
<path d="M0.0383333 30.2067V29.67C0.0383333 26.0922 0.753889 23.345 2.185 21.4283C3.61611 19.5117 5.54556 17.4033 7.97333 15.1033C5.52 12.8033 3.57778 10.695 2.14667 8.77833C0.715556 6.86167 0 4.11444 0 0.536667V0H1.07333V0.536667C1.07333 1.12444 1.0925 1.68667 1.13083 2.22333C1.16917 2.76 1.23944 3.27111 1.34167 3.75667H16.1767C16.2789 3.27111 16.3492 2.76 16.3875 2.22333C16.4258 1.68667 16.445 1.12444 16.445 0.536667V0H17.5183V0.536667C17.5183 4.11444 16.8028 6.86167 15.3717 8.77833C13.9406 10.695 12.0111 12.8033 9.58333 15.1033C12.0111 17.3778 13.9406 19.4797 15.3717 21.4092C16.8028 23.3386 17.5183 26.0922 17.5183 29.67V30.2067H16.445V29.67C16.445 29.0822 16.4258 28.52 16.3875 27.9833C16.3492 27.4467 16.2789 26.9356 16.1767 26.45H1.38C1.27778 26.9356 1.2075 27.4467 1.16917 27.9833C1.13083 28.52 1.11167 29.0822 1.11167 29.67V30.2067H0.0383333ZM3.91 9.43H13.6083C14.1194 8.76556 14.5794 8.05639 14.9883 7.3025C15.3972 6.54861 15.7167 5.72444 15.9467 4.83H1.57167C1.82722 5.72444 2.14667 6.54222 2.53 7.28333C2.91333 8.02444 3.37333 8.74 3.91 9.43ZM8.77833 14.375C9.51944 13.685 10.2158 13.0206 10.8675 12.3817C11.5192 11.7428 12.1261 11.1167 12.6883 10.5033H4.83C5.39222 11.1167 6.00556 11.7428 6.67 12.3817C7.33444 13.0206 8.03722 13.685 8.77833 14.375ZM4.86833 19.7033H12.6883C12.1261 19.09 11.5192 18.4639 10.8675 17.825C10.2158 17.1861 9.51944 16.5217 8.77833 15.8317C8.03722 16.5217 7.34083 17.1861 6.68917 17.825C6.0375 18.4639 5.43056 19.09 4.86833 19.7033ZM1.61 25.3767H15.9467C15.6911 24.4822 15.3717 23.6644 14.9883 22.9233C14.605 22.1822 14.145 21.4667 13.6083 20.7767H3.94833C3.41167 21.4667 2.94528 22.1822 2.54917 22.9233C2.15306 23.6644 1.84 24.4822 1.61 25.3767Z" fill="#262626"/>
</svg>
