<svg width="27" height="24" viewBox="0 0 27 24" fill="none" xmlns="http://www.w3.org/2000/svg">
<path d="M2.3 23.1533C1.63556 23.1533 1.08611 22.9361 0.651667 22.5017C0.217222 22.0672 0 21.5178 0 20.8533V14.95H10.7333V17.02H15.9467V14.95H26.68V20.8533C26.68 21.5178 26.4628 22.0672 26.0283 22.5017C25.5939 22.9361 25.0444 23.1533 24.38 23.1533H2.3ZM11.8067 15.9467V12.88H14.8733V15.9467H11.8067ZM0 13.8767V6.44C0 5.77556 0.217222 5.22611 0.651667 4.79167C1.08611 4.35722 1.63556 4.14 2.3 4.14H9.2V2.3C9.2 1.63556 9.41722 1.08611 9.85167 0.651667C10.2861 0.217222 10.8356 0 11.5 0H15.18C15.8444 0 16.3939 0.217222 16.8283 0.651667C17.2628 1.08611 17.48 1.63556 17.48 2.3V4.14H24.38C25.0444 4.14 25.5939 4.35722 26.0283 4.79167C26.4628 5.22611 26.68 5.77556 26.68 6.44V13.8767H15.9467V11.8067H10.7333V13.8767H0ZM10.2733 4.14H16.4067V2.3C16.4067 1.99333 16.2789 1.71222 16.0233 1.45667C15.7678 1.20111 15.4867 1.07333 15.18 1.07333H11.5C11.1933 1.07333 10.9122 1.20111 10.6567 1.45667C10.4011 1.71222 10.2733 1.99333 10.2733 2.3V4.14Z" fill="#262626"/>
</svg>
