<svg width="31" height="22" viewBox="0 0 31 22" fill="none" xmlns="http://www.w3.org/2000/svg">
<path d="M4.29333 19.0133C3.62889 19.0133 3.07944 18.7961 2.645 18.3617C2.21056 17.9272 1.99333 17.3778 1.99333 16.7133V2.3C1.99333 1.63556 2.21056 1.08611 2.645 0.651667C3.07944 0.217222 3.62889 0 4.29333 0H26.3733C27.0378 0 27.5872 0.217222 28.0217 0.651667C28.4561 1.08611 28.6733 1.63556 28.6733 2.3V16.7133C28.6733 17.3778 28.4561 17.9272 28.0217 18.3617C27.5872 18.7961 27.0378 19.0133 26.3733 19.0133H4.29333ZM0 21.62V20.5467H30.6667V21.62H0Z" fill="#262626"/>
</svg>
