<svg width="23" height="24" viewBox="0 0 23 24" fill="none" xmlns="http://www.w3.org/2000/svg">
<path d="M18.7067 0C19.8567 0.0255556 20.8342 0.434444 21.6392 1.22667C22.4442 2.01889 22.8467 2.99 22.8467 4.14C22.8467 4.37 22.8339 4.69583 22.8083 5.1175C22.7828 5.53917 22.7317 6.04389 22.655 6.63167L20.5083 22.08C20.4572 22.5656 20.2464 22.9489 19.8758 23.23C19.5053 23.5111 19.0772 23.6517 18.5917 23.6517C18.2339 23.6517 17.9272 23.5431 17.6717 23.3258C17.4161 23.1086 17.1861 22.8594 16.9817 22.5783L12.305 16.33C12.1772 16.1767 12.0431 16.0489 11.9025 15.9467C11.7619 15.8444 11.5894 15.7933 11.385 15.7933C11.1806 15.7933 10.8739 15.9978 10.465 16.4067L5.90333 22.4633C5.67333 22.7444 5.41778 23.0128 5.13667 23.2683C4.85556 23.5239 4.53611 23.6517 4.17833 23.6517C3.69278 23.6517 3.27111 23.5047 2.91333 23.2108C2.55556 22.9169 2.35111 22.5272 2.3 22.0417L0.191667 6.63167C0.115 6.04389 0.0638889 5.53917 0.0383333 5.1175C0.0127778 4.69583 0 4.37 0 4.14C0 2.99 0.4025 2.0125 1.2075 1.2075C2.0125 0.4025 2.99 0 4.14 0C4.83 0 5.43694 0.121389 5.96083 0.364167C6.48472 0.606944 7.00222 0.868889 7.51333 1.15C8.02444 1.43111 8.58667 1.69306 9.2 1.93583C9.81333 2.17861 10.5544 2.3 11.4233 2.3C12.3178 2.3 13.0781 2.17861 13.7042 1.93583C14.3303 1.69306 14.8989 1.43111 15.41 1.15C15.9211 0.868889 16.4322 0.606944 16.9433 0.364167C17.4544 0.121389 18.0422 0 18.7067 0Z" fill="#262626"/>
</svg>
