<svg width="231" height="49" viewBox="0 0 231 49" fill="none" xmlns="http://www.w3.org/2000/svg">
<g clip-path="url(#clip0_397_1380)">
<path d="M68.0412 49H59.2365V6.65289H54.127V0H73.3529V6.65289H68.0412V49Z" fill="#DD0835"/>
<path d="M83.5434 25.1942V49H75.2872L75.2583 0H83.5434V18.5413H85.7373V0H93.9935V49H85.7373V25.1942H83.5434Z" fill="#A02282"/>
<path d="M112.757 6.65289H104.905V19.2066H111.487V25.1942H104.905V41.624H112.757V49H96.3604V0H112.757V6.65289Z" fill="#006E9D"/>
<path d="M122.861 32.4258H116.106V48.6241H122.861V32.4258Z" fill="#E41E38"/>
<path d="M129.616 32.4258H122.861V48.6241H129.616V32.4258Z" fill="#E7A40A"/>
<path d="M136.371 32.4258H129.616V48.6241H136.371V32.4258Z" fill="#1EA038"/>
<path d="M143.126 32.4258H136.371V48.6241H143.126V32.4258Z" fill="#D70F26"/>
<path d="M149.881 32.4258H143.126V48.6241H149.881V32.4258Z" fill="#E53521"/>
<path d="M156.636 32.4258H149.881V48.6241H156.636V32.4258Z" fill="#1BB9E4"/>
<path d="M163.42 32.4258H156.665V48.6241H163.42V32.4258Z" fill="#FBBD0B"/>
<path d="M170.175 32.4258H163.42V48.6241H170.175V32.4258Z" fill="#B1154A"/>
<path d="M176.93 32.4258H170.175V48.6241H176.93V32.4258Z" fill="#EA5F22"/>
<path d="M183.685 32.4258H176.93V48.6241H183.685V32.4258Z" fill="#E5156B"/>
<path d="M190.441 32.4258H183.686V48.6241H190.441V32.4258Z" fill="#F39519"/>
<path d="M197.195 32.4258H190.44V48.6241H197.195V32.4258Z" fill="#C6880D"/>
<path d="M203.95 32.4258H197.195V48.6241H203.95V32.4258Z" fill="#128339"/>
<path d="M210.735 32.4258H203.979V48.6241H210.735V32.4258Z" fill="#009BB4"/>
<path d="M217.489 32.4258H210.734V48.6241H217.489V32.4258Z" fill="#48AB33"/>
<path d="M224.245 32.4258H217.49V48.6241H224.245V32.4258Z" fill="#006DA8"/>
<path d="M231 32.4258H224.245V48.6241H231V32.4258Z" fill="#004A6D"/>
<path d="M175.689 0H114.894V14.0289H175.689V0Z" fill="black"/>
<path d="M199.447 15.9668H114.894V29.9957H199.447V15.9668Z" fill="black"/>
<path d="M118.502 12.1492H117.232V1.93848H118.502V12.1781V12.1492Z" fill="white"/>
<path d="M124.16 8.12856L126.412 1.93848H127.711V12.1781H126.441V5.32277L124.68 10.0377H123.64L121.937 5.32277V12.1781H120.667V1.93848H121.937L124.189 8.12856H124.16Z" fill="white"/>
<path d="M130.973 8.27319V12.1781H129.703V1.93848H132.358C134.235 1.93848 135.332 3.12443 135.332 5.1203C135.332 7.11616 134.264 8.27319 132.358 8.27319H130.973ZM132.358 7.11616C133.658 7.11616 134.062 6.3641 134.062 5.1203C134.062 3.87649 133.658 3.0955 132.358 3.0955H130.973V7.11616H132.358Z" fill="white"/>
<path d="M135.274 12.1489L138.103 1.90918H139.229L142.087 12.1489H140.759L140.182 9.80587H137.18L136.602 12.1489H135.274ZM137.555 8.64885H139.807L138.681 4.0786L137.555 8.64885Z" fill="white"/>
<path d="M147.543 5.11979C147.254 3.52888 146.735 2.97929 145.782 2.97929C144.829 2.97929 144.079 3.90491 144.079 6.47929V7.60739C144.079 10.1818 144.598 11.1074 145.782 11.1074C146.966 11.1074 147.254 10.4421 147.543 8.96689H148.727C148.467 11.252 147.399 12.2644 145.782 12.2644C144.165 12.2644 142.78 10.9049 142.78 7.60739V6.47929C142.78 3.18177 143.934 1.82227 145.782 1.82227C147.63 1.82227 148.467 2.89251 148.727 5.11979H147.543Z" fill="white"/>
<path d="M155.193 1.93848V3.0955H152.797V12.1781H151.527V3.0955H149.16V1.93848H155.222H155.193Z" fill="white"/>
<path d="M121.591 27.8549L119.945 23.545H118.358V27.8549H117.087V17.6152H119.714C121.62 17.6152 122.717 18.5987 122.717 20.5946C122.717 22.5904 122.168 22.9375 121.129 23.3136L122.919 27.8549H121.562H121.591ZM119.743 22.388C121.042 22.388 121.475 21.8673 121.475 20.5946C121.475 19.3218 121.042 18.7723 119.743 18.7723H118.386V22.359H119.743V22.388Z" fill="white"/>
<path d="M123.409 27.8549L126.238 17.6152H127.364L130.222 27.8549H128.894L128.317 25.5119H125.314L124.737 27.8549H123.409ZM125.69 24.3549H127.941L126.816 19.7847L125.69 24.3549Z" fill="white"/>
<path d="M136.948 17.6152V27.8549H135.765L132.618 20.7681V27.8549H131.348V17.6152H132.474L135.678 24.7888V17.6152H136.948Z" fill="white"/>
<path d="M144.108 27.8555L141.596 22.8225L140.239 24.9629V27.8266H138.969V17.5869H140.239V22.8514L143.588 17.5869H145.003L142.433 21.6654L145.58 27.7977H144.079L144.108 27.8555Z" fill="white"/>
<path d="M148.034 27.8549H146.764V17.6152H148.034V27.8549Z" fill="white"/>
<path d="M155.77 17.6152V27.8549H154.587L151.44 20.7681V27.8549H150.17V17.6152H151.296L154.5 24.7888V17.6152H155.77Z" fill="white"/>
<path d="M163.362 22.707V23.3144C163.362 26.6119 162.179 27.9714 160.36 27.9714C158.541 27.9714 157.358 26.6119 157.358 23.3144V22.1863C157.358 18.8888 158.513 17.5293 160.36 17.5293C162.208 17.5293 163.045 18.5706 163.305 20.8268H162.121C161.861 19.2938 161.342 18.6863 160.36 18.6863C159.379 18.6863 158.657 19.6119 158.657 22.1863V23.3144C158.657 25.9177 159.177 26.8144 160.36 26.8144C161.544 26.8144 162.063 26.0045 162.092 23.864H160.36V22.707H163.362Z" fill="white"/>
<path d="M169.107 19.843C168.703 19.1488 168.27 18.686 167.289 18.686C166.307 18.686 165.903 19.2645 165.903 20.2769C165.903 21.2893 166.422 21.8099 167.664 22.1859C169.223 22.6198 170.204 23.4587 170.204 25.1364C170.204 26.8141 169.482 28 167.404 28C165.326 28 165.095 27.4504 164.459 26.3223L165.47 25.6281C166.018 26.4091 166.48 26.814 167.404 26.814C168.328 26.814 168.934 25.9463 168.934 25.1653C168.934 24.3843 168.645 23.6612 167.144 23.2562C165.614 22.8512 164.604 21.9545 164.604 20.2479C164.604 18.5413 165.412 17.5 167.289 17.5C169.165 17.5 169.425 18.0496 170.031 19.1777L169.078 19.843H169.107Z" fill="white"/>
<path d="M173.61 27.8845V26.8143L176.439 22.6201C176.728 22.1862 176.959 21.7523 177.132 21.3763C177.305 21.0002 177.363 20.5953 177.363 20.1614C177.363 19.7275 177.248 19.2647 177.046 19.0044C176.844 18.744 176.555 18.5994 176.209 18.5994C175.862 18.5994 175.573 18.744 175.371 19.0044C175.169 19.2647 175.025 19.6697 175.025 20.2192H173.755C173.755 19.7854 173.812 19.4093 173.957 19.0622C174.101 18.7151 174.274 18.4259 174.476 18.1944C174.707 17.963 174.967 17.7606 175.256 17.6449C175.545 17.5292 175.891 17.4424 176.209 17.4424C176.526 17.4424 176.901 17.5002 177.19 17.6449C177.508 17.7606 177.739 17.963 177.969 18.1944C178.172 18.4259 178.345 18.7151 178.489 19.0333C178.605 19.3804 178.662 19.7275 178.662 20.1325C178.662 20.5374 178.633 20.7978 178.547 21.087C178.46 21.3763 178.374 21.6655 178.258 21.9259C178.143 22.1862 178.027 22.4176 177.883 22.649C177.739 22.8804 177.594 23.0829 177.479 23.2564L175.227 26.6986H178.633V27.8556H173.582L173.61 27.8845Z" fill="white"/>
<path d="M184.696 26.4961C184.551 26.8432 184.378 27.1325 184.147 27.3349C183.916 27.5663 183.656 27.711 183.368 27.8267C183.05 27.9424 182.762 27.9713 182.444 27.9713C182.126 27.9713 181.809 27.9135 181.52 27.8267C181.232 27.711 180.972 27.5663 180.741 27.3349C180.51 27.1035 180.337 26.8143 180.192 26.4961C180.048 26.149 179.99 25.744 179.99 25.2523V20.1614C179.99 19.6697 180.048 19.2647 180.192 18.9176C180.337 18.5705 180.51 18.2812 180.741 18.0787C180.972 17.8473 181.232 17.7027 181.52 17.587C181.809 17.4713 182.126 17.4424 182.444 17.4424C182.762 17.4424 183.079 17.5002 183.368 17.587C183.656 17.7027 183.945 17.8473 184.147 18.0787C184.349 18.3102 184.551 18.5994 184.696 18.9176C184.84 19.2647 184.898 19.6697 184.898 20.1614V25.2523C184.898 25.744 184.84 26.149 184.696 26.4961ZM183.252 18.9754C183.05 18.744 182.762 18.5994 182.415 18.5994C182.069 18.5994 181.78 18.7151 181.578 18.9754C181.376 19.2068 181.26 19.6118 181.26 20.1903V25.2812C181.26 25.8308 181.376 26.2358 181.578 26.4961C181.78 26.7275 182.069 26.8721 182.415 26.8721C182.762 26.8721 183.05 26.7564 183.252 26.4961C183.454 26.2647 183.57 25.8597 183.57 25.2812V20.1903C183.57 19.6407 183.454 19.2358 183.252 18.9754Z" fill="white"/>
<path d="M186.11 27.8845V26.8143L188.939 22.6201C189.228 22.1862 189.459 21.7523 189.632 21.3763C189.805 21.0002 189.863 20.5953 189.863 20.1614C189.863 19.7275 189.747 19.2647 189.545 19.0044C189.343 18.744 189.054 18.5994 188.708 18.5994C188.362 18.5994 188.073 18.744 187.871 19.0044C187.669 19.2647 187.524 19.6697 187.524 20.2192H186.254C186.254 19.7854 186.312 19.4093 186.456 19.0622C186.601 18.7151 186.774 18.4259 186.976 18.1944C187.207 17.963 187.467 17.7606 187.755 17.6449C188.044 17.5292 188.39 17.4424 188.708 17.4424C189.026 17.4424 189.401 17.5002 189.69 17.6449C190.007 17.7606 190.238 17.963 190.469 18.1944C190.671 18.4259 190.844 18.7151 190.989 19.0333C191.104 19.3804 191.162 19.7275 191.162 20.1325C191.162 20.5374 191.133 20.7978 191.046 21.087C190.96 21.3763 190.873 21.6655 190.758 21.9259C190.642 22.1862 190.527 22.4176 190.382 22.649C190.238 22.8804 190.094 23.0829 189.978 23.2564L187.727 26.6986H191.133V27.8556H186.081L186.11 27.8845Z" fill="white"/>
<path d="M193.471 25.021H195.579V21.9838H196.907V25.021H197.657V26.1781H196.907V27.8557H195.579V26.1781H191.941V25.2235L194.915 17.5293H196.214L193.443 24.9921L193.471 25.021Z" fill="white"/>
<path d="M0 30.9797V0.0292969H3.69508L10.2481 18.5995L9.90165 10.1533V0.0292969H14.1452V30.9797H10.7966L4.07036 11.7442L4.33017 19.8723V30.9797H0Z" fill="#525557"/>
<path d="M24.9706 31.2972C22.488 31.2972 20.7559 30.5451 19.8033 29.0699C18.8506 27.5947 18.3599 25.4253 18.3599 22.6195V12.7559C18.3599 7.11536 20.5538 4.30957 24.9417 4.30957C29.3296 4.30957 31.5236 7.11536 31.5236 12.7559V22.6195C31.5236 27.0162 30.3977 29.7063 28.146 30.7187C27.28 31.0947 26.2119 31.2972 24.9706 31.2972ZM24.9706 27.5079C25.6923 27.5079 26.183 27.1897 26.4428 26.5534C26.7027 25.917 26.847 24.9625 26.847 23.6897V11.8881C26.847 10.5864 26.7027 9.63189 26.4428 8.99552C26.183 8.35916 25.6634 8.04098 24.9417 8.04098C24.22 8.04098 23.7293 8.35916 23.4406 8.99552C23.1808 9.63189 23.0364 10.6154 23.0364 11.917V23.7187C23.0364 25.6567 23.354 26.8426 23.9891 27.2765C24.2489 27.4501 24.5664 27.5368 24.9417 27.5368L24.9706 27.5079Z" fill="#525557"/>
<path d="M36.085 30.9795V26.6406H40.0398V30.9795H36.085Z" fill="#525557"/>
<path d="M47.3433 30.9793V5.84298C46.9391 6.33471 46.3906 6.68182 45.6689 6.97108C44.9472 7.23141 44.2255 7.37603 43.5327 7.37603V3.87603C44.5142 3.73141 45.4669 3.32645 46.3618 2.66116C47.2567 1.99587 47.9495 1.09917 48.4114 0H52.0487V30.9793H47.3433Z" fill="#525557"/>
<path d="M0 48.8841V35.2891H2.13622V48.8841H0Z" fill="#525557"/>
<path d="M9.75753 48.8841L6.55321 40.8139V48.8841H4.41699V35.2891H6.32227L9.49772 43.3593V35.2891H11.6339V48.8841H9.75753Z" fill="#525557"/>
<path d="M17.3496 48.8841V35.2891H19.4858V48.8841H17.3496Z" fill="#525557"/>
<path d="M27.1067 48.8841L23.9023 40.8139V48.8841H21.7661V35.2891H23.6714L26.8468 43.3593V35.2891H28.9831V48.8841H27.1067Z" fill="#525557"/>
<path d="M37.384 47.756C36.8355 48.3924 36.0561 48.8841 34.757 48.8841H31.3218V35.2891H34.757C36.0561 35.2891 36.8355 35.7808 37.384 36.4172C38.3078 37.4296 38.3655 38.9337 38.3655 42.0577C38.3655 45.1816 38.2789 46.7436 37.384 47.756ZM35.7674 37.7477C35.5653 37.4296 35.1901 37.1982 34.6704 37.1982H33.4003V46.9461H34.6704C35.1901 46.9461 35.5365 46.7147 35.7674 46.3965C36.2004 45.7601 36.2293 44.4296 36.2293 42.0577C36.2293 39.6858 36.2004 38.3841 35.7674 37.7477Z" fill="#525557"/>
<path d="M40.2993 48.8841V35.2891H42.4355V48.8841H40.2993Z" fill="#525557"/>
<path d="M50.1431 48.8841L49.5947 46.194H46.4481L45.9284 48.8841H43.6768L47.0254 35.2891H49.1039L52.3948 48.8841H50.1431ZM48.0358 38.5577L46.8811 44.256H49.2194L48.0647 38.5577H48.0358Z" fill="#525557"/>
</g>
<defs>
<clipPath id="clip0_397_1380">
<rect width="231" height="49" fill="white"/>
</clipPath>
</defs>
</svg>
