<svg width="27" height="27" viewBox="0 0 27 27" fill="none" xmlns="http://www.w3.org/2000/svg">
<path d="M7.05333 21.5433H8.12667V18.4767H11.1933V17.4033H8.12667V14.3367H7.05333V17.4033H3.98667V18.4767H7.05333V21.5433ZM14.8733 16.79H23.0767V15.7167H14.8733V16.79ZM14.8733 20.1633H20.01V19.09H14.8733V20.1633ZM2.3 26.68C1.63556 26.68 1.08611 26.4628 0.651667 26.0283C0.217222 25.5939 0 25.0444 0 24.38V9.96667C0 9.30222 0.217222 8.75278 0.651667 8.31833C1.08611 7.88389 1.63556 7.66667 2.3 7.66667H10.7333V1.07333C10.7333 0.778167 10.8385 0.525421 11.0488 0.315099C11.2589 0.105032 11.5115 0 11.8067 0H14.8733C15.1685 0 15.4212 0.105032 15.6316 0.315099C15.8416 0.525421 15.9467 0.778167 15.9467 1.07333V7.66667H24.38C25.0444 7.66667 25.5939 7.88389 26.0283 8.31833C26.4628 8.75278 26.68 9.30222 26.68 9.96667V24.38C26.68 25.0444 26.4628 25.5939 26.0283 26.0283C25.5939 26.4628 25.0444 26.68 24.38 26.68H2.3ZM11.8067 10.2733H14.8733V1.07333H11.8067V10.2733Z" fill="#262626"/>
</svg>
