<svg width="198" height="58" viewBox="0 0 198 58" fill="none" xmlns="http://www.w3.org/2000/svg">
<path fill-rule="evenodd" clip-rule="evenodd" d="M30.1038 6.16211C41.5733 6.16211 50.9283 15.4506 50.9283 26.8067C50.9283 38.1628 41.5733 47.4512 30.1038 47.4512C18.6343 47.4512 9.2793 38.1628 9.2793 26.8067C9.2793 15.4506 18.6343 6.16211 30.1038 6.16211Z" fill="#E63738"/>
<path fill-rule="evenodd" clip-rule="evenodd" d="M20.749 6.98929L20.6849 6.86205C20.749 6.86205 20.8131 6.79843 20.8771 6.76662C20.8771 6.76662 20.9412 6.73481 20.9412 6.703V6.60757C20.9412 6.54395 20.8451 6.3849 20.7169 6.0668C20.6208 5.84414 20.5247 5.62147 20.4286 5.3988C20.2364 4.95346 20.1403 4.73079 20.1082 4.73079C20.1082 4.73079 20.0442 4.73079 19.9801 4.7626C19.8199 4.82622 19.6917 4.88984 19.5956 4.95346C19.5315 4.98527 19.4995 5.01708 19.4995 5.01708V5.04889C19.4995 5.04889 19.5315 5.17613 19.5956 5.36699L19.4354 5.43061C19.3393 5.20794 19.2432 5.04889 19.1791 4.88984C19.5315 4.73079 19.884 4.57174 20.2364 4.4445C20.5568 4.28545 20.9412 4.12641 21.3577 3.93555C21.3897 4.12641 21.4858 4.31726 21.5499 4.50812L21.4218 4.57174C21.3257 4.38088 21.2616 4.28545 21.2616 4.28545H21.1975C21.1014 4.28545 20.9092 4.38088 20.6529 4.50812H20.6208C20.6208 4.50812 20.6208 4.53993 20.6529 4.60355L21.1334 5.7169C21.2936 6.03499 21.3577 6.22585 21.4218 6.32128C21.4538 6.3849 21.4859 6.41671 21.5179 6.44852C21.5179 6.44852 21.646 6.44852 21.8062 6.35309L21.8703 6.48033C21.7101 6.54395 21.5179 6.60757 21.3257 6.703C21.0694 6.79843 20.8771 6.89386 20.749 6.98929ZM17.5452 8.73883L17.4811 8.61159C17.6093 8.54797 17.6734 8.48435 17.7054 8.45254V8.38892C17.7054 8.35711 17.6734 8.26168 17.5772 8.10263C17.4491 7.84815 17.3209 7.65729 17.2569 7.53006L16.8724 6.86205C16.7763 6.67119 16.7122 6.57576 16.6802 6.57576H16.6161C16.6161 6.57576 16.488 6.60757 16.3598 6.67119L16.2957 6.54395C16.4559 6.44852 16.5841 6.3849 16.6802 6.35309C16.7763 6.28947 16.8724 6.25766 16.9685 6.16223C17.385 6.35309 17.8656 6.51214 18.3782 6.73481C18.7306 6.86205 19.0189 6.95748 19.2432 7.05291L18.8908 6.41671C18.7626 6.16223 18.6345 5.97137 18.5384 5.81233C18.4743 5.7169 18.4423 5.65328 18.4102 5.62147H18.3462C18.3462 5.62147 18.25 5.65328 18.1219 5.7169L18.0578 5.58966C18.186 5.52604 18.2821 5.46242 18.4102 5.3988C18.5704 5.30337 18.6986 5.23975 18.8267 5.14432L18.8908 5.27156C18.7626 5.33518 18.6986 5.3988 18.6986 5.43061V5.49423L18.8267 5.74871L19.1791 6.3849L19.5315 7.0211C19.6277 7.18015 19.7238 7.37101 19.8199 7.53006C19.6917 7.62548 19.5636 7.65729 19.5315 7.65729C19.083 7.49825 18.5384 7.30739 17.8976 7.05291C17.5772 6.92567 17.2889 6.83024 17.0967 6.73481L17.4491 7.37101C17.5452 7.53006 17.6734 7.75272 17.8015 7.97539C17.8976 8.13444 17.9617 8.26168 17.9937 8.26168H18.0258C18.0258 8.26168 18.1219 8.26168 18.2821 8.16625L18.3462 8.29349L17.9617 8.48435C17.8976 8.51616 17.7695 8.61159 17.5772 8.70702L17.5452 8.73883ZM15.8792 10.1066L15.8152 10.043C15.8472 9.97941 15.8792 9.91579 15.8792 9.85217C15.7831 9.69312 15.5268 9.37502 15.1744 8.89788C14.9181 8.57978 14.7579 8.35711 14.6618 8.26168C14.6298 8.19806 14.5657 8.16625 14.5337 8.16625C14.5337 8.16625 14.4375 8.19806 14.2774 8.29349L14.1812 8.16625C14.4055 8.0072 14.5977 7.84815 14.7259 7.75272L15.5268 7.11653C15.6229 7.05291 15.687 6.98929 15.7511 6.95748C15.8152 7.08472 15.9113 7.24377 16.0394 7.43463L15.9113 7.53006C15.7831 7.40282 15.7191 7.30739 15.7191 7.30739H15.6229C15.5268 7.3392 15.3987 7.43463 15.2385 7.56187C15.1424 7.62548 15.0783 7.6891 14.9502 7.78453C15.1744 8.10263 15.3666 8.3253 15.4948 8.51616C15.5909 8.45254 15.7191 8.35711 15.7831 8.29349C15.9113 8.19806 16.0074 8.13444 16.0074 8.10263V8.03901L15.8792 7.84815L16.0074 7.75272C16.1356 7.91177 16.1996 8.03901 16.2637 8.07082L16.52 8.38892L16.3919 8.48435C16.2957 8.35711 16.2317 8.29349 16.1996 8.29349H16.1355C16.0715 8.29349 15.9754 8.38892 15.7831 8.51616C15.7191 8.54797 15.655 8.61159 15.5909 8.67521C15.6229 8.73883 15.655 8.77064 15.7191 8.83426C15.9433 9.12055 16.1035 9.3114 16.2317 9.47045L16.52 9.24779C16.6802 9.12055 16.8404 8.99331 16.9365 8.86607C16.9045 8.77064 16.8404 8.6434 16.7763 8.51616L16.9045 8.42073C17.0006 8.61159 17.1287 8.77064 17.2569 8.92969C17.1608 8.99331 17.0967 9.08874 17.0006 9.15236C16.9365 9.18417 16.8404 9.2796 16.6802 9.40683C16.52 9.50226 16.3919 9.6295 16.2637 9.72493C16.1035 9.85217 15.9433 9.97941 15.7511 10.1385L15.8792 10.1066ZM13.092 12.8105L12.9959 12.7151L13.0599 12.6196C13.124 12.556 13.156 12.4924 13.156 12.4606C13.156 12.4288 13.092 12.3651 12.9959 12.2379L12.291 11.5381L11.8425 11.0928C11.7464 10.9973 11.6823 10.9337 11.6182 10.9337H11.5542C11.5542 10.9337 11.458 10.9973 11.3619 11.0928L11.2658 10.9973L11.5862 10.6792C11.7143 10.552 11.8105 10.4566 11.9066 10.3293C12.0668 10.3929 12.2269 10.4566 12.3871 10.4884C12.5153 10.5202 12.9959 10.6792 13.8609 10.9655C13.5405 10.0748 13.3162 9.43864 13.124 9.05693C13.2201 8.9615 13.3162 8.86607 13.4123 8.77064C13.5085 8.6434 13.6366 8.54797 13.7327 8.45254L13.8288 8.54797C13.7327 8.67521 13.6686 8.73883 13.6686 8.77064C13.6686 8.77064 13.6686 8.83426 13.7648 8.92969C13.8609 9.05693 14.0851 9.24779 14.4055 9.53407C14.5657 9.69312 14.7259 9.85217 14.9181 10.0112C15.1103 10.1703 15.2065 10.2657 15.2385 10.2657H15.3026C15.3026 10.2657 15.3987 10.2021 15.4948 10.1066L15.5909 10.2021C15.4307 10.3293 15.3346 10.4566 15.2065 10.5838C15.1103 10.711 14.9502 10.8383 14.7579 11.0609L14.6618 10.9655L14.7259 10.8701C14.79 10.8065 14.822 10.7747 14.822 10.7428C14.822 10.7428 14.822 10.6792 14.7259 10.6156C14.6618 10.552 14.5337 10.3929 14.2774 10.2021L13.4764 9.43864C13.6046 9.82036 13.7968 10.3611 14.0531 10.9973C14.1492 11.2518 14.2453 11.4745 14.3094 11.6335L14.2133 11.729C13.989 11.6335 13.7327 11.5381 13.3803 11.4427L12.0027 10.9973L12.1949 11.1564C12.7075 11.6335 13.0279 11.9516 13.2201 12.1425C13.2842 12.2061 13.3483 12.2379 13.3803 12.2379C13.4123 12.2379 13.4764 12.1743 13.6046 12.0789L13.7007 12.1743C13.6046 12.2697 13.5085 12.3333 13.4444 12.4288C13.3162 12.556 13.1881 12.6832 13.092 12.8105ZM11.1697 14.1147L11.2658 13.9874C11.426 14.0829 11.4901 14.1465 11.5221 14.1465H11.6823C11.7464 14.1465 11.8425 14.0829 11.9066 14.0193C12.0027 13.9556 12.0668 13.892 12.1308 13.7966C12.2269 13.6693 12.291 13.5103 12.259 13.3831C12.259 13.2558 12.1949 13.1286 12.0668 13.065C11.9706 13.0013 11.8745 12.9695 11.7784 12.9695C11.6823 12.9695 11.5542 13.065 11.426 13.1922C11.2338 13.4149 11.0736 13.5421 10.9775 13.5739C10.8814 13.6375 10.7852 13.6375 10.6571 13.6375C10.5289 13.6375 10.4328 13.5739 10.3047 13.5103C10.1125 13.3831 10.0163 13.1922 9.98431 12.9695C9.95227 12.7469 10.0484 12.4924 10.2406 12.2061C10.3367 12.0789 10.4008 12.0152 10.4969 11.9198C10.593 11.8562 10.6571 11.7926 10.7852 11.729H10.8173C10.8814 11.7926 10.9134 11.8562 10.9775 11.888C11.0095 11.9198 11.1056 12.0152 11.2338 12.0789L11.1377 12.2061C10.9775 12.1107 10.8814 12.047 10.8493 12.047C10.8173 12.047 10.7212 12.047 10.6571 12.1107C10.561 12.1743 10.4969 12.2379 10.4008 12.3333C10.3047 12.4606 10.2726 12.5878 10.2726 12.7151C10.2726 12.8423 10.3367 12.9377 10.4328 13.0013C10.4969 13.0332 10.561 13.065 10.6251 13.065C10.6891 13.065 10.7532 13.065 10.8173 13.0013C10.8814 12.9695 10.9775 12.8741 11.1377 12.7151C11.2979 12.556 11.394 12.4606 11.458 12.4288C11.5542 12.3651 11.6823 12.3333 11.8105 12.3333C11.9386 12.3333 12.0347 12.397 12.1629 12.4924C12.3871 12.6514 12.4832 12.8423 12.5153 13.0968C12.5153 13.3513 12.4512 13.6375 12.259 13.892C12.1629 14.0193 12.0668 14.1147 11.9706 14.2101C11.8745 14.3055 11.7464 14.3692 11.6182 14.4328C11.5542 14.3692 11.5221 14.3055 11.458 14.2737C11.394 14.2101 11.2979 14.1147 11.1377 14.0193L11.1697 14.1147ZM9.95227 16.1505L10.0484 16.0233C10.2086 16.1187 10.3047 16.1505 10.3367 16.1823H10.4969C10.561 16.1823 10.6571 16.1187 10.7212 16.0551C10.7852 15.9915 10.8493 15.896 10.9134 15.8324C11.0095 15.6734 11.0416 15.5461 11.0095 15.4189C11.0095 15.2916 10.9134 15.1962 10.7852 15.1008C10.6891 15.0372 10.561 15.0054 10.4969 15.0372C10.4008 15.0372 10.3047 15.1644 10.1765 15.3235C9.98431 15.5461 9.85615 15.7052 9.76004 15.7688C9.66393 15.8324 9.56781 15.8642 9.43966 15.8642C9.31151 15.8642 9.2154 15.8324 9.08725 15.7688C8.89502 15.6416 8.76687 15.4825 8.7028 15.2598C8.63872 15.0372 8.7028 14.7827 8.89502 14.4646C8.9591 14.3374 9.02317 14.2419 9.11929 14.1465C9.18336 14.0511 9.27948 13.9874 9.37559 13.9238H9.40763L9.56781 14.0829C9.63189 14.1147 9.69597 14.1783 9.82412 14.2737L9.728 14.401C9.56781 14.3055 9.4717 14.2737 9.43966 14.2737C9.40763 14.2737 9.31151 14.2737 9.24744 14.3692C9.15132 14.4328 9.08725 14.4964 9.02317 14.6236C8.92706 14.7827 8.89502 14.9099 8.92706 15.0054C8.92706 15.1326 9.02317 15.228 9.11929 15.2916C9.18336 15.3235 9.24744 15.3553 9.31151 15.3553C9.37559 15.3553 9.43966 15.3553 9.50374 15.2916C9.56781 15.2598 9.66393 15.1326 9.79208 14.9736C9.92023 14.8145 10.0163 14.7191 10.0804 14.6555C10.1765 14.5918 10.3047 14.5282 10.4008 14.5282C10.5289 14.5282 10.6251 14.5282 10.7852 14.6236C11.0095 14.7509 11.1377 14.9417 11.2017 15.1962C11.2658 15.4507 11.2017 15.737 11.0095 16.0233C10.9454 16.1505 10.8493 16.2778 10.7532 16.3732C10.6571 16.4686 10.561 16.564 10.4328 16.6277C10.3688 16.564 10.3047 16.5004 10.2406 16.4686C10.1765 16.405 10.0484 16.3414 9.92023 16.2459L9.95227 16.1505ZM9.63189 18.5999H9.53578V18.3454C9.37559 18.25 9.02317 18.0591 8.44649 17.8046C8.06204 17.6138 7.80574 17.5183 7.67759 17.4547C7.61351 17.4547 7.54944 17.4229 7.54944 17.4547C7.54944 17.4547 7.48536 17.5501 7.38925 17.6774L7.2611 17.6138C7.38925 17.3593 7.48536 17.1684 7.58148 17.0094L7.99797 16.0869C8.03 15.9915 8.09408 15.896 8.12612 15.8324C8.22223 15.896 8.38242 15.9915 8.57465 16.1187L8.51057 16.2459C8.35038 16.1823 8.25427 16.1505 8.25427 16.1505C8.25427 16.1505 8.22223 16.1505 8.19019 16.2141C8.12612 16.3096 8.06204 16.4368 7.96593 16.6277C7.93389 16.7231 7.86982 16.8185 7.83778 16.9458C8.19019 17.1048 8.44649 17.2639 8.63872 17.3593C8.7028 17.232 8.76687 17.1366 8.79891 17.0412C8.86298 16.8821 8.89502 16.7867 8.92706 16.7549V16.6913C8.92706 16.6913 8.83095 16.6277 8.73483 16.564L8.79891 16.4368C8.99114 16.5322 9.11929 16.5959 9.15132 16.6277L9.53578 16.7867L9.4717 16.9139C9.31151 16.8503 9.24744 16.8185 9.2154 16.8185C9.2154 16.8185 9.18336 16.8185 9.15132 16.8503C9.11929 16.9139 9.05521 17.0094 8.9591 17.2002C8.9591 17.2639 8.89502 17.3275 8.86298 17.4229C8.92706 17.4229 8.99114 17.4865 9.05521 17.5183C9.37559 17.6774 9.63189 17.7728 9.79208 17.8364L9.95227 17.5183C10.0484 17.3275 10.1125 17.1684 10.1765 16.9776C10.0804 16.9139 9.98431 16.8185 9.85615 16.7231L9.92023 16.5959C10.1125 16.7231 10.2726 16.8185 10.4649 16.9139C10.4328 17.0094 10.4008 17.1048 10.3367 17.2002C10.3367 17.2639 10.2406 17.3911 10.1765 17.5501C10.0804 17.7092 10.0163 17.8682 9.95227 17.9955C9.85615 18.1863 9.79208 18.3772 9.69597 18.5999H9.63189ZM8.12612 20.4766L8.19019 20.3176C8.35038 20.3812 8.44649 20.413 8.51057 20.413C8.54261 20.413 8.60668 20.413 8.67076 20.3494C8.73483 20.3176 8.79891 20.254 8.86298 20.1904C8.92706 20.1267 8.99114 20.0313 9.02317 19.9359C9.08725 19.7768 9.08725 19.6178 9.02317 19.4905C8.9591 19.3633 8.89502 19.2679 8.76687 19.2361C8.63872 19.2043 8.54261 19.2043 8.44649 19.2361C8.35038 19.2679 8.25427 19.3951 8.15815 19.5542C8.03 19.8086 7.90185 19.9677 7.80574 20.0631C7.70963 20.1267 7.61351 20.1904 7.5174 20.1904C7.38925 20.1904 7.29314 20.1904 7.16498 20.1586C6.94072 20.0631 6.78053 19.9359 6.71646 19.7132C6.62034 19.4905 6.65238 19.2361 6.78053 18.918C6.84461 18.7907 6.87665 18.6635 6.94072 18.5681C7.0048 18.4726 7.06887 18.3772 7.16498 18.3136H7.22906C7.29314 18.3454 7.35721 18.409 7.42129 18.4408C7.48536 18.4408 7.58148 18.5044 7.70963 18.5681L7.64555 18.7271C7.45332 18.6635 7.35721 18.6317 7.32517 18.6317C7.29314 18.6317 7.22906 18.6635 7.13295 18.7589C7.06887 18.8225 7.0048 18.918 6.94072 19.0452C6.87665 19.2043 6.87665 19.3315 6.94072 19.4587C6.97276 19.586 7.06887 19.6496 7.19702 19.7132C7.2611 19.7132 7.32517 19.745 7.42129 19.7132C7.48536 19.7132 7.54944 19.6496 7.61351 19.6178C7.67759 19.5542 7.74166 19.4269 7.86982 19.2361C7.96593 19.0452 8.06204 18.9498 8.09408 18.8862C8.19019 18.7907 8.28631 18.7271 8.38242 18.7271C8.51057 18.7271 8.63872 18.7271 8.76687 18.7589C9.02317 18.8543 9.18336 19.0134 9.27948 19.2679C9.37559 19.5224 9.34355 19.8086 9.2154 20.1267L9.02317 20.5085C8.9591 20.6039 8.86299 20.7311 8.73483 20.8266C8.67076 20.7629 8.60668 20.7311 8.54261 20.6993C8.44649 20.6675 8.35038 20.6039 8.19019 20.5403L8.12612 20.4766ZM7.58148 22.7988V22.6397C7.80574 22.6715 7.90185 22.7033 7.93389 22.7033C7.96593 22.7033 8.03 22.7033 8.06204 22.6397C8.12612 22.6079 8.19019 22.5125 8.22223 22.4489C8.28631 22.3534 8.31834 22.258 8.35038 22.1626C8.38242 22.0035 8.35038 21.8445 8.31834 21.7172C8.25427 21.59 8.15815 21.5264 8.03 21.4946C7.90185 21.4946 7.80574 21.4946 7.70963 21.5264C7.61351 21.59 7.54944 21.6854 7.48536 21.8763C7.38925 22.1626 7.29314 22.3216 7.22906 22.417C7.16499 22.5125 7.06887 22.5761 6.97276 22.6079C6.87665 22.6397 6.74849 22.6397 6.62034 22.6079C6.39608 22.5443 6.23589 22.4489 6.10774 22.2262C5.97959 22.0353 5.97959 21.749 6.04366 21.4309C6.04366 21.3037 6.10774 21.1765 6.17182 21.081C6.20385 20.9856 6.26793 20.8902 6.332 20.7947H6.36404C6.42812 20.7947 6.49219 20.8584 6.55627 20.8584C6.62034 20.8584 6.71646 20.922 6.87665 20.9538V21.1128C6.65238 21.081 6.55627 21.0492 6.52423 21.081C6.49219 21.081 6.42812 21.1447 6.36404 21.2401C6.29997 21.3355 6.26793 21.4309 6.23589 21.5264C6.20385 21.6854 6.23589 21.8127 6.23589 21.9399C6.29997 22.0353 6.39608 22.1308 6.52423 22.1308H6.74849C6.81257 22.1308 6.87665 22.0671 6.90868 22.0035C6.94072 21.9399 7.0048 21.8127 7.10091 21.59C7.16499 21.3991 7.22906 21.2719 7.29314 21.2083C7.35721 21.1128 7.45332 21.0174 7.58148 20.9856C7.67759 20.9538 7.80574 20.9538 7.96593 20.9856C8.22223 21.0492 8.41446 21.1765 8.54261 21.4309C8.67076 21.6536 8.7028 21.9399 8.60668 22.2898C8.57465 22.4489 8.51057 22.5761 8.47853 22.6715C8.41446 22.7988 8.35038 22.8942 8.25427 23.0214C8.19019 22.9896 8.09408 22.9578 8.03 22.926C7.93389 22.926 7.80574 22.8624 7.64555 22.8306L7.58148 22.7988ZM6.17182 24.6437L7.06887 25.1209C7.06887 24.9936 7.06887 24.8982 7.10091 24.7392V24.3256L6.13978 24.6437H6.17182ZM7.83778 26.0116V25.7889C7.83778 25.7889 7.7737 25.7253 7.70963 25.6935C7.54944 25.598 7.35721 25.5026 7.06887 25.3435L5.53106 24.5483V24.2938L7.61351 23.6258C7.86982 23.5304 8.03 23.4986 8.06204 23.4668C8.06204 23.4668 8.12612 23.3713 8.12612 23.2441H8.28631C8.28631 23.4668 8.25427 23.6576 8.22223 23.8167C8.22223 24.0393 8.22223 24.2302 8.19019 24.4211H8.03V24.1666C8.03 24.1666 8.03 24.1348 7.96593 24.1348C7.96593 24.1348 7.86982 24.1348 7.70963 24.1984L7.38925 24.2938C7.38925 24.4529 7.35721 24.6119 7.32517 24.8028C7.32517 24.9618 7.32517 25.1209 7.29314 25.2481L7.48536 25.3435C7.54944 25.3435 7.61351 25.4072 7.74166 25.439H7.86982C7.86982 25.439 7.90185 25.3435 7.93389 25.1845H8.09408C8.09408 25.3117 8.06204 25.4708 8.03 25.6298V26.0434H7.86982L7.83778 26.0116ZM8.15815 29.0971H8.06204C8.03 29.0335 7.99797 28.9699 7.93389 28.9062C7.61351 28.9062 7.2611 28.9062 6.90868 28.9699C6.62034 28.9699 6.36404 29.0017 6.10774 29.0335C5.91551 29.0335 5.8194 29.0653 5.78736 29.0653L5.75533 29.0971V29.3516H5.59514C5.59514 29.1289 5.59514 28.9062 5.5631 28.7154C5.5631 28.5245 5.5631 28.3337 5.49902 28.1746H5.65921C5.65921 28.3337 5.69125 28.4291 5.72329 28.4609H6.39608L7.29314 28.3973C7.45333 28.3973 7.64555 28.3973 7.86982 28.3337V27.9838C7.86982 27.7611 7.83778 27.5702 7.7737 27.4112C7.64555 27.4112 7.5174 27.3794 7.35721 27.3476V27.1885H7.99797C7.99797 27.3158 8.03 27.4112 8.06204 27.5066V28.1746C8.09408 28.1746 8.12612 28.4609 8.12612 28.4609C8.12612 28.5881 8.12612 28.779 8.19019 29.0335L8.15815 29.0971ZM6.49219 31.2284L7.48536 31.451C7.48536 31.3238 7.48536 31.2284 7.42129 31.0693C7.42129 30.9421 7.38925 30.783 7.35721 30.6558L6.49219 31.1966V31.2284ZM8.44649 32.1508C8.44649 32.0236 8.41446 31.96 8.38242 31.96C8.38242 31.96 8.31834 31.9282 8.22223 31.8964C8.06204 31.8328 7.80574 31.8009 7.5174 31.7055L5.85144 31.3238V31.0693C5.8194 31.0693 7.64555 29.956 7.64555 29.956C7.86982 29.7969 7.99797 29.7333 8.03 29.7015V29.4788H8.19019C8.19019 29.6379 8.25427 29.8287 8.25427 30.0196C8.28631 30.2423 8.31834 30.4331 8.35038 30.624H8.19019C8.19019 30.4967 8.12612 30.4331 8.12612 30.4013H8.06204C8.06204 30.4013 7.96593 30.4331 7.83778 30.5285L7.54944 30.6876C7.54944 30.8466 7.58148 31.0057 7.61351 31.1966C7.61351 31.3556 7.67759 31.5147 7.67759 31.6419H7.90185C7.96593 31.7055 8.06204 31.7055 8.15815 31.7373H8.22223C8.22223 31.7373 8.25427 31.7373 8.28631 31.7055V31.451H8.44649C8.44649 31.5465 8.44649 31.7055 8.51057 31.8646C8.51057 32.0236 8.57465 32.1508 8.57465 32.2463H8.41446L8.44649 32.1508ZM9.56781 35.0774H9.40763C9.34355 34.9819 9.31151 34.8865 9.31151 34.8865H9.24744C9.2154 34.8865 9.11929 34.8865 8.92706 34.9501C8.63872 35.0137 8.41446 35.0774 8.28631 35.141L7.54944 35.3636C7.35721 35.4273 7.22906 35.4591 7.22906 35.4909V35.5227C7.22906 35.5227 7.22906 35.6499 7.2611 35.809H7.10091C7.03683 35.6817 7.0048 35.5227 6.97276 35.4273C6.97276 35.3318 6.90868 35.2046 6.87665 35.1092C7.13295 34.7274 7.42129 34.3139 7.70963 33.8686C7.90185 33.5505 8.06204 33.296 8.19019 33.0733L7.48536 33.296C7.22906 33.3914 7.0048 33.455 6.81257 33.5187C6.68442 33.5505 6.62034 33.5823 6.62034 33.6141V33.6459C6.62034 33.6459 6.62034 33.7413 6.68442 33.9004H6.52423C6.49219 33.805 6.46016 33.6777 6.42812 33.5505C6.36404 33.3914 6.332 33.2324 6.26793 33.0733H6.42812C6.49219 33.1688 6.52423 33.2324 6.52423 33.2642H6.58831C6.58831 33.2642 6.71646 33.2642 6.87665 33.2006L7.58148 32.9779L8.28631 32.7552C8.47853 32.6916 8.67076 32.628 8.86298 32.5644C8.86298 32.7234 8.86299 32.8189 8.89502 32.8825C8.63872 33.296 8.35038 33.7731 7.96593 34.3457C7.7737 34.632 7.61351 34.8865 7.48536 35.0774L8.15815 34.8547C8.35038 34.7911 8.57465 34.7274 8.83095 34.632C9.02317 34.5684 9.11929 34.5366 9.15132 34.5048V34.473C9.15132 34.473 9.15132 34.3457 9.11929 34.2185H9.27948C9.34355 34.3775 9.37559 34.5048 9.40763 34.5684C9.40763 34.632 9.4717 34.7911 9.56781 35.0137V35.0774ZM10.2406 36.6042C10.1445 36.3816 9.95227 36.2543 9.728 36.1907C9.50374 36.1271 9.2154 36.1907 8.89502 36.3816C8.54261 36.5724 8.31834 36.7633 8.22223 37.0177C8.12612 37.2086 8.15815 37.4313 8.28631 37.6858C8.41446 37.9084 8.57465 38.0675 8.79891 38.0993C9.02317 38.1629 9.31151 38.0993 9.63189 37.9402C9.85615 37.813 10.0484 37.6858 10.1765 37.5267C10.3047 37.3677 10.3688 37.2086 10.4008 37.0814C10.4008 36.9223 10.4008 36.7633 10.3047 36.6042H10.2406ZM10.4328 36.5724C10.6251 36.9859 10.6891 37.3358 10.593 37.6539C10.4969 37.972 10.2726 38.2265 9.88819 38.4174C9.63189 38.5446 9.40763 38.6082 9.15132 38.5764C8.92706 38.5764 8.7028 38.481 8.51057 38.3538C8.31834 38.2265 8.15815 38.0039 7.99797 37.7176C7.86982 37.4313 7.7737 37.1768 7.7737 36.9541C7.7737 36.7315 7.83778 36.5406 7.93389 36.3497C8.06204 36.1589 8.22223 36.0316 8.44649 35.9044C8.7028 35.7772 8.9591 35.7135 9.18336 35.7135C9.43966 35.7135 9.63189 35.809 9.85615 35.9362C10.0484 36.0635 10.2086 36.2861 10.3688 36.5406L10.4328 36.5724ZM11.8425 39.0854L11.7143 39.1808C11.6182 39.0536 11.5542 38.9581 11.5221 38.9581C11.5221 38.9581 11.458 38.9581 11.3619 38.99C11.2338 39.0536 10.9454 39.2126 10.593 39.4671C10.4649 39.5625 10.2406 39.6898 9.98431 39.8488C9.79208 39.9761 9.69597 40.0397 9.69597 40.0397V40.1033C9.69597 40.1033 9.728 40.2305 9.82412 40.3578L9.69597 40.4532C9.56782 40.2305 9.4717 40.0715 9.40763 39.9443C9.27948 39.7534 9.18336 39.5625 9.05521 39.4353L9.18336 39.3399C9.27948 39.4671 9.34355 39.5625 9.37559 39.5625H9.50374C9.59985 39.4989 9.82412 39.4035 10.1125 39.2126C10.5289 38.9581 10.7852 38.7991 10.9454 38.6719C11.1056 38.5764 11.2017 38.5128 11.2017 38.481V38.4174C11.2017 38.4174 11.1697 38.3219 11.1056 38.1947L11.2338 38.0993L11.3299 38.2901C11.394 38.4174 11.458 38.5128 11.5221 38.6082L11.8745 39.1172L11.8425 39.0854ZM13.0599 40.6759L12.9318 40.7713C12.8997 40.7077 12.8357 40.6759 12.7716 40.6123L12.7075 40.5804H12.6114C12.5794 40.5804 12.4192 40.7077 12.1308 40.8985C11.9386 41.0258 11.7464 41.1848 11.5542 41.3439C11.1697 41.6302 10.9775 41.7892 10.9454 41.7892C10.9454 41.7892 10.9454 41.821 11.0095 41.9165C11.1056 42.0437 11.2017 42.1709 11.2979 42.2664C11.3299 42.33 11.3619 42.3618 11.394 42.3618H11.426C11.426 42.3618 11.5221 42.2982 11.7143 42.2027L11.8105 42.33C11.6182 42.4572 11.458 42.5845 11.3299 42.7117C11.1056 42.3936 10.8814 42.0755 10.6571 41.7892C10.4328 41.5029 10.1765 41.1848 9.88819 40.8349C10.0484 40.7077 10.2086 40.6123 10.4008 40.485L10.4969 40.6123C10.3367 40.7395 10.2726 40.8031 10.2406 40.8349V40.8985C10.2726 40.994 10.4008 41.153 10.561 41.3757H10.593C10.593 41.3757 10.6251 41.3757 10.6891 41.3121L11.6823 40.5804C11.9706 40.3578 12.1308 40.2305 12.1949 40.1669C12.259 40.1033 12.291 40.0715 12.291 40.0397C12.291 40.0397 12.2269 39.9443 12.1629 39.7852L12.291 39.6898C12.3871 39.8488 12.5153 40.0079 12.6114 40.1669C12.7716 40.3896 12.8997 40.5486 13.0279 40.6759H13.0599ZM13.156 43.666L14.1172 43.2843C14.0531 43.1889 13.957 43.0934 13.8609 42.998L13.5725 42.7117L13.156 43.6342V43.666ZM15.2705 43.3161C15.1744 43.2525 15.1424 43.1889 15.1103 43.1889C15.1103 43.1889 15.0463 43.1889 14.9502 43.2207C14.79 43.2843 14.5657 43.3479 14.2774 43.4751L12.6755 44.1113L12.4832 43.9205L13.3162 41.9483C13.4123 41.6938 13.4764 41.5347 13.4764 41.5029C13.4764 41.4711 13.4444 41.4075 13.3483 41.3121L13.4444 41.2166C13.5725 41.3757 13.7007 41.5029 13.8288 41.6302L14.2453 42.0437L14.1492 42.1391C14.0531 42.0437 13.989 41.9801 13.957 41.9801H13.8929C13.8929 41.9801 13.8288 42.0755 13.7648 42.2027L13.6366 42.5208C13.7327 42.6163 13.8609 42.7435 13.989 42.9026L14.3094 43.2207L14.5337 43.1252C14.5977 43.1252 14.6618 43.0616 14.79 42.998C14.79 42.998 14.822 42.998 14.854 42.9662V42.9026C14.854 42.9026 14.79 42.8071 14.6939 42.6799L14.79 42.5845C14.854 42.6799 14.9822 42.7753 15.0783 42.9026L15.3666 43.1889L15.2385 43.3161H15.2705ZM17.8656 45.0974L17.7695 45.2247C17.6413 45.1293 17.5772 45.0974 17.5452 45.0974H17.4811L17.2569 45.3201C17.0646 45.5428 16.9365 45.7018 16.8404 45.8291L16.3598 46.4335C16.2317 46.5925 16.1676 46.6879 16.1355 46.7197V46.7834C16.1355 46.7834 16.1996 46.8788 16.3278 47.006L16.2317 47.1333C16.0715 47.006 15.9754 46.9106 15.9113 46.847C15.8472 46.7834 15.7511 46.7197 15.6229 46.6243V45.1292C15.6229 44.7475 15.6229 44.4612 15.5909 44.2068L15.1424 44.7793C14.9822 45.002 14.822 45.1929 14.6939 45.3519C14.6298 45.4473 14.5977 45.511 14.5657 45.5428V45.6064L14.7579 45.7973L14.6618 45.9245C14.5657 45.8291 14.4696 45.7654 14.3414 45.67C14.2133 45.5428 14.0851 45.4473 13.957 45.3837L14.0531 45.2565C14.1812 45.3201 14.2453 45.3837 14.2774 45.3837H14.3414C14.3414 45.3837 14.4375 45.2883 14.5337 45.1611L15.0142 44.5885L15.4948 44.0159C15.6229 43.8569 15.7511 43.6978 15.8472 43.5388H15.8792C15.9754 43.6342 16.0394 43.7296 16.1035 43.7614C16.1035 44.2386 16.1356 44.8112 16.1676 45.4792V46.338L16.6161 45.7973C16.7443 45.6382 16.8724 45.4473 17.0646 45.2565C17.1928 45.0974 17.2569 45.002 17.2569 44.9702V44.9384C17.2569 44.9384 17.1928 44.843 17.0646 44.7475L17.1608 44.6203C17.3209 44.7475 17.4171 44.843 17.4811 44.9066C17.5452 44.9384 17.6734 45.0338 17.8335 45.1929L17.8656 45.0974Z" fill="#19171D"/>
<path fill-rule="evenodd" clip-rule="evenodd" d="M48.7821 38.449L48.9102 38.5444C48.8462 38.6717 48.7821 38.7353 48.7821 38.7671V38.8307C48.7821 38.8307 48.8782 38.9262 49.0384 39.0216C49.2947 39.1806 49.4549 39.3079 49.583 39.4033L50.2238 39.8486C50.384 39.9759 50.5121 40.0395 50.5442 40.0395H50.6082C50.6082 40.0395 50.7043 39.9441 50.8005 39.8168L50.9286 39.9123C50.8005 40.0713 50.7364 40.1985 50.6723 40.2622C50.6082 40.3576 50.5442 40.453 50.4801 40.5485C50.0316 40.5803 49.519 40.6121 48.9743 40.6757C48.6219 40.7075 48.3015 40.7393 48.0452 40.8029L48.6539 41.2165C48.8782 41.3755 49.0704 41.5027 49.2626 41.5982C49.3588 41.6618 49.4228 41.6936 49.4549 41.6936H49.519C49.519 41.6936 49.583 41.63 49.6791 41.5027L49.8073 41.5982C49.7432 41.6936 49.6471 41.8208 49.583 41.9163C49.4869 42.0753 49.3908 42.2026 49.3267 42.3298L49.1986 42.2344C49.2626 42.1071 49.2947 42.0435 49.3267 42.0117V41.9481C49.3267 41.9481 49.2306 41.8527 49.1025 41.789L48.4937 41.3755L47.885 40.962C47.7248 40.8666 47.5647 40.7393 47.3724 40.6439C47.4685 40.5166 47.5647 40.4212 47.5967 40.3894C48.0773 40.3258 48.6539 40.2622 49.3267 40.1667C49.6791 40.1349 49.9675 40.1031 50.1917 40.1031L49.583 39.6896C49.4228 39.5942 49.2306 39.4669 49.0063 39.3079C48.8462 39.2124 48.75 39.1488 48.686 39.1488H48.6539C48.6539 39.1488 48.5578 39.2124 48.4617 39.3397L48.3336 39.2442C48.4617 39.0852 48.5258 38.958 48.5899 38.8943C48.6219 38.8307 48.718 38.7035 48.8462 38.5126M52.3703 36.9221L52.4985 36.9858C52.3703 37.2084 52.2742 37.3993 52.1781 37.5583C52.114 37.6538 52.0499 37.8128 51.9538 38.0037L51.8257 37.94C51.8897 37.8446 51.8897 37.7492 51.9218 37.7174V37.6538C51.9218 37.6538 51.9218 37.6219 51.8577 37.5901C51.7936 37.5583 51.6334 37.4629 51.3451 37.3038C51.1529 37.2084 50.9286 37.0812 50.7364 36.9858C50.5762 36.8903 50.416 36.8585 50.3199 36.8585C50.2238 36.8585 50.1277 36.8585 50.0636 36.9539C49.9675 37.0494 49.8714 37.1448 49.8073 37.272C49.7112 37.4311 49.6791 37.5901 49.6791 37.7174C49.6791 37.8446 49.7432 37.94 49.8393 38.0355C49.9354 38.1309 50.1277 38.2581 50.4801 38.4172L51.0888 38.7353C51.2169 38.7989 51.3131 38.8307 51.3451 38.8307H51.4092C51.4092 38.8307 51.5053 38.7353 51.5694 38.6081L51.6975 38.6717C51.6334 38.7989 51.5373 38.9262 51.4733 39.0534C51.4092 39.1488 51.3451 39.2761 51.281 39.4351L51.1529 39.3715C51.217 39.2761 51.217 39.1806 51.217 39.1488C51.217 39.117 51.1529 39.0534 51.0568 39.0216C50.8325 38.8943 50.5442 38.7353 50.2238 38.5762L49.8393 38.3854C49.6791 38.29 49.583 38.1945 49.519 38.0673C49.4549 37.94 49.4228 37.8128 49.4228 37.6219C49.4228 37.4311 49.4869 37.2402 49.583 37.0494C49.6791 36.8267 49.8073 36.6677 49.9675 36.5404C50.0956 36.4132 50.2558 36.3814 50.384 36.3496C50.5121 36.3496 50.6723 36.3814 50.8645 36.4768L51.6014 36.8585C51.6655 36.8585 51.8257 36.9539 52.0499 37.0812C52.114 37.113 52.1781 37.1448 52.2101 37.1448H52.2742C52.2742 37.1448 52.3383 37.0812 52.4023 36.9539L52.3703 36.9221ZM50.9606 34.4092C50.8645 34.6318 50.8966 34.8545 51.0247 35.0454C51.1529 35.2362 51.3771 35.3953 51.7296 35.5225C52.114 35.6497 52.4023 35.6815 52.6587 35.5861C52.8509 35.5225 53.0111 35.3316 53.1072 35.0772C53.2033 34.8227 53.1713 34.6 53.0431 34.4092C52.915 34.2183 52.6907 34.0592 52.3383 33.932C52.082 33.8366 51.8577 33.8048 51.6655 33.8366C51.4733 33.8366 51.3131 33.9002 51.1849 33.9956C51.0568 34.0911 50.9927 34.2183 50.9286 34.4092H50.9606ZM50.8005 34.2819C50.9606 33.8684 51.1849 33.5821 51.4733 33.4231C51.7616 33.264 52.114 33.264 52.4985 33.4231C52.7548 33.5185 52.979 33.6457 53.1392 33.8366C53.2994 33.9956 53.3955 34.2183 53.4276 34.441C53.4596 34.6636 53.4276 34.9499 53.3314 35.2362C53.2353 35.5225 53.1072 35.7452 52.947 35.9042C52.7868 36.0633 52.5946 36.1587 52.4023 36.1905C52.2101 36.2223 51.9538 36.1905 51.7296 36.1269C51.4733 36.0315 51.249 35.9042 51.0888 35.7134C50.9286 35.5225 50.8325 35.3316 50.8005 35.0772C50.7684 34.8227 50.8005 34.5682 50.8966 34.2819H50.8005ZM51.7936 32.7869H51.7296C51.6655 32.7869 51.6334 32.7232 51.5694 32.6914C51.5373 32.5324 51.5053 32.4051 51.5053 32.2461C51.5053 32.1189 51.5053 31.9598 51.5694 31.8008C51.6334 31.4827 51.7616 31.2282 51.8897 31.0373C52.0499 30.8465 52.2422 30.7192 52.4664 30.6238C52.6907 30.5602 52.947 30.5284 53.2033 30.6238C53.5877 30.6874 53.844 30.9101 54.0363 31.1964C54.2285 31.5145 54.2605 31.8962 54.1644 32.3733C54.1324 32.5324 54.1003 32.6914 54.0363 32.8187C53.9722 32.9777 53.9081 33.105 53.812 33.2322C53.7479 33.2322 53.6839 33.1686 53.6198 33.1686C53.5237 33.1368 53.3955 33.105 53.2353 33.0413V32.8823C53.4596 32.9141 53.5557 32.9459 53.5877 32.9141C53.5877 32.9141 53.6518 32.9141 53.7159 32.8505C53.78 32.7869 53.812 32.7232 53.8761 32.6278C53.9402 32.5324 53.9722 32.4369 54.0042 32.3097C54.0683 32.0234 54.0042 31.7689 53.8761 31.5781C53.7479 31.3872 53.4916 31.2282 53.1713 31.1646C52.8188 31.1009 52.5305 31.1646 52.2742 31.2918C52.0499 31.4508 51.8897 31.6735 51.8257 31.9916C51.8257 32.1188 51.7936 32.2461 51.7936 32.3415C51.7936 32.4688 51.7936 32.596 51.8577 32.7232L51.7936 32.7869ZM52.146 26.234H52.3062V26.4885L52.3703 26.5203H54.4848C54.4848 26.5203 54.5168 26.5203 54.5168 26.4885C54.5168 26.4885 54.5168 26.3613 54.5489 26.2022H54.7091V26.9657C54.3566 27.2519 53.9402 27.57 53.5237 27.92C53.2353 28.1426 53.0111 28.3653 52.8188 28.5243H54.4848V28.2381H54.645V29.0969H54.4848V28.8106H52.082C52.082 28.6516 52.114 28.5243 52.146 28.4607C52.4985 28.1426 52.947 27.7609 53.4596 27.3156C53.7159 27.0929 53.9402 26.902 54.1324 26.7748H52.3703C52.3703 26.7748 52.3703 26.8702 52.3383 27.0293H52.1781V26.1704L52.146 26.234ZM52.2101 24.6117C52.2422 24.8662 52.3703 25.0253 52.5625 25.1525C52.7548 25.2797 53.0431 25.3116 53.4276 25.2479C53.812 25.1843 54.1003 25.0571 54.2926 24.8662C54.4528 24.7072 54.4848 24.4845 54.4528 24.1982C54.4207 23.9437 54.2926 23.7529 54.1003 23.6256C53.9081 23.4984 53.6198 23.4666 53.2674 23.5302C53.0111 23.562 52.7868 23.6256 52.6266 23.7529C52.4664 23.8483 52.3383 23.9755 52.2742 24.1028C52.2101 24.23 52.2101 24.3891 52.2101 24.5799V24.6117ZM52.0179 24.5799C51.9538 24.1346 52.0179 23.7847 52.2101 23.4984C52.4023 23.2439 52.7227 23.0531 53.1072 23.0212C53.3955 22.9894 53.6518 23.0212 53.844 23.0849C54.0683 23.1803 54.2285 23.3075 54.3567 23.4984C54.4848 23.6893 54.5809 23.9437 54.6129 24.2618C54.645 24.5799 54.613 24.8344 54.5809 25.0253C54.5168 25.2479 54.3887 25.407 54.2285 25.5342C54.0683 25.6615 53.844 25.7569 53.5877 25.7887C53.2994 25.8205 53.0431 25.7887 52.8188 25.7251C52.5946 25.6297 52.4023 25.5024 52.2742 25.3116C52.146 25.1207 52.0499 24.8662 51.9859 24.5799H52.0179ZM51.5694 21.7489H51.7296C51.7936 21.8761 51.8257 21.9715 51.8257 21.9715H51.9859C52.146 21.9715 52.4344 21.8761 52.8829 21.7807C53.0431 21.7489 53.2994 21.6852 53.5877 21.5898C53.812 21.5262 53.9081 21.4944 53.9402 21.4944L53.9722 21.4308C53.9722 21.4308 53.9722 21.3035 53.9402 21.1445H54.1003C54.1644 21.3671 54.1965 21.5262 54.2285 21.6852C54.2926 21.9079 54.3246 22.0988 54.3887 22.2896H54.2285C54.1644 22.1624 54.1324 22.067 54.1324 22.067H54.0042C53.8761 22.067 53.6518 22.1306 53.2994 22.226C52.8188 22.3532 52.4985 22.4169 52.3383 22.4805C52.146 22.5441 52.0499 22.5759 52.0179 22.6077V22.6713C52.0179 22.6713 52.0179 22.7668 52.0499 22.9258H51.8897C51.8897 22.9576 51.8577 22.7668 51.8577 22.7668C51.8577 22.6395 51.7936 22.5123 51.7616 22.4169L51.6014 21.8125L51.5694 21.7489ZM51.0247 19.8085H51.1849C51.1849 19.8085 51.217 19.9039 51.281 19.9675C51.281 19.9675 51.3131 20.0311 51.3451 20.0311H51.4412C51.5053 20.0311 51.6975 19.9675 52.0179 19.8721C52.2422 19.8085 52.4664 19.7448 52.7227 19.6812C53.2033 19.554 53.4276 19.4585 53.4276 19.4585V19.3313C53.3635 19.1723 53.3314 19.045 53.2994 18.9178C53.2994 18.8542 53.2674 18.8224 53.2353 18.8224H53.2033C53.2033 18.8224 53.0751 18.8224 52.8829 18.886V18.7269C53.0751 18.6633 53.2674 18.5997 53.3955 18.5361C53.4916 18.9178 53.5877 19.2677 53.7159 19.6176C53.812 19.9675 53.9402 20.3492 54.1003 20.7628C53.9402 20.8264 53.7479 20.8582 53.5237 20.9218V20.7628C53.6839 20.6991 53.78 20.6355 53.78 20.6355V20.5719C53.78 20.4765 53.7159 20.2856 53.6198 19.9993V19.9675H53.5237L52.3383 20.3174C51.9859 20.4128 51.7936 20.4765 51.6975 20.5083C51.6334 20.5083 51.5694 20.5719 51.5694 20.6037C51.5694 20.6037 51.5694 20.7309 51.6014 20.89H51.4412C51.4092 20.7628 51.3451 20.5719 51.281 20.381C51.217 20.1266 51.1208 19.9357 51.0888 19.7766L51.0247 19.8085ZM51.9538 16.9456H50.9286C50.9606 17.1046 51.0247 17.2001 51.0888 17.3273C51.1529 17.4545 51.217 17.5818 51.281 17.6772L51.9859 16.9138L51.9538 16.9456ZM49.8393 16.5957C49.9034 16.6911 49.9354 16.7547 49.9675 16.7865H50.8645L52.5946 16.6911L52.7227 16.9456L51.281 18.5361C51.0888 18.7269 50.9927 18.8542 50.9927 18.886C50.9927 18.9178 50.9927 18.9814 51.0568 19.1086L50.9286 19.1723C50.8645 18.9814 50.7684 18.8224 50.7043 18.6633C50.6082 18.4724 50.5121 18.2816 50.448 18.1225L50.5762 18.0589C50.6403 18.1862 50.6723 18.2498 50.7043 18.2816H50.7684C50.7684 18.2816 50.8645 18.218 50.9606 18.1225L51.1849 17.8681C51.1208 17.7408 51.0568 17.5818 50.9606 17.4227C50.8966 17.2637 50.8325 17.1364 50.7684 17.0092H50.5442C50.4801 17.0092 50.384 17.0092 50.2879 17.0728H50.2238C50.2238 17.0728 50.1917 17.0728 50.1917 17.1364C50.1917 17.1364 50.1917 17.2319 50.2558 17.3909L50.1277 17.4545C50.0956 17.3273 50.0316 17.2001 49.9354 17.041C49.8714 16.882 49.8073 16.7547 49.7432 16.6911L49.9034 16.6275L49.8393 16.5957ZM48.6539 14.9734L48.7821 14.9097C48.8141 14.9734 48.8462 15.037 48.9102 15.1006C48.9102 15.1006 48.9423 15.1324 48.9743 15.1642H49.0704C49.1345 15.1642 49.2947 15.037 49.583 14.8779C49.7753 14.7507 49.9995 14.6235 50.2238 14.4962C50.6403 14.2417 50.8645 14.1145 50.8645 14.1145C50.8645 14.1145 50.8645 14.0827 50.8005 13.9873C50.7043 13.8282 50.6403 13.7328 50.5762 13.6055C50.5442 13.5419 50.5121 13.5101 50.5121 13.5101H50.4801C50.4801 13.5101 50.3519 13.5737 50.1917 13.6374L50.0956 13.5101C50.2879 13.3829 50.4801 13.2874 50.6082 13.192C50.8005 13.5419 50.9927 13.86 51.1529 14.1781C51.3451 14.4962 51.5694 14.8461 51.7936 15.196C51.6334 15.2915 51.4733 15.3869 51.249 15.4823L51.1849 15.3551C51.3451 15.2278 51.4412 15.1642 51.4412 15.1642V15.1006C51.4092 15.0052 51.3131 14.8461 51.1529 14.5916C51.1529 14.5916 51.1529 14.5598 51.1208 14.5598C51.1208 14.5598 51.0888 14.5598 51.0247 14.5916L49.9675 15.2278C49.6471 15.4187 49.4869 15.5141 49.3908 15.5778C49.3267 15.6414 49.2947 15.6732 49.2947 15.705C49.2947 15.705 49.3267 15.8004 49.4228 15.9595L49.2947 16.0231C49.1986 15.864 49.1025 15.705 49.0063 15.5141C48.8782 15.2915 48.75 15.1006 48.6539 14.9734ZM47.5006 13.3829L47.6287 13.2874C47.7248 13.4147 47.821 13.4783 47.821 13.4783C47.821 13.4783 47.885 13.4783 47.9491 13.4147C48.0773 13.3193 48.3336 13.1602 48.686 12.8739C48.8141 12.7785 49.0063 12.6194 49.2626 12.4286C49.4228 12.3013 49.519 12.2059 49.551 12.2059V12.1423C49.551 12.1423 49.4869 12.0469 49.4228 11.8878L49.551 11.7924C49.7112 11.9832 49.8073 12.1423 49.9034 12.2695C50.0316 12.4604 50.1597 12.6194 50.2879 12.7467L50.1597 12.8421C50.0636 12.7149 49.9995 12.6512 49.9675 12.6512C49.9675 12.6512 49.9034 12.6512 49.8393 12.6831C49.7432 12.7467 49.551 12.8739 49.2626 13.0966C48.8782 13.3829 48.6219 13.5737 48.4617 13.701C48.3015 13.8282 48.2374 13.8918 48.2054 13.9236V13.9873C48.2054 13.9873 48.2695 14.0827 48.3336 14.2099L48.2054 14.3054L48.0773 14.1145C48.0132 13.9873 47.9171 13.8918 47.853 13.8282L47.4685 13.3511L47.5006 13.3829ZM46.155 11.5061C46.2191 11.6015 46.2831 11.6651 46.3472 11.7606C46.5394 11.9514 46.6996 12.0787 46.8598 12.1423C47.02 12.2059 47.1802 12.1741 47.3724 12.1423C47.5647 12.0787 47.7569 11.9514 47.9491 11.7924C48.2054 11.5697 48.3336 11.3152 48.3336 11.0608C48.3336 10.8381 48.2054 10.6154 47.9811 10.3609C47.9171 10.2973 47.821 10.2019 47.6928 10.1065L46.8598 10.9017C46.5074 11.2198 46.2831 11.4743 46.155 11.6015V11.5061ZM45.4822 11.1562L45.5463 11.0926C45.6424 11.0926 45.7065 11.1244 45.7385 11.1562C45.8987 11.0289 46.2191 10.7427 46.6356 10.3291C46.8278 10.1383 46.988 10.011 47.0841 9.8838C47.2122 9.75656 47.2763 9.69294 47.2763 9.66113V9.62932C47.2763 9.62932 47.2122 9.53389 47.1161 9.40665L47.2443 9.31122C47.3724 9.43846 47.5006 9.59751 47.6928 9.78836L48.3336 10.4246C48.5578 10.6472 48.718 10.8699 48.7821 11.0608C48.8462 11.2516 48.8462 11.4107 48.7821 11.6015C48.718 11.7924 48.6219 11.9832 48.4297 12.1423C48.2054 12.365 47.9491 12.4922 47.6928 12.524C47.4045 12.5558 47.1802 12.524 46.9559 12.4604C46.7317 12.365 46.5394 12.2377 46.3472 12.0469L45.8667 11.5379C45.8026 11.4425 45.6744 11.347 45.5142 11.188L45.4822 11.1562ZM43.7522 9.62932L43.8162 9.5657C43.8803 9.5657 43.9444 9.59751 44.0085 9.59751C44.1687 9.47027 44.425 9.18398 44.8414 8.70683C45.1298 8.38873 45.29 8.19788 45.3861 8.07064C45.4181 8.00702 45.4502 7.97521 45.4502 7.9434C45.4502 7.9434 45.3861 7.84797 45.29 7.72073L45.3861 7.59349C45.6104 7.78435 45.7705 7.9434 45.8987 8.03883L46.6676 8.70683C46.7637 8.77045 46.8278 8.83407 46.8919 8.89769C46.7957 8.99312 46.6676 9.12036 46.5074 9.27941L46.4113 9.18398C46.5394 9.05674 46.5715 8.96131 46.5715 8.96131C46.5715 8.96131 46.5715 8.9295 46.5394 8.86588C46.4754 8.77045 46.3793 8.67502 46.2191 8.54778C46.155 8.48416 46.0589 8.42054 45.9307 8.32511C45.6744 8.6114 45.4502 8.83407 45.322 8.99312C45.4181 9.08855 45.5142 9.18398 45.5783 9.2476C45.7065 9.37484 45.8026 9.40665 45.8346 9.43846H45.8987C45.8987 9.43846 45.9628 9.37484 46.0589 9.27941L46.187 9.37484C46.0589 9.53389 45.9628 9.62932 45.8987 9.66113L45.6424 9.97922L45.5142 9.8838C45.6103 9.75656 45.6744 9.69294 45.6744 9.66113V9.59751C45.6424 9.53389 45.5463 9.43846 45.3861 9.31122C45.322 9.27941 45.2579 9.21579 45.1939 9.15217C45.1618 9.18398 45.0977 9.2476 45.0657 9.31122C44.8414 9.5657 44.6492 9.78836 44.5531 9.9156L44.8094 10.1701C44.9696 10.2973 45.1298 10.4246 45.2579 10.52C45.354 10.4564 45.4502 10.3928 45.5783 10.2973L45.7065 10.3928C45.5463 10.5518 45.3861 10.679 45.2579 10.8381C45.1618 10.7745 45.0657 10.7108 45.0016 10.6472C44.9376 10.6154 44.8414 10.52 44.7133 10.3928C44.5851 10.2655 44.457 10.1701 44.3288 10.0428C44.1687 9.91561 44.0085 9.75655 43.8162 9.62932H43.7522ZM41.4134 8.00702L41.5095 7.87978C41.6377 7.9434 41.7017 7.97521 41.7338 7.97521H41.7658C41.7658 7.97521 41.8619 7.87978 41.958 7.75254C42.1182 7.52987 42.2143 7.37082 42.3105 7.24358C42.4386 7.08453 42.5668 6.86186 42.727 6.60738C42.8551 6.41652 42.9192 6.28929 42.9512 6.22567V6.19386C42.9512 6.19386 42.8871 6.13024 42.791 6.03481L42.8871 5.90757C43.0794 6.06662 43.2396 6.16205 43.2716 6.19386L44.0405 6.70281C44.2007 6.79824 44.3288 6.92548 44.3609 6.9891C44.425 7.08453 44.425 7.14815 44.425 7.27539C44.425 7.37082 44.3929 7.46625 44.3288 7.56168C44.2327 7.68892 44.1366 7.75254 44.0085 7.81616C43.8803 7.84797 43.6881 7.84797 43.4638 7.81616V9.05674C43.4638 9.15217 43.4638 9.21579 43.4959 9.2476C43.4959 9.2476 43.5599 9.31122 43.592 9.34303L43.5279 9.47027L43.4318 9.40665C43.1755 9.2476 43.0153 9.12036 42.9192 9.08855V7.49806C42.9192 7.49806 42.9833 7.49806 42.9833 7.46625C43.0153 7.49806 43.0473 7.52987 43.0794 7.52987C43.1755 7.59349 43.3036 7.6253 43.4318 7.59349C43.5599 7.59349 43.6881 7.49806 43.7842 7.37082C43.8803 7.24358 43.8803 7.11634 43.8803 7.02091C43.8803 6.89367 43.7842 6.79824 43.624 6.70281C43.592 6.70281 43.5279 6.63919 43.4318 6.57557L43.1114 7.02091L42.727 7.59349C42.6308 7.72073 42.5347 7.87978 42.4066 8.10245C42.3105 8.26149 42.2784 8.35692 42.2464 8.35692V8.42054C42.2464 8.42054 42.3105 8.51597 42.4386 8.57959L42.3425 8.70683C42.1503 8.57959 41.9901 8.45235 41.8619 8.35692C41.7017 8.26149 41.5416 8.16606 41.3814 8.03883L41.4134 8.00702ZM41.3493 7.49806V7.56168C41.3173 7.59349 41.2532 7.65711 41.2212 7.68892C41.061 7.68892 40.9008 7.68892 40.7727 7.65711C40.6445 7.65711 40.4843 7.56168 40.3562 7.49806C40.0678 7.33901 39.8436 7.17996 39.7154 6.9891C39.5552 6.79824 39.4911 6.57557 39.4591 6.3211C39.4591 6.09843 39.4911 5.84395 39.6193 5.62128C39.7795 5.27137 40.0678 5.08051 40.4202 4.98508C40.7727 4.88965 41.1571 4.95327 41.5736 5.17594C41.7017 5.23956 41.8619 5.33499 41.9901 5.43042C42.1182 5.52585 42.2464 5.62128 42.3425 5.74852C42.2784 5.81214 42.2464 5.87576 42.2143 5.93938C42.1503 6.03481 42.0862 6.13024 41.9901 6.28929L41.8619 6.22567C41.958 6.06662 41.9901 5.93938 41.9901 5.93938C41.9901 5.93938 41.9901 5.87576 41.958 5.81214C41.926 5.74852 41.8619 5.6849 41.7979 5.58947C41.7338 5.52585 41.6377 5.46223 41.5095 5.39861C41.2532 5.27137 40.9969 5.23956 40.7727 5.33499C40.5484 5.43042 40.3562 5.58947 40.196 5.87576C40.0358 6.19386 40.0037 6.48014 40.0999 6.76643C40.196 7.02091 40.3562 7.24358 40.6765 7.40263C40.8047 7.46625 40.9008 7.49806 41.029 7.52987C41.1571 7.52987 41.2853 7.56168 41.4134 7.56168L41.3493 7.49806ZM38.8824 6.22567V6.28929C38.8824 6.35291 38.8184 6.38472 38.7863 6.44833C38.6261 6.44833 38.4659 6.48014 38.3378 6.44833C38.2096 6.44833 38.0494 6.41653 37.8893 6.35291C37.5689 6.25748 37.3446 6.13024 37.1524 5.93938C36.9602 5.74852 36.864 5.55766 36.8 5.33499C36.7359 5.11232 36.7679 4.85784 36.832 4.60337C36.9602 4.25346 37.1844 3.99898 37.5048 3.83993C37.8252 3.68088 38.2417 3.68088 38.6902 3.83993C38.8504 3.90355 38.9785 3.93536 39.1387 4.03079C39.2669 4.09441 39.4271 4.18984 39.5552 4.28527C39.5232 4.3807 39.4911 4.41251 39.4591 4.47613C39.395 4.57156 39.363 4.6988 39.2989 4.82603H39.1387C39.2028 4.60337 39.2028 4.47613 39.2028 4.47613C39.2028 4.47613 39.2028 4.41251 39.1387 4.34889C39.1067 4.28527 39.0426 4.22165 38.9465 4.15803C38.8504 4.09441 38.7543 4.0626 38.6261 3.99898C38.3378 3.90355 38.0815 3.93536 37.8572 4.03079C37.633 4.15803 37.4728 4.34889 37.3767 4.66699C37.2805 4.98508 37.2805 5.30318 37.4087 5.55766C37.5368 5.81214 37.7611 5.97119 38.0815 6.09843C38.2096 6.13024 38.3378 6.16205 38.4339 6.16205H38.8504L38.8824 6.22567ZM35.166 3.52183L34.5894 4.34889C34.6855 4.34889 34.8136 4.41251 34.9418 4.44432C35.0699 4.44432 35.2301 4.50794 35.3583 4.50794L35.166 3.52183ZM33.5962 5.01689H33.8205C33.8205 5.01689 33.8845 4.98508 33.9486 4.88965C34.0447 4.76242 34.2049 4.53975 34.3651 4.31708L35.3262 2.88564L35.5825 2.94926L35.999 5.0487C36.0631 5.33499 36.0951 5.46223 36.0951 5.49404C36.0951 5.49404 36.1913 5.55766 36.3194 5.58947V5.74852C36.0951 5.6849 35.9029 5.65309 35.7427 5.62128C35.5505 5.58947 35.3262 5.52585 35.134 5.49404V5.33499C35.3262 5.33499 35.3903 5.3668 35.4224 5.33499C35.4224 5.33499 35.4544 5.33499 35.4544 5.27137V5.01689L35.3903 4.6988C35.2301 4.66699 35.0699 4.63518 34.8777 4.60337C34.7175 4.57156 34.5573 4.53975 34.4292 4.50794L34.301 4.6988C34.269 4.76241 34.237 4.82603 34.1729 4.92146V5.0487C34.1729 5.0487 34.269 5.08051 34.4292 5.14413V5.30318C34.269 5.27137 34.1408 5.23956 33.9486 5.20775C33.7884 5.17594 33.6603 5.14413 33.5321 5.14413V4.98508L33.5962 5.01689ZM30.3924 4.6988H30.7128C31.0011 4.6988 31.1934 4.66699 31.3536 4.57156C31.4817 4.50794 31.6099 4.3807 31.706 4.18984C31.8021 3.99898 31.8341 3.80812 31.8341 3.52183C31.8341 3.23554 31.738 2.91745 31.5778 2.7584C31.4176 2.59935 31.1613 2.53573 30.8089 2.53573H30.4245V4.66699L30.3924 4.6988ZM29.6235 4.92146V4.82603C29.7196 4.76242 29.7837 4.73061 29.8157 4.73061V2.59935C29.8157 2.59935 29.7196 2.59935 29.5594 2.56754V2.40849H31.0973C31.4176 2.40849 31.6739 2.4403 31.8341 2.53573C31.9943 2.63116 32.1545 2.7584 32.2506 2.91745C32.3467 3.0765 32.4108 3.29916 32.4108 3.55364C32.4108 3.80812 32.3467 4.12622 32.1865 4.34889C32.0264 4.57156 31.8341 4.73061 31.6099 4.82603C31.3856 4.92146 31.1293 4.98508 30.873 4.98508H29.6556L29.6235 4.92146ZM26.3557 5.20775V5.0487C26.4838 5.0487 26.5799 5.01689 26.5799 4.98508L26.612 4.92146V4.60337C26.612 4.31708 26.5479 4.09441 26.5479 3.93536L26.4518 3.17192C26.4518 2.98107 26.4198 2.85383 26.3877 2.82202L26.3557 2.79021H26.0673V2.63116C26.2275 2.63116 26.3877 2.63116 26.4838 2.59935C26.5799 2.59935 26.7081 2.59935 26.8362 2.53573C27.1566 2.85383 27.5411 3.20373 27.9255 3.58545C28.1818 3.83993 28.4381 4.03079 28.6304 4.18984L28.5342 3.45821C28.5022 3.17192 28.4702 2.94926 28.4381 2.7584C28.4381 2.63116 28.4061 2.56754 28.3741 2.53573H28.0857V2.37668C28.2139 2.37668 28.342 2.37668 28.4702 2.34487C28.6624 2.34487 28.8226 2.31306 28.9507 2.28125V2.4403C28.8226 2.4403 28.7585 2.47211 28.7265 2.50392H28.6944V2.82202L28.7905 3.55364L28.8867 4.28527C28.8867 4.47613 28.9507 4.66699 28.9828 4.85784H28.6624C28.31 4.53975 27.8614 4.15803 27.3809 3.68088C27.1246 3.45821 26.9003 3.23554 26.7401 3.0765L26.8362 3.77631C26.8362 3.96717 26.9003 4.18984 26.9324 4.47613C26.9324 4.66699 26.9964 4.79422 26.9964 4.82603H27.2527V4.98508C27.0605 4.98508 26.9324 4.98508 26.8362 5.01689C26.7722 5.01689 26.612 5.01689 26.3877 5.08051L26.3557 5.20775ZM24.2091 3.71269L24.049 4.6988C24.1451 4.6988 24.2732 4.66699 24.4014 4.63518C24.5295 4.60337 24.6577 4.57156 24.7858 4.53975L24.1771 3.71269H24.2091ZM23.4402 5.71671C23.5364 5.71671 23.6325 5.65309 23.6325 5.62128C23.6325 5.62128 23.6645 5.55766 23.6965 5.46223C23.7286 5.30318 23.7927 5.0487 23.8247 4.76242L24.113 3.0765L24.3693 3.01288L25.6188 4.73061C25.779 4.95327 25.8751 5.08051 25.9071 5.08051H26.1314V5.23956C25.9712 5.27137 25.779 5.30318 25.6188 5.3668C25.4266 5.39861 25.2023 5.46223 25.0421 5.52585V5.3668C25.1382 5.33499 25.2344 5.30318 25.2344 5.27137V5.20775C25.2344 5.20775 25.1703 5.11232 25.1062 4.98508L24.914 4.6988C24.7538 4.6988 24.5936 4.76241 24.4014 4.79422C24.2412 4.82603 24.081 4.85784 23.9528 4.88965V5.11232C23.9208 5.17594 23.9208 5.27137 23.8888 5.3668V5.43042C23.8888 5.43042 23.8888 5.46223 23.9528 5.49404H24.2091V5.65309C24.113 5.65309 23.9849 5.71671 23.7927 5.74852C23.6325 5.78033 23.5043 5.81214 23.4082 5.84395V5.6849L23.4402 5.71671Z" fill="#19171D"/>
<path fill-rule="evenodd" clip-rule="evenodd" d="M43.8482 43.9205L43.9122 43.9841C43.8802 44.0478 43.8482 44.1114 43.8161 44.175C44.0084 44.4613 44.2006 44.7158 44.4249 45.0021C44.585 45.2247 44.7452 45.4474 44.9054 45.6383C45.0015 45.7655 45.0976 45.8609 45.0976 45.8609H45.1617C45.1617 45.8609 45.2578 45.7973 45.386 45.7337L45.4821 45.8609C45.2899 45.9882 45.0976 46.1154 44.9375 46.2426C44.7773 46.3699 44.6491 46.4653 44.4889 46.5926L44.3928 46.4653C44.521 46.3699 44.585 46.2745 44.585 46.2426V46.179C44.585 46.179 44.4569 45.9882 44.2326 45.7019L43.688 44.9703C43.5919 44.843 43.4637 44.684 43.3356 44.5249C43.2074 44.6203 43.1113 44.684 43.0472 44.7158C42.855 44.843 42.7268 44.9703 42.5987 45.0975C42.6307 45.1929 42.6948 45.3202 42.7589 45.4792L42.6307 45.5746C42.5346 45.4156 42.4385 45.2247 42.2783 45.0021C42.3744 44.9066 42.4385 44.843 42.5346 44.7794L43.0793 44.3977L43.3356 44.2068C43.4317 44.1114 43.5919 44.016 43.8161 43.8569M45.0336 42.8708L45.1297 42.998C45.0015 43.1253 44.9375 43.1889 44.9375 43.2207C44.9375 43.2207 44.9375 43.2843 45.0015 43.348C45.0976 43.4752 45.2899 43.6979 45.6102 44.016C45.7384 44.1432 45.8986 44.3341 46.1228 44.5567C46.283 44.7158 46.3471 44.8112 46.3792 44.8112H46.4432C46.4432 44.8112 46.5393 44.7476 46.6675 44.6522L46.7636 44.7794C46.5714 44.9384 46.4112 45.0657 46.3151 45.1611C46.1549 45.3202 45.9947 45.4474 45.8665 45.5746L45.7704 45.4474C45.8986 45.3202 45.9627 45.2565 45.9627 45.2247C45.9627 45.2247 45.9627 45.1611 45.9306 45.0975C45.8665 45.0021 45.7064 44.8112 45.4501 44.5567C45.1297 44.2068 44.9054 43.9523 44.7773 43.8251C44.6491 43.6979 44.553 43.6024 44.521 43.6024H44.4569C44.4569 43.6024 44.3608 43.666 44.2326 43.7615L44.1365 43.6342L44.2967 43.507C44.3928 43.4116 44.4889 43.348 44.585 43.2525L45.0336 42.839V42.8708ZM45.5782 42.9662H45.5141C45.5141 42.9026 45.4501 42.839 45.418 42.7754C45.4501 42.6163 45.5141 42.4891 45.5782 42.3618C45.6423 42.2346 45.7384 42.1392 45.8665 42.0119C46.0908 41.7893 46.3151 41.6302 46.5393 41.5348C46.7636 41.4394 47.0199 41.4394 47.2442 41.4712C47.4684 41.5348 47.6927 41.6302 47.8849 41.8211C48.1733 42.0756 48.3014 42.3937 48.3014 42.7436C48.3014 43.0935 48.1412 43.4752 47.7888 43.7933C47.6927 43.9205 47.5645 44.016 47.4364 44.1114C47.3082 44.2068 47.1801 44.3022 47.0199 44.3659C46.9879 44.3022 46.9558 44.2386 46.9238 44.2068C46.8597 44.1114 46.7636 44.016 46.6675 43.9205L46.7636 43.7933C46.9238 43.9205 46.9879 43.9841 47.0199 43.9841H47.1481C47.2121 43.9841 47.3082 43.9523 47.4044 43.8887C47.5005 43.8251 47.5966 43.7615 47.6607 43.666C47.8529 43.4434 47.949 43.2207 47.949 42.9662C47.949 42.7118 47.8208 42.4891 47.5645 42.2664C47.3082 42.0438 47.0199 41.9165 46.7316 41.9165C46.4432 41.9165 46.1869 42.0438 45.9627 42.2982C45.8665 42.3937 45.8025 42.4891 45.7384 42.5845C45.6743 42.6799 45.6423 42.8072 45.5782 42.9662Z" fill="#19171D"/>
<path d="M30.5845 55.9127C35.5504 56.708 45.2578 53.8133 50.4799 54.7994C46.6034 54.6722 45.0015 54.8312 45.2258 55.7219C45.6102 57.3442 48.7499 57.535 52.0818 56.3263C53.6196 55.7537 55.1254 55.372 56.6953 55.8491C57.8166 56.199 59.066 56.5489 59.7388 55.9127C60.6039 55.1175 60.2194 54.6085 59.4185 54.9903C58.9059 55.2447 58.3292 55.6265 57.9447 54.9266C56.8875 53.9087 54.8371 53.8769 52.5624 54.0678C53.8759 53.1453 55.9584 53.018 58.4894 52.8272C61.0524 52.6363 61.6931 50.9822 58.5534 50.6641C58.3292 50.855 59.6427 51.3003 59.4505 51.9047C58.9059 52.2546 57.8807 51.9047 57.1438 51.682C54.4526 50.8868 53.043 51.3639 51.7614 52.1592C51.8576 51.4594 51.9537 50.7595 52.0818 50.0597C47.116 48.851 35.7746 51.1095 30.5845 51.2367C25.3944 51.1413 14.0851 48.8828 9.08719 50.0597C9.1833 50.7595 9.27942 51.4594 9.40757 52.1592C8.12606 51.3639 6.68436 50.8868 4.02523 51.682C3.28836 51.9047 2.26316 52.2546 1.71851 51.9047C1.52629 51.3003 2.83983 50.855 2.61557 50.6641C-0.524127 50.9822 0.116627 52.6363 2.67965 52.8272C5.21063 53.018 7.29308 53.1453 8.60663 54.0678C6.29991 53.8451 4.28153 53.9087 3.22429 54.9266C2.83983 55.6265 2.26316 55.2447 1.75055 54.9903C0.949608 54.6085 0.565156 55.1175 1.43017 55.9127C2.10297 56.5489 3.38448 56.1672 4.47376 55.8491C6.01157 55.372 7.54938 55.7537 9.08719 56.3263C12.4191 57.535 15.5588 57.376 15.9433 55.7219C16.1675 54.8312 14.5336 54.6722 10.6891 54.7994C15.9433 53.8133 25.6187 56.7398 30.5845 55.9127Z" stroke="#E63738" stroke-miterlimit="2.6"/>
<path d="M52.0819 50.3142L49.7432 50.2188" stroke="#E63738" stroke-width="0.3" stroke-miterlimit="2.6"/>
<path d="M52.0178 50.6325L50.0635 50.5371" stroke="#E63738" stroke-width="0.3" stroke-miterlimit="2.6"/>
<path d="M51.9538 50.9499L50.3198 50.8545" stroke="#E63738" stroke-width="0.3" stroke-miterlimit="2.6"/>
<path d="M51.8575 51.2683L49.8071 51.1729" stroke="#E63738" stroke-width="0.3" stroke-miterlimit="2.6"/>
<path d="M51.7934 51.5866L49.9673 51.4912" stroke="#E63738" stroke-width="0.3" stroke-miterlimit="2.6"/>
<path d="M51.6976 51.905L50.0957 51.8096" stroke="#E63738" stroke-width="0.3" stroke-miterlimit="2.6"/>
<path d="M51.6011 52.1589L54.0039 52.0635" stroke="#E63738" stroke-width="0.3" stroke-miterlimit="2.6"/>
<path d="M51.5371 52.4773L53.5234 52.3818" stroke="#E63738" stroke-width="0.3" stroke-miterlimit="2.6"/>
<path d="M51.4731 52.7956L54.6769 52.7002" stroke="#E63738" stroke-width="0.3" stroke-miterlimit="2.6"/>
<path d="M51.377 53.113L53.4594 53.0176" stroke="#E63738" stroke-width="0.3" stroke-miterlimit="2.6"/>
<path d="M51.313 53.4314L53.1712 53.3359" stroke="#E63738" stroke-width="0.3" stroke-miterlimit="2.6"/>
<path d="M51.249 53.7497L52.8829 53.6543" stroke="#E63738" stroke-width="0.3" stroke-miterlimit="2.6"/>
<path d="M51.0244 54.0993L53.1069 54.0039" stroke="#E63738" stroke-width="0.3" stroke-miterlimit="2.6"/>
<path d="M50.9282 54.4177L52.6583 54.3223" stroke="#E63738" stroke-width="0.3" stroke-miterlimit="2.6"/>
<path d="M50.4482 54.6406H52.1462" stroke="#E63738" stroke-width="0.3" stroke-miterlimit="2.6"/>
<path d="M50.3198 54.958H52.6586" stroke="#E63738" stroke-width="0.3" stroke-miterlimit="2.6"/>
<path d="M45.29 55.34L52.3063 55.2764" stroke="#E63738" stroke-width="0.3" stroke-miterlimit="2.6"/>
<path d="M30.1039 0.5C44.7131 0.5 56.6311 12.3333 56.6311 26.8385C56.6311 41.3438 50.9925 45.5427 42.6947 49.9961C38.1774 50.4096 33.4358 51.1412 30.5845 51.2048C27.4768 51.1412 22.1585 50.3142 17.3208 49.9006C9.11919 45.4155 3.57666 36.7632 3.57666 26.8385C3.57666 12.3333 15.4947 0.5 30.1039 0.5Z" stroke="#E63738" stroke-miterlimit="2.6"/>
<path fill-rule="evenodd" clip-rule="evenodd" d="M32.4749 51.3957C33.3399 50.5368 34.8456 50.0915 37.0562 50.0597C36.9281 49.9324 36.7999 49.8052 36.6718 49.6462C37.665 49.2644 38.2737 48.7873 38.0815 48.0557C37.5368 48.4374 36.6077 48.6919 35.5184 48.8827C35.5184 48.6601 35.5184 48.4056 35.4864 48.1829C33.6282 49.2326 32.3467 50.3142 31.77 51.3639C31.9943 51.3639 32.2506 51.3639 32.4749 51.3957Z" fill="#E63738"/>
<path fill-rule="evenodd" clip-rule="evenodd" d="M31.1609 48.0556C31.8017 48.819 31.7376 49.5188 31.1609 50.1869C30.5843 49.5188 30.5202 48.819 31.1609 48.0556ZM31.3532 51.3956C31.5134 50.664 31.9939 49.6779 32.5706 49.1053C33.0191 48.66 33.1793 48.0874 32.6988 47.8329C32.5386 48.0556 32.3784 48.2783 32.1862 48.5009C32.058 47.7693 31.6735 47.1967 31.1609 46.7832C30.6483 47.2285 30.2639 47.7693 30.1357 48.5009C29.9755 48.2783 29.8154 48.0556 29.6231 47.8329C29.1426 48.0874 29.3028 48.66 29.7513 49.1053C30.328 49.6779 30.8085 50.664 30.9687 51.3956H31.3532Z" fill="#E63738"/>
<path fill-rule="evenodd" clip-rule="evenodd" d="M29.495 51.3957C28.63 50.5368 27.1242 50.0915 24.9136 50.0597C25.0417 49.9324 25.1699 49.8052 25.298 49.6462C24.3049 49.2644 23.6962 48.7873 23.8884 48.0557C24.433 48.4374 25.3621 48.6919 26.4514 48.8827C26.4514 48.6601 26.4514 48.4056 26.4834 48.1829C28.3416 49.2326 29.6231 50.3142 30.1998 51.3639C29.9756 51.3639 29.7193 51.3639 29.495 51.3957Z" fill="#E63738"/>
<path d="M45.29 55.7218L51.8898 55.6582" stroke="#E63738" stroke-width="0.3" stroke-miterlimit="2.6"/>
<path d="M45.1938 56.1037L51.4412 56.04" stroke="#E63738" stroke-width="0.3" stroke-miterlimit="2.6"/>
<path d="M45.8022 56.4851L51.0244 56.3896" stroke="#E63738" stroke-width="0.3" stroke-miterlimit="2.6"/>
<path d="M8.92676 50.3142L11.2976 50.2188" stroke="#E63738" stroke-width="0.3" stroke-miterlimit="2.6"/>
<path d="M8.99121 50.6325L10.9776 50.5371" stroke="#E63738" stroke-width="0.3" stroke-miterlimit="2.6"/>
<path d="M9.08691 50.9499L10.6888 50.8545" stroke="#E63738" stroke-width="0.3" stroke-miterlimit="2.6"/>
<path d="M9.15137 51.2683L11.2018 51.1729" stroke="#E63738" stroke-width="0.3" stroke-miterlimit="2.6"/>
<path d="M9.24756 51.5866L11.0737 51.4912" stroke="#E63738" stroke-width="0.3" stroke-miterlimit="2.6"/>
<path d="M9.31152 51.905L10.9134 51.8096" stroke="#E63738" stroke-width="0.3" stroke-miterlimit="2.6"/>
<path d="M9.40771 52.1589L7.00488 52.0635" stroke="#E63738" stroke-width="0.3" stroke-miterlimit="2.6"/>
<path d="M9.50373 52.4773L7.48535 52.3818" stroke="#E63738" stroke-width="0.3" stroke-miterlimit="2.6"/>
<path d="M9.56784 52.7956L6.33203 52.7002" stroke="#E63738" stroke-width="0.3" stroke-miterlimit="2.6"/>
<path d="M9.63177 53.113L7.54932 53.0176" stroke="#E63738" stroke-width="0.3" stroke-miterlimit="2.6"/>
<path d="M9.69608 53.4314L7.83789 53.3359" stroke="#E63738" stroke-width="0.3" stroke-miterlimit="2.6"/>
<path d="M9.7599 53.7497L8.12598 53.6543" stroke="#E63738" stroke-width="0.3" stroke-miterlimit="2.6"/>
<path d="M10.0163 54.0993L7.90186 54.0039" stroke="#E63738" stroke-width="0.3" stroke-miterlimit="2.6"/>
<path d="M10.0801 54.4177L8.3501 54.3223" stroke="#E63738" stroke-width="0.3" stroke-miterlimit="2.6"/>
<path d="M10.5933 54.6406H8.86328" stroke="#E63738" stroke-width="0.3" stroke-miterlimit="2.6"/>
<path d="M10.6893 54.958H8.35059" stroke="#E63738" stroke-width="0.3" stroke-miterlimit="2.6"/>
<path d="M15.7191 55.34L8.73486 55.2764" stroke="#E63738" stroke-width="0.3" stroke-miterlimit="2.6"/>
<path d="M15.7191 55.7218L9.15137 55.6582" stroke="#E63738" stroke-width="0.3" stroke-miterlimit="2.6"/>
<path d="M15.8152 56.1037L9.56787 56.04" stroke="#E63738" stroke-width="0.3" stroke-miterlimit="2.6"/>
<path d="M15.2065 56.4851L9.98438 56.3896" stroke="#E63738" stroke-width="0.3" stroke-miterlimit="2.6"/>
<path fill-rule="evenodd" clip-rule="evenodd" d="M21.8061 54.1949V53.9722H21.9022V52.6044H21.7741V52.3817C21.9343 52.4136 22.0624 52.4454 22.2226 52.4772C22.4148 52.5408 22.6391 52.5726 22.8313 52.6362V53.2406C22.7672 53.2406 22.7352 53.2406 22.6711 53.2088V53.1134C22.6711 52.9861 22.6711 52.9225 22.6071 52.8589C22.575 52.7953 22.5109 52.7635 22.4148 52.7316C22.3508 52.7316 22.2867 52.6998 22.2226 52.668V53.2088H22.3828V52.9861C22.4469 52.9861 22.4789 52.9861 22.543 53.0179V53.7178C22.4789 53.7178 22.4469 53.7178 22.3828 53.6859V53.4633C22.3828 53.4633 22.3508 53.4315 22.3187 53.4315H22.2226V54.0677C22.2867 54.0677 22.3508 54.0677 22.4148 54.0995C22.5109 54.0995 22.575 54.0995 22.6071 54.0677C22.6391 54.0359 22.6711 53.9404 22.6711 53.7814V53.6859C22.7352 53.6859 22.7672 53.6859 22.8313 53.7178V54.3858C22.6391 54.354 22.4148 54.2903 22.2226 54.2585C22.0624 54.2267 21.9343 54.1949 21.7741 54.1631M21.6459 53.3997V53.7814C21.6459 53.8768 21.6139 53.9722 21.5819 54.004C21.5178 54.1313 21.4217 54.1631 21.2615 54.1313C21.0692 54.0995 20.9411 54.004 20.877 53.845C20.845 53.7814 20.8129 53.6859 20.7809 53.5587V52.668C20.7809 52.5408 20.845 52.4454 20.877 52.3499C20.9411 52.1909 21.0692 52.1273 21.2294 52.1591C21.3255 52.1591 21.4217 52.2545 21.4857 52.3817C21.4857 52.3499 21.5178 52.2863 21.5498 52.2545H21.678V52.9543C21.6139 52.9543 21.5819 52.9543 21.5178 52.9225C21.5178 52.7317 21.5178 52.6044 21.4537 52.509C21.4217 52.4136 21.3576 52.3499 21.2935 52.3499C21.1974 52.3499 21.1654 52.3499 21.1333 52.4454V53.6541C21.1333 53.7496 21.2294 53.8132 21.2935 53.845C21.3896 53.845 21.4217 53.845 21.4537 53.7496C21.4857 53.6541 21.4857 53.5269 21.4537 53.3042C21.5178 53.3042 21.5498 53.3042 21.6139 53.336L21.6459 53.3997ZM19.7237 53.5269V53.5905H19.8198V53.8132C19.7557 53.8132 19.6596 53.8132 19.5955 53.7814C19.5314 53.7814 19.4353 53.7814 19.3712 53.7496V53.5269H19.4674V52.1273H19.3712V51.9046C19.4353 51.9046 19.5314 51.9046 19.5955 51.9364C19.6596 51.9364 19.7557 51.9364 19.8198 51.9682C19.8839 52.1909 19.9479 52.4136 20.012 52.6362C20.0761 52.8589 20.1402 53.0816 20.2042 53.3042V52.2863H20.1081V52.0636C20.1722 52.0636 20.2363 52.0636 20.3324 52.0955C20.3965 52.0955 20.4926 52.0955 20.5566 52.1273V52.3499H20.4605V53.9722H20.2042C20.1402 53.7496 20.044 53.4951 19.98 53.2724C19.9159 53.0498 19.8198 52.8271 19.7557 52.5726V53.5905L19.7237 53.5269ZM18.2179 53.5905V53.3678H18.314V51.9682H18.1859V51.7455C18.346 51.7455 18.4742 51.7774 18.6344 51.8092C18.8266 51.8092 19.0509 51.8728 19.2431 51.9046V52.5408H19.0829V52.4454C19.0829 52.3181 19.0829 52.2227 19.0188 52.1909C18.9868 52.1273 18.9227 52.0955 18.8266 52.0955H18.6344V52.668H18.7946V52.4454H18.9548V53.177H18.7946V52.9543C18.7946 52.9543 18.7625 52.9225 18.7305 52.9225H18.6344V53.5905H18.8266C18.9227 53.5905 18.9868 53.5905 19.0188 53.5269C19.0509 53.4633 19.0829 53.3678 19.0829 53.2406V53.1452H19.2431V53.845C19.0509 53.845 18.8266 53.7814 18.6344 53.7496C18.4742 53.7496 18.346 53.7178 18.1859 53.6859L18.2179 53.5905ZM17.1286 53.4951V53.2724H17.2568V51.8728H17.1286V51.6501H17.7053V51.8728H17.5771V53.3042H17.7053C17.8014 53.3042 17.8655 53.3042 17.8975 53.2406C17.9296 53.2088 17.9616 53.1134 17.9616 53.0179V52.8589H18.1218V53.5587C17.9616 53.5587 17.7694 53.5269 17.6092 53.4951C17.449 53.4951 17.3208 53.4951 17.1606 53.4633L17.1286 53.4951ZM16.0714 53.3997V53.177H16.1675V51.7774H16.0393V51.5547H16.616V51.7774H16.4879V53.177H16.616C16.7121 53.177 16.7762 53.177 16.8082 53.1134C16.8403 53.0816 16.8723 52.9861 16.8723 52.8907V52.7316H17.0325V53.4315C16.8723 53.4315 16.6801 53.4315 16.5199 53.3997H16.0714ZM14.8539 53.3678V53.1452H14.95V51.7774H14.8219V51.5547H15.8791V52.1909H15.7189V52.0955C15.7189 51.9682 15.7189 51.8728 15.6549 51.841C15.6228 51.7774 15.5588 51.7774 15.4626 51.7774H15.2704V52.3499H15.4306V52.1273H15.5908V52.8589H15.4306V52.6362H15.2704V53.2724H15.4626C15.5588 53.2724 15.6228 53.2724 15.6549 53.177C15.6869 53.1134 15.7189 53.0179 15.7189 52.8907V52.7953H15.8791V53.4951H14.8219L14.8539 53.3678ZM14.6937 52.6044V52.9861C14.6937 53.0816 14.6617 53.177 14.6297 53.2406C14.5656 53.3678 14.4695 53.4315 14.3093 53.4315C14.1171 53.4315 13.9889 53.3678 13.9248 53.2406C13.8928 53.177 13.8608 53.0816 13.8287 52.9861V52.1591C13.8287 52.0318 13.8928 51.9046 13.9248 51.841C13.9889 51.6819 14.1171 51.5865 14.2772 51.5547C14.3734 51.5547 14.4695 51.6183 14.5336 51.7137C14.5336 51.6501 14.5656 51.6183 14.5976 51.5547H14.7258V52.2545H14.5656C14.5656 52.0636 14.5656 51.9364 14.5015 51.841C14.4695 51.7455 14.4054 51.7137 14.3413 51.7137C14.2452 51.7137 14.2132 51.7774 14.1811 51.8728V53.0816C14.1811 53.177 14.2772 53.2088 14.3413 53.2088C14.4374 53.2088 14.4695 53.1452 14.5015 53.0816C14.5015 52.9861 14.5336 52.8271 14.5015 52.6362H14.6617L14.6937 52.6044ZM12.6754 53.2406C12.7074 53.1452 12.7715 53.0179 12.8035 52.9225C12.8356 52.8271 12.8996 52.6998 12.9317 52.6044C12.8996 52.509 12.8356 52.3817 12.8035 52.2863C12.7715 52.1909 12.7074 52.0636 12.6754 51.9682C12.6754 51.9364 12.6754 51.9046 12.6433 51.9046H12.5152V51.7137C12.6113 51.7137 12.7074 51.7137 12.8035 51.6819H13.0919V51.8728H12.9957V51.9046C13.0278 52 13.0919 52.1273 13.1239 52.2227C13.188 52.0955 13.22 52 13.2841 51.8728H13.22V51.6819H13.6685V51.9046H13.5404L13.5083 51.9364C13.4763 52.0318 13.4122 52.1273 13.3802 52.2227C13.3482 52.3181 13.2841 52.4136 13.252 52.509C13.3161 52.6044 13.3482 52.7317 13.4122 52.8271C13.4763 52.9225 13.5083 53.0497 13.5724 53.1452C13.5724 53.177 13.5724 53.2088 13.6045 53.2088H13.6685V53.4315H13.0919V53.2406H13.188V53.2088C13.1239 53.0816 13.0919 52.9861 13.0278 52.8589C12.9637 52.9861 12.8996 53.1134 12.8676 53.2406H12.9317V53.4315H12.4831V53.2406H12.6754ZM11.3618 53.6223V53.4315H11.49V52.1273H11.3618V51.9364C11.522 51.9364 11.6502 51.8728 11.8103 51.841C12.0026 51.8092 12.2268 51.7774 12.4191 51.7455V52.3499H12.2589V52.2863C12.2589 52.1591 12.2589 52.0955 12.1948 52.0636C12.1628 52.0318 12.0987 52 12.0026 52.0318C11.9385 52.0318 11.8744 52.0318 11.8103 52.0636V52.6044H11.9065C11.9065 52.6044 11.9705 52.6044 11.9705 52.5726V52.3499H12.1307V53.0497H11.9705V52.8271H11.8103V53.4315H12.0026C12.0987 53.4315 12.1628 53.3997 12.1948 53.336C12.2268 53.2724 12.2589 53.177 12.2589 53.0497V52.9543H12.4191V53.6223C12.2268 53.6223 12.0026 53.6541 11.8103 53.6859C11.6502 53.6859 11.522 53.7178 11.3618 53.7496V53.6223Z" fill="#19171D"/>
<path fill-rule="evenodd" clip-rule="evenodd" d="M35.2298 53.3995C35.1978 53.2722 35.1337 53.145 35.1017 53.0178C35.0696 52.8905 35.0376 52.7633 35.0056 52.636V52.5724H34.9415V52.3498H35.5182V52.5724H35.39V52.636C35.39 52.7315 35.4221 52.7951 35.4541 52.8905C35.4541 52.9859 35.4861 53.0496 35.5182 53.145C35.5182 53.0496 35.5822 52.9541 35.6143 52.8905C35.6143 52.7951 35.6784 52.6997 35.7104 52.636V52.5724H35.6143V52.3498H36.0628V52.5724H35.9667C35.9667 52.5724 35.9667 52.6042 35.9347 52.636C35.8706 52.7633 35.8385 52.9223 35.7745 53.0496C35.7104 53.1768 35.6784 53.3359 35.6463 53.4631V53.9721H35.7745V54.1947H35.1337V53.9721H35.2619V53.4631M34.0765 53.9402V53.2722C34.0765 53.0496 34.0765 52.8269 34.1406 52.6042C34.0765 52.6042 34.0124 52.636 33.9804 52.6997C33.9483 52.7633 33.9163 52.8587 33.9163 53.0178V53.1132H33.7561V52.3498C33.9483 52.3498 34.1085 52.3498 34.3007 52.3179C34.493 52.3179 34.6532 52.3179 34.8454 52.2861V53.0496H34.6852V52.636C34.6852 52.5724 34.5891 52.5406 34.525 52.5406C34.525 52.7633 34.493 52.9859 34.4609 53.2086V53.8766C34.4609 54.0993 34.4609 53.9402 34.4609 53.9402H34.5891V54.1629H33.9483V53.9402H34.1085V53.8766L34.0765 53.9402ZM33.1474 54.0039V53.3677C33.1474 53.145 33.1474 52.9541 33.1794 52.7315V52.6678H33.0513V52.4452H33.6279V52.6678H33.5318V52.7315C33.5318 52.9541 33.4998 53.145 33.4998 53.3677V54.0039C33.4998 54.2265 33.4998 54.0675 33.4998 54.0675H33.6279V54.2902H33.0513V54.0675H33.1474V54.0039ZM31.994 54.3538V54.1311H32.0901V53.4313C32.0901 53.2086 32.0901 53.0178 32.1222 52.7951V52.7315H31.994V52.5088H32.5707V52.7315H32.4426V52.7951C32.4426 53.0178 32.4105 53.2404 32.4105 53.4631V54.1311H32.5387C32.6348 54.1311 32.6668 54.0993 32.7309 54.0357C32.7629 53.9721 32.795 53.9084 32.795 53.7812V53.6221H32.9552V54.322H31.994V54.3538ZM31.4494 54.0993V53.4631C31.4494 53.2404 31.4494 53.0496 31.4814 52.8269V52.7633H31.3533V52.5406H31.9299V52.7633H31.8338V52.8269C31.8338 53.0496 31.8018 53.2404 31.8018 53.4631V54.0993C31.8018 54.322 31.8018 54.1629 31.8018 54.1629H31.9299V54.3856H31.3533V54.1629H31.4494V54.0993ZM30.6164 53.6221V54.2265H30.6805C30.7446 54.2265 30.8086 54.2265 30.8407 54.1629C30.8727 54.1311 30.9047 54.0357 30.9047 53.9084C30.9047 53.7812 30.9047 53.7176 30.8407 53.6858C30.8086 53.654 30.7446 53.6221 30.6484 53.6221H30.5844H30.6164ZM30.6484 52.7951V53.4313H30.7125C30.7766 53.4313 30.8407 53.4313 30.8727 53.3677C30.9047 53.3359 30.9368 53.2404 30.9368 53.1132V52.8905C30.9368 52.8587 30.8407 52.8269 30.7766 52.8269H30.7125L30.6484 52.7951ZM30.264 54.1629V53.5267C30.264 53.304 30.264 53.1132 30.296 52.8905V52.8269H30.1679V52.6042H30.7125C30.8727 52.6042 31.0009 52.6042 31.0649 52.6997C31.129 52.7633 31.161 52.8905 31.161 53.0496C31.161 53.2086 31.097 53.3359 31.0009 53.3995C30.9368 53.4631 30.9047 53.4949 30.8086 53.4949C30.9047 53.4949 30.9688 53.5267 31.0009 53.5903C31.0649 53.654 31.129 53.7812 31.129 53.9402C31.129 54.0993 31.097 54.2583 31.0329 54.322C30.9688 54.3856 30.8407 54.4492 30.6484 54.4492H30.0718V54.2265H30.1679V54.1629H30.264ZM29.6232 54.1629V53.5267C29.6232 53.304 29.6232 53.1132 29.6553 52.8905V52.8269H29.5271V52.6042H30.1038V52.8269H30.0077V52.8905C30.0077 53.1132 29.9756 53.304 29.9756 53.5267V54.1629C29.9756 54.3856 29.9756 54.2265 29.9756 54.2265H30.1038V54.4492H29.5271V54.2265H29.6232V54.1629ZM28.7582 54.2902H28.8223C28.9184 54.2902 28.9825 54.2583 29.0145 54.1629V52.9541C29.0145 52.8587 28.9184 52.8269 28.8223 52.8269H28.7903C28.7903 53.0496 28.7582 53.304 28.7262 53.5267V54.2265L28.7582 54.2902ZM28.4378 54.1947V53.5903C28.4378 53.3995 28.4378 53.1768 28.4699 52.9859V52.8587H28.3417V52.636H28.9184C29.0786 52.636 29.2067 52.6997 29.2708 52.8587C29.3029 52.9223 29.3349 53.0178 29.3349 53.145V53.5585V54.0039C29.3349 54.1311 29.3029 54.2265 29.2708 54.2902C29.2067 54.4492 29.0786 54.5128 28.9184 54.5128H28.3097V54.2902H28.4058V54.2265L28.4378 54.1947ZM27.1563 54.5128V54.2902H27.2524V53.5903C27.2524 53.3677 27.2524 53.1768 27.2845 52.9541V52.8905H27.1563V52.6678H28.1815V53.304H28.0213V53.2086C28.0213 53.0814 28.0213 53.0178 27.9893 52.9541C27.9573 52.8905 27.8932 52.8905 27.7971 52.8905H27.6049V53.4631H27.765V53.2404H27.9252V53.9402H27.765V53.7176H27.6049V54.3538H27.7971C27.8932 54.3538 27.9573 54.3538 27.9893 54.2583C28.0213 54.1947 28.0534 54.0993 28.0534 53.9721V53.8766H28.2136V54.5764H27.1884L27.1563 54.5128ZM26.2913 53.4631H26.3874C26.4515 53.4631 26.5156 53.4631 26.5476 53.3995C26.5796 53.3359 26.6117 53.2722 26.6117 53.145V52.8905C26.6117 52.8269 26.5476 52.8269 26.4515 52.8269H26.3554V53.4631H26.2913ZM25.9709 54.1629V53.5267C25.9709 53.304 25.9709 53.1132 26.003 52.8905V52.8269H25.8748V52.6042H26.4835C26.6437 52.6042 26.7398 52.636 26.8359 52.7315C26.9 52.8269 26.9321 52.9223 26.9321 53.1132C26.9321 53.304 26.868 53.4313 26.8039 53.4949C26.7398 53.5585 26.6758 53.5903 26.5796 53.5903C26.6117 53.5903 26.6437 53.5903 26.6758 53.654C26.7719 53.7176 26.8039 53.813 26.8359 53.9721V54.2902C26.8359 54.2902 26.8359 54.322 26.868 54.322C26.9 54.322 26.9 54.322 26.9 54.2902V54.0993H27.0282C27.0282 54.2583 27.0282 54.3538 26.9641 54.4174C26.9321 54.481 26.8359 54.5128 26.7398 54.5128C26.6437 54.5128 26.5476 54.481 26.5156 54.4174C26.4835 54.3538 26.4515 54.2583 26.4515 54.1311V53.9402C26.4515 53.8448 26.4515 53.7812 26.4195 53.7176C26.4195 53.6858 26.3554 53.654 26.3233 53.654H26.2593V54.2265H26.3554V54.4492H25.7787V54.2265H25.8748V54.1629H25.9709ZM25.7146 53.6858V54.0675C25.7146 54.1629 25.6826 54.2583 25.6506 54.322C25.5865 54.4492 25.4904 54.5128 25.3302 54.5128C25.17 54.5128 25.0418 54.4174 24.9457 54.2902C24.9137 54.2265 24.8816 54.1311 24.8496 54.0039V53.5903C24.8496 53.3995 24.8496 53.2722 24.9137 53.1132C24.9137 52.986 24.9778 52.8905 25.0098 52.7951C25.1059 52.636 25.202 52.5406 25.3622 52.5406C25.4583 52.5406 25.5544 52.6042 25.6185 52.7315C25.6185 52.6678 25.6506 52.636 25.6826 52.5724H25.8107V53.2722H25.6506V52.8587C25.6506 52.7633 25.5865 52.7315 25.4904 52.7315C25.3943 52.7315 25.3622 52.7633 25.3302 52.8587C25.3302 52.8905 25.3302 52.9859 25.2981 53.0814C25.2981 53.1768 25.2981 53.304 25.2661 53.4631V54.0675C25.2661 54.1629 25.3622 54.2265 25.4263 54.2265C25.5224 54.2265 25.5544 54.1947 25.5865 54.0993C25.5865 54.0039 25.6185 53.8448 25.5865 53.654H25.7467L25.7146 53.6858Z" fill="#19171D"/>
<path fill-rule="evenodd" clip-rule="evenodd" d="M47.4363 53.3676V53.1767H47.5644V51.8407H47.4363V51.6499C47.5965 51.6817 47.7567 51.7135 47.8848 51.7771C48.077 51.8407 48.3013 51.9043 48.4935 51.968V52.5405C48.4295 52.5405 48.3974 52.5405 48.3333 52.5087V52.4451C48.3333 52.3179 48.3333 52.2542 48.2693 52.1906C48.2372 52.127 48.1731 52.0952 48.077 52.0634C48.013 52.0634 47.9489 52.0316 47.8848 51.9998V52.5405H48.045V52.3179C48.1091 52.3179 48.1411 52.3179 48.2052 52.3497V53.0495C48.1411 53.0495 48.1091 53.0495 48.045 53.0177V52.795C48.045 52.795 48.013 52.7632 47.9809 52.7632H47.8848V53.3676C47.9489 53.3676 48.013 53.3994 48.077 53.4312H48.2693C48.3013 53.3994 48.3333 53.304 48.3333 53.1767V53.0813C48.3974 53.0813 48.4295 53.0813 48.4935 53.1131V53.7493C48.3013 53.6857 48.077 53.6539 47.8848 53.5903C47.7246 53.5584 47.5644 53.5266 47.4363 53.4948M47.2761 52.5723V52.9222C47.2761 53.0177 47.2441 53.1131 47.212 53.1449C47.1479 53.2722 47.0198 53.304 46.8916 53.2722C46.6994 53.2722 46.5713 53.1767 46.5072 53.0177C46.4752 52.9541 46.4431 52.8586 46.4111 52.7314V51.8725C46.4111 51.7453 46.4752 51.6499 46.5072 51.5544C46.5713 51.3954 46.6994 51.3318 46.8596 51.3636C46.9878 51.3636 47.0518 51.459 47.1159 51.5862C47.1159 51.5544 47.1479 51.4908 47.18 51.459H47.3081V52.1588C47.2441 52.1588 47.212 52.1588 47.1479 52.127C47.1479 51.9361 47.1479 51.8089 47.0839 51.7135C47.0518 51.618 46.9878 51.5544 46.9237 51.5544C46.8276 51.5544 46.7955 51.5544 46.7635 51.6817V52.8904C46.7635 52.9859 46.8596 53.0495 46.9237 53.0495C47.0198 53.0495 47.0518 53.0495 47.0839 52.9222C47.1159 52.8268 47.1159 52.6996 47.0839 52.4769C47.1479 52.4769 47.18 52.4769 47.2441 52.5087L47.2761 52.5723ZM45.2898 52.8268V52.8904H45.4179V53.1131H44.9694V52.8904H45.0975V51.4908H44.9694V51.2681H45.4179C45.482 51.4908 45.5461 51.6817 45.6101 51.9043C45.6742 52.127 45.7383 52.3179 45.8024 52.5405V51.5544H45.6742V51.3318H46.1227V51.5544H45.9946V53.1767H45.6742C45.6101 52.9541 45.514 52.7314 45.4499 52.5087C45.3859 52.2861 45.2898 52.0634 45.2257 51.8407V52.8586L45.2898 52.8268ZM44.2645 51.6817C44.2645 51.8089 44.2325 51.9043 44.2005 52.0316C44.2005 52.1588 44.1684 52.2542 44.1364 52.3815H44.3927C44.3927 52.2542 44.3607 52.1588 44.3286 52.0316C44.3286 51.9043 44.2966 51.8089 44.2645 51.6817ZM43.8481 52.8586C43.9121 52.5723 43.9442 52.3179 44.0082 52.0316C44.0723 51.7771 44.1044 51.4908 44.1684 51.2363H44.4888C44.5208 51.4908 44.5849 51.7771 44.617 52.0316C44.649 52.2861 44.7131 52.5723 44.7771 52.8268V52.8904H44.9053V53.1131H44.3286V52.8904H44.4568V52.8268C44.4568 52.7314 44.4568 52.6678 44.4247 52.5723H44.1044C44.1044 52.6678 44.1044 52.7314 44.0723 52.8268V52.8904H44.2005V53.1131H43.7519V52.8904H43.8481V52.8268V52.8586ZM42.6306 51.6817V51.618H42.5345V51.3954C42.6306 51.3954 42.7267 51.3954 42.8228 51.3636C42.919 51.3636 43.0151 51.3636 43.1112 51.3318V51.5544H42.983V51.618C42.983 51.8089 43.0471 51.9998 43.0791 52.1588C43.0791 52.3497 43.1432 52.5405 43.1753 52.6996C43.2073 52.5087 43.2393 52.3179 43.2714 52.127C43.3034 51.9361 43.3355 51.7453 43.3675 51.5544V51.4908H43.2714V51.2681H43.6879V51.4908H43.5918V51.5544C43.5277 51.8407 43.4956 52.0952 43.4316 52.3815C43.3675 52.6678 43.3355 52.9222 43.2714 53.2085H42.951C42.919 52.9541 42.8549 52.6678 42.8228 52.4133C42.7908 52.1588 42.7267 51.9043 42.6947 51.618L42.6306 51.6817ZM41.253 53.463V53.2403H41.3812V51.8407H41.253V51.618C41.4132 51.618 41.5734 51.5544 41.7015 51.5226C41.8938 51.4908 42.118 51.459 42.3102 51.4272V52.0634H42.1501V51.968C42.1501 51.8407 42.1501 51.7453 42.086 51.7135C42.0539 51.6817 41.9899 51.6499 41.8938 51.6817C41.8297 51.6817 41.7656 51.6817 41.7015 51.7135V52.2861H41.7976C41.7976 52.2861 41.8617 52.2861 41.8617 52.2542V52.0316H42.0219V52.7632H41.8617V52.5405H41.7015V53.2085H41.8938C41.9899 53.2085 42.0539 53.1449 42.086 53.0813C42.118 53.0177 42.1501 52.9222 42.1501 52.7632V52.6678H42.3102V53.3676C42.118 53.3676 41.8938 53.4312 41.7015 53.463C41.5413 53.463 41.3811 53.4948 41.253 53.5266V53.463ZM40.1637 53.6539V53.4312H40.2919V52.0634H40.1637V51.8407C40.2598 51.8407 40.3559 51.8089 40.4841 51.7771C40.5802 51.7771 40.6763 51.7453 40.8045 51.7135V51.9361H40.7404C40.7084 51.9361 40.6763 51.9361 40.6763 51.968V53.3676H40.8045C40.9006 53.3676 40.9647 53.3358 40.9967 53.2722C41.0287 53.2085 41.0608 53.1449 41.0608 53.0177V52.8586H41.221V53.5584C41.0608 53.5584 40.8685 53.6221 40.7084 53.6539C40.5482 53.6539 40.388 53.7175 40.2598 53.7175L40.1637 53.6539ZM38.9463 53.8129V53.6221H39.0744V52.2861H38.9463V52.0952C39.1065 52.0952 39.2667 52.0316 39.3948 51.9998C39.587 51.968 39.8113 51.9043 40.0035 51.8725V52.4769H39.8433V52.3815C39.8433 52.2542 39.8433 52.1906 39.7793 52.127C39.7472 52.0952 39.6831 52.0634 39.587 52.0952C39.523 52.0952 39.4589 52.0952 39.3948 52.127V52.6678H39.4909C39.523 52.6678 39.555 52.6678 39.555 52.636V52.4133H39.7152V53.1131H39.555V52.8904H39.3948V53.5266H39.587C39.6831 53.5266 39.7472 53.463 39.7793 53.3994C39.8113 53.3358 39.8433 53.2403 39.8433 53.1131V53.0177H40.0035V53.6857C39.8113 53.6857 39.587 53.7493 39.3948 53.7811C39.2346 53.7811 39.0744 53.8129 38.9463 53.8447V53.8129ZM38.0492 52.9541H38.1453C38.2094 52.9541 38.2735 52.9223 38.3055 52.8586C38.3376 52.795 38.3696 52.7314 38.3696 52.636C38.3696 52.5405 38.3696 52.4451 38.3055 52.4133C38.2735 52.3815 38.2094 52.3497 38.1453 52.3815H38.0492V52.9859V52.9541ZM37.6968 53.6857V52.4451H37.5687V52.2542C37.6648 52.2542 37.7609 52.2542 37.857 52.2224C37.9851 52.2224 38.0813 52.2224 38.2094 52.1906C38.3696 52.1906 38.4978 52.1906 38.5618 52.2542C38.6259 52.3179 38.69 52.4451 38.69 52.5723C38.69 52.6996 38.6579 52.8586 38.5618 52.9541C38.4978 53.0177 38.4337 53.0495 38.3376 53.0813H38.4337C38.5298 53.1131 38.5618 53.2085 38.5939 53.3676V53.6539H38.6259C38.6259 53.6539 38.6579 53.6539 38.69 53.6221V53.4312H38.8181C38.8181 53.5584 38.8181 53.6857 38.7541 53.7493C38.722 53.8129 38.6259 53.8765 38.5298 53.8765C38.4337 53.8765 38.3376 53.8765 38.3055 53.8129C38.2735 53.7811 38.2415 53.6857 38.2415 53.5266V53.3676C38.2415 53.2722 38.2415 53.2085 38.2094 53.1767C38.2094 53.1449 38.1453 53.1449 38.0813 53.1449H38.0172V53.6857H38.1133V53.8765H37.5366V53.6857H37.6648V53.6221L37.6968 53.6857Z" fill="#19171D"/>
<path fill-rule="evenodd" clip-rule="evenodd" d="M23.7607 52.7314L23.9209 53.1132L24.3374 53.0177L24.1131 53.3676L24.4655 53.6221L24.049 53.6857L24.0811 54.0993L23.7607 53.813L23.4723 54.0993L23.5044 53.6857L23.0879 53.6221L23.4083 53.3676L23.216 53.0177L23.6325 53.1132L23.7607 52.7314Z" fill="#19171D"/>
<path fill-rule="evenodd" clip-rule="evenodd" d="M36.864 52.6045L37.0242 52.9862L37.4086 52.859L37.2164 53.2407L37.5368 53.4634L37.1523 53.527V53.9405L36.864 53.686L36.5436 53.9405L36.5757 53.527L36.1592 53.4634L36.5116 53.2407L36.2873 52.859L36.7038 52.9862L36.864 52.6045Z" fill="#19171D"/>
<path fill-rule="evenodd" clip-rule="evenodd" d="M24.1128 45.0019C23.3119 44.2385 22.9915 43.4432 22.7672 42.3617C22.3828 41.6937 22.8313 41.0575 21.9663 40.7076C21.9022 40.4213 21.8381 40.0714 21.5818 39.9123C21.5818 39.7215 21.4857 39.4034 21.3576 39.3398C21.3255 38.799 21.2615 38.5763 20.9731 38.131C20.909 37.7175 20.845 37.3676 20.845 36.9858C20.6527 36.9858 20.2042 35.618 20.1401 35.3317C19.7236 34.8546 19.7557 34.5365 19.7557 33.9321C19.6596 33.8367 19.6275 33.773 19.5955 33.7412C19.5955 32.437 19.2751 31.1328 19.211 29.8286C19.4033 29.6696 19.2751 29.5105 19.3072 29.3515C19.5635 29.0652 19.6596 28.8107 19.7236 28.3972C19.4673 28.1109 19.4994 27.9837 19.4994 27.5065C19.147 27.5065 18.9227 27.761 18.7625 28.0791C18.4421 28.2381 18.1538 28.3972 17.8655 28.588C17.1927 28.5244 16.5519 28.5244 16.4558 27.7292C16.1675 27.5701 15.1102 26.584 15.2063 26.2659C15.5587 26.2977 16.3276 26.3295 16.5839 26.0433C16.5519 25.9796 16.4878 25.9478 16.4558 25.9478C16.2636 25.9478 16.0713 26.0114 15.9112 26.0433C15.4626 25.6297 14.8219 25.6615 14.6937 24.8663C14.5656 24.8027 14.4374 24.7391 14.3413 24.7391C14.3413 24.5164 14.3733 24.3255 14.4054 24.1665C14.5976 24.1665 14.7258 24.0074 14.886 24.1983C15.4626 23.7211 16.0393 23.9756 16.6801 24.0392C17.0645 23.9756 17.4169 23.912 17.8014 23.8802C17.8014 23.753 17.8655 23.6257 17.9295 23.4985C17.8334 23.1168 17.7053 22.7987 17.6092 22.4806C17.3849 22.4169 17.2247 22.3533 17.0325 22.2897C17.0966 21.5581 17.1286 21.2082 16.4238 21.1127C16.4878 20.5402 16.9364 20.4447 17.1286 19.9676C17.2888 19.7449 17.481 19.5859 17.6732 19.4268C18.0256 19.4586 17.9936 19.4904 18.1538 19.6813C18.5703 19.6177 19.0188 19.6177 19.4673 19.6177C19.5955 19.3632 19.6916 19.1405 19.7877 18.9179C20.1722 18.6316 20.5566 18.4089 21.0052 18.1544C21.1974 17.6137 21.2615 17.3274 21.742 17.1047C21.9983 16.7548 22.2867 16.4685 22.607 16.1822C22.7672 15.2915 22.7672 14.878 23.6643 14.6872V14.3691C23.408 14.3691 22.4789 13.7329 22.4148 13.542C22.2226 13.4784 22.0624 13.4148 21.8702 13.3511C21.8702 12.7149 21.8702 12.0788 21.9343 11.4744C22.0944 11.3471 22.2867 11.2199 22.4789 11.1563C22.4789 11.029 22.4789 10.9018 22.575 10.7427C22.3187 10.5519 22.0624 10.3928 21.8061 10.2338C21.8061 10.0111 21.2615 9.88388 21.1013 9.82026C21.1013 9.6294 21.1013 9.50216 21.1333 9.37492C21.3896 9.21587 22.0304 8.42062 22.3828 8.80234C22.4789 8.6751 22.575 8.57967 22.6711 8.51605C22.9595 8.45243 23.2798 8.38881 23.6002 8.3252C23.7284 8.48424 23.7284 8.54786 23.9526 8.57967C24.0167 8.48424 24.0487 8.45243 24.1128 8.42063C24.5293 8.45243 24.6895 8.96139 24.9458 9.24768C25.4904 9.37492 25.6506 9.50216 25.8749 9.91569C26.1312 10.0747 26.4516 10.2338 26.7399 10.4565C27.5409 10.1702 28.3418 9.91569 29.2068 10.361C29.2709 10.6791 29.367 10.9972 29.4952 11.3789C29.399 11.6016 29.2709 11.8243 29.1748 12.0151C28.7903 12.3014 28.6301 12.6513 28.1496 12.6831C28.1175 13.033 28.2457 13.0967 28.502 13.2875C28.502 13.5102 28.6622 14.4645 28.502 14.5917C28.0855 14.5917 27.7331 14.6553 27.3486 14.719C27.4447 15.0371 27.5729 15.3552 27.701 15.7369C27.7972 15.7369 27.9253 15.7369 28.0535 15.8005C27.9894 16.3413 28.6942 16.3095 29.0787 16.3731C29.2068 16.5639 29.367 16.7548 29.5272 17.0093C29.7194 17.0729 29.9116 17.1365 30.1359 17.2001C30.0718 17.391 30.0078 17.55 29.9437 17.7409H29.7194C29.2709 18.2499 29.3029 18.4725 29.1427 19.1405C29.367 19.2042 29.5913 19.2678 29.8155 19.395C30.0718 19.6495 30.3602 19.9358 30.6485 20.2221C31.033 20.3811 31.4815 20.572 31.93 20.731C31.93 20.9855 32.6989 20.8901 32.795 20.8583C33.2436 20.8901 33.6921 20.9855 34.1406 21.0809C34.0765 21.6217 34.8134 22.0352 35.2619 21.6853C35.3581 21.7807 35.4221 21.9398 35.4862 22.067C36.2872 22.067 37.1201 22.1307 37.9211 22.1943C37.9211 21.9398 37.9852 21.6535 38.0492 21.399C37.9531 21.3354 37.9211 21.3036 37.889 21.24C37.9211 20.7946 38.1453 20.4447 38.4016 20.1266C38.5939 20.1266 38.7541 20.1903 38.9783 20.2539C38.8181 21.9398 40.1317 21.5263 41.253 21.6217C41.5413 21.3672 42.086 21.4626 42.4704 21.399C42.6306 20.731 41.9578 20.8901 42.0219 20.2857C42.4064 20.2221 42.7908 20.1584 43.2073 20.1266C43.2714 19.395 43.9121 19.2042 44.5208 19.0133C44.8733 18.059 45.4179 18.1544 46.315 18.218C46.4111 18.0908 46.5072 17.9954 46.6033 17.9318C47.6926 18.0272 47.6285 18.059 47.6605 19.1405C47.8528 19.1405 48.5256 19.2678 48.4935 19.5859C48.5256 19.5859 48.6217 19.6495 48.7178 19.6813C48.6858 20.1584 48.1411 20.1266 48.4935 20.7946C48.4295 20.8265 48.3974 20.8901 48.3974 20.9537C48.045 20.9219 48.013 20.731 47.7246 20.6674C47.5004 20.7946 47.2441 20.8901 47.0198 21.0491C46.8276 21.2082 46.6353 21.3672 46.4111 21.5899C46.315 22.0034 46.2509 22.3851 46.2188 22.7987C45.7383 23.2122 46.0907 23.8802 45.6742 24.1983C45.5781 25.1526 45.4499 25.2162 44.5849 25.1526C44.5849 25.4071 44.4568 26.2341 44.2325 26.3932C44.2005 26.8067 44.1684 27.1884 44.1364 27.6019C43.9121 27.6019 43.6879 27.6019 43.4956 27.6338C43.4316 27.252 43.3675 26.9021 43.3675 26.584C43.0792 26.3614 43.1753 26.0751 43.1753 25.7888C42.983 25.7888 42.8549 25.7888 42.7267 25.757C42.6627 25.9796 42.6306 26.2023 42.6306 26.425C42.3743 26.425 42.086 26.3614 41.8297 26.3614C41.6375 25.5343 41.6695 25.0253 42.5665 24.7072C42.7267 24.4528 42.983 24.0074 42.919 23.6893C42.0539 23.6257 40.8045 24.0074 40.0356 23.5303C40.0356 23.244 40.0035 22.9895 40.0356 22.7668C39.7793 22.7032 39.555 22.6714 39.3307 22.6714C39.2987 22.576 39.2667 22.4806 39.2346 22.3851C38.9142 22.3851 38.1453 22.4806 38.3055 22.9895C38.6579 23.0213 38.9142 23.2122 39.1705 23.4349C39.1705 23.5303 39.1705 23.6575 39.1385 23.7848C38.7541 23.8484 38.1453 24.1347 38.4337 24.6118C38.5618 24.7072 38.722 24.8027 38.9142 24.9617C38.9142 25.2162 38.8502 25.5343 38.8822 25.8524C39.3307 26.3932 39.2987 27.1884 39.2346 27.92C38.9142 28.0155 38.5939 28.1427 38.3055 28.3018C38.2735 28.2063 38.2735 28.1745 38.3055 28.1109C37.9852 28.2063 37.6327 28.3654 37.3124 28.5244C37.2483 28.6517 37.2483 28.7789 37.2162 28.9698C37.2483 29.0334 37.3444 29.0652 37.4405 29.1288C37.4405 29.2242 37.4405 29.3515 37.4085 29.4787C37.3124 29.4787 37.2803 29.5105 37.2162 29.5423C37.2162 29.765 37.0561 30.1467 36.9279 30.274C37.024 30.3376 37.0881 30.3694 37.2162 30.433C37.0881 30.4966 36.9599 30.5921 36.8638 30.6875C36.8638 31.0374 36.6716 31.4509 36.4473 31.7054C35.9988 31.769 35.9027 31.8008 35.6144 32.0235C34.6212 31.9281 34.7493 33.3913 33.8523 33.3277C33.8202 33.2323 33.7882 33.2005 33.7241 33.1368C32.5387 33.0414 31.4815 33.614 31.0009 34.6637C30.6805 34.6637 30.3602 34.7273 30.0718 34.8228C29.8796 34.95 29.7194 35.0772 29.5913 35.1727C29.4952 35.2999 29.4311 35.459 29.367 35.6498C29.1427 35.5862 28.9185 35.5544 28.7262 35.5544C28.2777 36.1588 28.2777 36.3814 28.3098 37.1449C28.3738 37.463 28.4379 37.7811 28.534 38.0992C28.502 38.5445 28.502 39.0535 28.502 39.5306C27.6049 40.2622 27.7651 41.312 27.8292 42.3935C27.5409 42.3935 27.3166 42.4253 27.0923 42.4571C27.0923 42.648 26.9001 42.9343 26.7719 42.9661C26.7079 43.1887 26.6758 43.4432 26.6438 43.7295C26.2914 43.7295 25.971 43.7295 25.6506 43.7613C25.2982 44.811 25.1701 44.9383 24.1769 44.9701" fill="white"/>
<path fill-rule="evenodd" clip-rule="evenodd" d="M24.0806 39.2445C23.9525 39.2445 23.9845 38.9582 23.9845 38.8627C24.1127 38.7991 24.3049 38.7037 24.4971 38.6719V38.9582C24.369 39.0218 24.2088 39.1172 24.0486 39.2445" fill="#141013"/>
<path fill-rule="evenodd" clip-rule="evenodd" d="M44.8735 36.8269C44.6493 37.2404 44.457 37.6221 44.2969 37.972C44.2648 37.7175 44.2007 37.4949 44.1046 37.3358C44.0406 37.2404 43.9444 37.145 43.8163 37.0495C43.6881 36.9859 43.56 36.9541 43.4318 36.9541C43.3037 36.9541 43.0794 37.0177 42.9513 37.145C42.6629 37.3676 42.5027 37.8448 42.5027 38.5446C42.5027 39.2444 42.5989 39.4671 42.759 39.7534C42.8231 39.9124 42.9513 40.0397 43.0794 40.1351C43.2396 40.2305 43.3998 40.2941 43.592 40.2941C43.7843 40.2941 44.0726 40.1987 44.2328 40.0397C44.393 39.8488 44.4891 39.6261 44.5211 39.308C44.5211 39.2444 44.5532 39.1808 44.6172 39.1808C44.6813 39.1808 44.7133 39.2444 44.7133 39.3717C44.7133 39.4989 44.7133 39.6898 44.6172 39.8806C44.5532 40.1033 44.393 40.2941 44.2007 40.3896C44.0085 40.5168 43.7842 40.5486 43.4959 40.5486C43.2076 40.5486 42.9192 40.485 42.6629 40.326C42.3746 40.1669 42.1824 39.9124 42.0222 39.5307C41.9261 39.2762 41.862 38.9581 41.862 38.6718C41.862 38.3856 41.9581 37.8766 42.1503 37.5267C42.4707 36.9859 42.8872 36.7314 43.4639 36.7314C44.0406 36.7314 43.6881 36.7314 43.7843 36.7314C43.8804 36.7314 44.0085 36.7951 44.1687 36.8587C44.2969 36.9223 44.425 36.9541 44.5211 36.9541H44.6813C44.7133 36.9541 44.7774 36.8905 44.8735 36.8269ZM39.7795 37.4313L39.299 38.64C39.4592 38.8309 39.6514 39.0536 39.8436 39.3399C39.8436 39.3399 39.9397 39.2444 40.0358 39.0854L40.2921 38.8309L39.7475 37.4313H39.7795ZM40.6125 36.8269L40.3242 37.145L40.8047 38.4174C40.9649 38.3219 41.1251 38.1947 41.2212 38.0675C41.2212 38.1629 41.2853 38.2583 41.3173 38.3537C41.3494 38.4492 41.4135 38.5446 41.4455 38.6082H41.2853C41.1572 38.6082 41.029 38.6082 40.9329 38.7037L41.4775 40.1351L41.894 40.4532H40.4523L40.8368 40.1351L40.4523 39.1172L40.2601 39.308C40.0999 39.4989 39.9718 39.6261 39.9077 39.7852C39.6514 39.4035 39.4592 39.1172 39.2669 38.9263V38.9899C39.1388 39.308 39.0747 39.5307 39.0427 39.6261C39.0427 39.7216 39.0106 39.817 39.0106 39.8806C39.0106 40.0397 39.0427 40.1669 39.1388 40.2623C39.1388 40.2623 39.2349 40.3578 39.331 40.485H37.9213C38.1136 40.3896 38.2417 40.2941 38.3378 40.1987C38.4339 40.1033 38.5301 39.9442 38.6582 39.7534C38.7543 39.5943 38.8184 39.4671 38.8504 39.3717C38.8825 39.2444 38.9466 39.0854 39.0427 38.7991C38.9786 38.7355 38.9145 38.7037 38.8504 38.7037C38.7864 38.7037 38.7223 38.6718 38.6262 38.64C38.6582 38.5764 38.7223 38.481 38.7543 38.3856C38.8184 38.2901 38.8184 38.2265 38.8504 38.1947C38.8825 38.2583 38.9466 38.3219 39.0427 38.3856C39.1067 38.4492 39.1708 38.481 39.1708 38.5128L39.6834 37.2086L39.3951 36.8905H40.7086L40.6125 36.8269ZM35.9991 37.4313L35.5185 38.64C35.6787 38.8309 35.8709 39.0536 36.0632 39.3399C36.0632 39.3399 36.1593 39.2444 36.2554 39.0854L36.5117 38.8309L35.967 37.4313H35.9991ZM36.8321 36.8269L36.5437 37.145L37.0243 38.4174C37.1845 38.3219 37.3447 38.1947 37.4408 38.0675C37.4408 38.1629 37.5049 38.2583 37.5369 38.3537C37.5689 38.4492 37.633 38.5446 37.665 38.6082H37.5049C37.3767 38.6082 37.2486 38.6082 37.1524 38.7037L37.6971 40.1351L38.1136 40.4532H36.6719L37.0563 40.1351L36.6719 39.1172L36.4796 39.308C36.3195 39.4989 36.1913 39.6261 36.1272 39.7852C35.8709 39.4035 35.6787 39.1172 35.4865 38.9263V38.9899C35.3583 39.308 35.2943 39.5307 35.2622 39.6261C35.2622 39.7216 35.2302 39.817 35.2302 39.8806C35.2302 40.0397 35.2622 40.1669 35.3583 40.2623C35.3583 40.2623 35.4544 40.3578 35.5506 40.485H34.1409C34.3331 40.3896 34.4613 40.2941 34.5574 40.1987C34.6535 40.1033 34.7496 39.9442 34.8778 39.7534C34.9739 39.5943 35.038 39.4671 35.07 39.3717C35.102 39.2444 35.1661 39.0854 35.2622 38.7991C35.1981 38.7355 35.1341 38.7037 35.07 38.7037C35.0059 38.7037 34.9418 38.6718 34.8457 38.64C34.8778 38.5764 34.9418 38.481 34.9739 38.3856C35.038 38.2901 35.038 38.2265 35.07 38.1947C35.102 38.2583 35.1661 38.3219 35.2622 38.3856C35.3263 38.4492 35.3904 38.481 35.3904 38.5128L35.903 37.2086L35.6146 36.8905H36.9282L36.8321 36.8269ZM33.4681 39.7534V37.8766C33.4681 37.5585 33.4361 37.304 33.34 37.145C33.2438 36.9859 33.1157 36.8905 32.8914 36.8269H34.3011C34.0768 36.8905 33.9166 37.0177 33.8526 37.145C33.7564 37.304 33.7244 37.5267 33.7244 37.8766V40.4532H33.2759L31.706 37.4313V39.4035C31.706 39.7534 31.7381 39.976 31.8342 40.1351C31.9303 40.2941 32.0584 40.3896 32.2827 40.4532H30.873C31.0973 40.3896 31.2575 40.2623 31.3216 40.1351C31.4177 39.976 31.4497 39.7534 31.4497 39.4035V37.145L31.0653 36.8269H32.539L32.1225 37.145L33.4681 39.7534Z" fill="white"/>
<path fill-rule="evenodd" clip-rule="evenodd" d="M28.1818 32.3418L18.7627 25.7254L28.2138 19.5225L37.2164 25.6936L28.1818 32.3418Z" fill="#19171D"/>
<path d="M28.1818 32.3418L18.7627 25.7254L28.2138 19.5225L37.2164 25.6936L28.1818 32.3418Z" stroke="#19171D" stroke-width="0.2" stroke-miterlimit="2.6"/>
<path fill-rule="evenodd" clip-rule="evenodd" d="M29.3992 28.9382C28.3419 27.8248 27.2527 27.5385 25.9391 28.1747C27.1566 28.1747 27.9255 28.7155 28.5342 29.4153C28.3419 29.4789 28.1177 29.5107 27.8934 29.5107C26.3876 29.5107 25.1382 27.9521 25.1061 26.0435C25.1061 24.1349 26.2915 22.5762 27.7973 22.5762C29.3031 22.5762 30.5526 24.1349 30.5846 26.0435C30.5846 27.2523 30.104 28.3338 29.3672 28.9382H29.3992ZM27.9255 21.9082C30.2322 21.9082 32.1224 23.785 32.1224 26.0435C32.1224 28.302 31.2574 28.9064 30.0079 29.638C30.0399 29.6698 30.072 29.7334 30.104 29.797C30.7127 30.6241 32.1224 30.5923 33.7563 29.797C34.7175 29.3517 35.3902 29.4153 35.999 30.2742C34.8456 30.1151 34.1087 30.6559 33.2437 31.1967C31.8981 32.0237 30.4244 31.8965 29.6555 30.8468C29.4633 30.5923 29.271 30.306 29.0788 30.0515C28.7264 30.1469 28.3419 30.2106 27.9255 30.2106C25.6187 30.2106 23.7285 28.3338 23.7285 26.0753C23.7285 23.8168 25.6187 21.94 27.9255 21.94V21.9082Z" fill="#C7A26A"/>
<path d="M29.3992 28.9382C28.3419 27.8248 27.2527 27.5385 25.9391 28.1747C27.1566 28.1747 27.9255 28.7155 28.5342 29.4153C28.3419 29.4789 28.1177 29.5107 27.8934 29.5107C26.3876 29.5107 25.1382 27.9521 25.1061 26.0435C25.1061 24.1349 26.2915 22.5762 27.7973 22.5762C29.3031 22.5762 30.5526 24.1349 30.5846 26.0435C30.5846 27.2523 30.104 28.3338 29.3672 28.9382H29.3992ZM27.9255 21.9082C30.2322 21.9082 32.1224 23.785 32.1224 26.0435C32.1224 28.302 31.2574 28.9064 30.0079 29.638C30.0399 29.6698 30.072 29.7334 30.104 29.797C30.7127 30.6241 32.1224 30.5923 33.7563 29.797C34.7175 29.3517 35.3902 29.4153 35.999 30.2742C34.8456 30.1151 34.1087 30.6559 33.2437 31.1967C31.8981 32.0237 30.4244 31.8965 29.6555 30.8468C29.4633 30.5923 29.271 30.306 29.0788 30.0515C28.7264 30.1469 28.3419 30.2106 27.9255 30.2106C25.6187 30.2106 23.7285 28.3338 23.7285 26.0753C23.7285 23.8168 25.6187 21.94 27.9255 21.94V21.9082Z" stroke="#C7A26A" stroke-width="0.5" stroke-miterlimit="2.6"/>
<path fill-rule="evenodd" clip-rule="evenodd" d="M20.0761 42.5839C20.1722 42.393 20.3965 42.3612 20.3324 41.9795C20.2043 41.7887 20.0121 41.725 19.8519 41.8841C19.4995 42.0113 19.5956 42.234 20.0761 42.5521V42.5839Z" fill="white"/>
<path d="M20.0761 42.5839C20.1722 42.393 20.3965 42.3612 20.3324 41.9795C20.2043 41.7887 20.0121 41.725 19.8519 41.8841C19.4995 42.0113 19.5956 42.234 20.0761 42.5521V42.5839Z" stroke="white" stroke-width="0.2" stroke-miterlimit="2.6"/>
<path fill-rule="evenodd" clip-rule="evenodd" d="M43.9764 32.0869C44.0725 31.896 44.3288 31.4825 44.2647 31.1008C44.1365 30.9099 43.7841 30.5282 43.656 30.6873C43.3036 30.8145 43.4958 31.737 43.9764 32.0869Z" fill="white"/>
<path d="M43.9764 32.0869C44.0725 31.896 44.3288 31.4825 44.2647 31.1008C44.1365 30.9099 43.7841 30.5282 43.656 30.6873C43.3036 30.8145 43.4958 31.737 43.9764 32.0869Z" stroke="white" stroke-width="0.2" stroke-miterlimit="2.6"/>
<path fill-rule="evenodd" clip-rule="evenodd" d="M44.0727 33.6461C44.1688 33.4553 44.3931 33.0736 44.329 32.7237C44.2009 32.5328 44.0086 32.4692 43.8485 32.6282C43.496 32.7555 43.5921 33.2962 44.0727 33.6461Z" fill="white"/>
<path d="M44.0727 33.6461C44.1688 33.4553 44.3931 33.0736 44.329 32.7237C44.2009 32.5328 44.0086 32.4692 43.8485 32.6282C43.496 32.7555 43.5921 33.2962 44.0727 33.6461Z" stroke="white" stroke-width="0.2" stroke-miterlimit="2.6"/>
<path fill-rule="evenodd" clip-rule="evenodd" d="M44.1046 34.8862C44.2008 34.6954 44.6172 34.1228 44.5852 33.7729C44.4571 33.582 44.0406 34.0592 43.9124 34.2182C43.56 34.3454 43.6561 34.5681 44.1367 34.8862H44.1046Z" fill="white"/>
<path d="M44.1046 34.8862C44.2008 34.6954 44.6172 34.1228 44.5852 33.7729C44.4571 33.582 44.0406 34.0592 43.9124 34.2182C43.56 34.3454 43.6561 34.5681 44.1367 34.8862H44.1046Z" stroke="white" stroke-width="0.2" stroke-miterlimit="2.6"/>
<path fill-rule="evenodd" clip-rule="evenodd" d="M44.5529 35.9048C44.649 35.7139 45.0655 35.1413 45.0335 34.7914C44.9053 34.6006 44.4888 35.0777 44.3607 35.2368C44.0082 35.364 44.1044 35.5867 44.5849 35.9048H44.5529Z" fill="white"/>
<path d="M44.5529 35.9048C44.649 35.7139 45.0655 35.1413 45.0335 34.7914C44.9053 34.6006 44.4888 35.0777 44.3607 35.2368C44.0082 35.364 44.1044 35.5867 44.5849 35.9048H44.5529Z" stroke="white" stroke-width="0.2" stroke-miterlimit="2.6"/>
<path d="M65.4097 0.69043H70.5037L76.6869 16.6908H76.8151V0.69043H81.2043V28.365H76.751L69.927 10.6151H69.8629V28.365H65.4737V0.69043H65.4097Z" fill="#4F5353"/>
<path d="M89.5019 0.65918H96.2298L101.676 28.3655H96.7104L95.4289 21.6537H89.6941L88.4447 28.3655H83.8633L89.534 0.65918H89.5019ZM94.5959 17.6774L92.6096 6.19409H92.4814L90.399 17.6774H94.5959Z" fill="#4F5353"/>
<path d="M109.045 0.65918H115.773L121.219 28.3655H116.253L114.972 21.6537H109.237L107.988 28.3655H103.406L109.077 0.65918H109.045ZM114.139 17.6774L112.153 6.19409H112.024L109.942 17.6774H114.139Z" fill="#4F5353"/>
<path d="M123.173 21.8126V7.21188C123.173 2.79032 126.537 0.277344 130.926 0.277344C135.316 0.277344 138.071 2.69489 138.071 6.73474V9.78848H133.618V7.18007C133.618 5.55777 132.592 4.50805 130.926 4.50805C129.261 4.50805 128.203 5.68501 128.203 7.33912V21.5581C128.203 23.4667 129.228 24.4846 130.991 24.4846C132.753 24.4846 133.65 23.4349 133.65 21.8762V19.2678H138.103V22.1307C138.103 26.2978 135.091 28.7789 130.926 28.7789C126.762 28.7789 123.237 26.4886 123.237 21.8444L123.173 21.8126Z" fill="#4F5353"/>
<path d="M152.392 0.65918H159.12L164.566 28.3655H159.601L158.319 21.6537H152.584L151.335 28.3655H146.753L152.424 0.65918H152.392ZM157.518 17.6774L155.532 6.19409H155.404L153.321 17.6774H157.518Z" fill="#4F5353"/>
<path d="M172.191 17.6138H167.001V14.4328H172.191V8.92969H175.395V14.4328C175.363 14.4328 180.585 14.4328 180.585 14.4328V17.6138H175.395V23.0532H172.191V17.6138Z" fill="#4F5353"/>
<path d="M188.947 17.6138H183.757V14.4328H188.947V8.92969H192.151V14.4328C192.119 14.4328 197.341 14.4328 197.341 14.4328V17.6138H192.151V23.0532H188.947V17.6138Z" fill="#4F5353"/>
<path d="M69.3822 32.8828H72.9704L77.6479 56.0404H74.9568L73.6112 49.1376H68.4531L67.1396 56.0404H64.6406L69.4142 32.8828H69.3822ZM73.1306 46.9427L71.0802 35.9684H70.9841L68.9016 46.9427H73.1306Z" fill="#4F5353"/>
<path d="M79.7944 51.1726V37.8761C79.7944 34.6633 82.0371 32.5957 85.4651 32.5957C88.8932 32.5957 90.7513 34.5679 90.7513 37.3036V39.912H88.3485V37.6853C88.3485 36.0312 87.3553 34.886 85.4331 34.886C83.5108 34.886 82.4856 36.2538 82.4856 37.9716V50.8863C82.4856 52.954 83.639 54.0037 85.4971 54.0037C87.3553 54.0037 88.3485 52.7631 88.3485 51.2363V48.9778H90.7513V51.3635C90.7513 54.3536 88.6689 56.3576 85.4651 56.3576C82.2613 56.3576 79.7944 54.5127 79.7944 51.1726Z" fill="#4F5353"/>
<path d="M93.667 51.1726V37.8761C93.667 34.6633 95.9096 32.5957 99.3377 32.5957C102.766 32.5957 104.624 34.5679 104.624 37.3036V39.912H102.221V37.6853C102.221 36.0312 101.228 34.886 99.3056 34.886C97.3834 34.886 96.3582 36.2538 96.3582 37.9716V50.8863C96.3582 52.954 97.5115 54.0037 99.3697 54.0037C101.228 54.0037 102.221 52.7631 102.221 51.2363V48.9778H104.624V51.3635C104.624 54.3536 102.541 56.3576 99.3377 56.3576C96.1339 56.3576 93.667 54.5127 93.667 51.1726Z" fill="#4F5353"/>
<path d="M107.892 32.9463H113.018C116.702 32.9463 118.528 35.2684 118.528 39.3719C118.528 43.4753 117.311 44.7477 115.42 45.3521L118.752 56.0402H115.997L112.889 45.9565H110.583V56.0402H107.892V32.9463ZM112.954 43.8889C114.876 43.8889 115.837 42.362 115.837 39.5945C115.837 36.8271 115.164 35.2366 112.857 35.2366H110.615V43.9207H112.954V43.8889Z" fill="#4F5353"/>
<path d="M121.956 32.9459H131.183V35.2044H124.615V42.8069H129.869V45.0972H124.615V53.6859H131.215V56.008H121.956V32.9141V32.9459Z" fill="#4F5353"/>
<path d="M134.291 32.9463H139.801C142.877 32.9463 145.215 34.505 145.215 37.8132V50.7916C145.215 54.3543 142.877 56.0402 139.737 56.0402H134.291V32.9463ZM139.545 53.7181C141.755 53.7181 142.492 52.1276 142.492 50.7598V38.0677C142.492 36.509 141.563 35.2366 139.545 35.2366H136.982V53.6863H139.545V53.7181Z" fill="#4F5353"/>
<path d="M148.676 32.9463H151.367V56.0402H148.676V32.9463Z" fill="#4F5353"/>
<path d="M158.447 35.236H154.026V32.9775H165.559V35.236H161.138V56.0397H158.479V35.236H158.447Z" fill="#4F5353"/>
<path d="M168.154 32.9459H177.381V35.2044H170.813V42.8069H176.068V45.0972H170.813V53.6859H177.413V56.008H168.154V32.9141V32.9459Z" fill="#4F5353"/>
<path d="M180.521 32.9463H186.031C189.107 32.9463 191.446 34.505 191.446 37.8132V50.7916C191.446 54.3543 189.107 56.0402 185.967 56.0402H180.521V32.9463ZM185.743 53.7181C187.954 53.7181 188.691 52.1276 188.691 50.7598V38.0677C188.691 36.509 187.762 35.2366 185.743 35.2366H183.18V53.6863H185.743V53.7181Z" fill="#4F5353"/>
</svg>
