<svg width="23" height="23" viewBox="0 0 23 23" fill="none" xmlns="http://www.w3.org/2000/svg">
<path d="M2.3 23C1.63556 23 1.08611 22.7828 0.651667 22.3483C0.217222 21.9139 0 21.3644 0 20.7C0 20.0356 0.217222 19.4861 0.651667 19.0517C1.08611 18.6172 1.63556 18.4 2.3 18.4C2.96444 18.4 3.51389 18.6172 3.94833 19.0517C4.38278 19.4861 4.6 20.0356 4.6 20.7C4.6 21.3644 4.38278 21.9139 3.94833 22.3483C3.51389 22.7828 2.96444 23 2.3 23ZM14.5667 23C13.9022 23 13.3528 22.7828 12.9183 22.3483C12.4839 21.9139 12.2667 21.3644 12.2667 20.7C12.2667 20.0356 12.4839 19.4861 12.9183 19.0517C13.3528 18.6172 13.9022 18.4 14.5667 18.4C15.2311 18.4 15.7806 18.6172 16.215 19.0517C16.6494 19.4861 16.8667 20.0356 16.8667 20.7C16.8667 21.3644 16.6494 21.9139 16.215 22.3483C15.7806 22.7828 15.2311 23 14.5667 23ZM8.43333 16.8667C7.76889 16.8667 7.21944 16.6494 6.785 16.215C6.35056 15.7806 6.13333 15.2311 6.13333 14.5667C6.13333 13.9022 6.35056 13.3528 6.785 12.9183C7.21944 12.4839 7.76889 12.2667 8.43333 12.2667C9.09778 12.2667 9.64722 12.4839 10.0817 12.9183C10.5161 13.3528 10.7333 13.9022 10.7333 14.5667C10.7333 15.2311 10.5161 15.7806 10.0817 16.215C9.64722 16.6494 9.09778 16.8667 8.43333 16.8667ZM20.7 16.8667C20.0356 16.8667 19.4861 16.6494 19.0517 16.215C18.6172 15.7806 18.4 15.2311 18.4 14.5667C18.4 13.9022 18.6172 13.3528 19.0517 12.9183C19.4861 12.4839 20.0356 12.2667 20.7 12.2667C21.3644 12.2667 21.9139 12.4839 22.3483 12.9183C22.7828 13.3528 23 13.9022 23 14.5667C23 15.2311 22.7828 15.7806 22.3483 16.215C21.9139 16.6494 21.3644 16.8667 20.7 16.8667ZM2.3 10.7333C1.63556 10.7333 1.08611 10.5161 0.651667 10.0817C0.217222 9.64722 0 9.09778 0 8.43333C0 7.76889 0.217222 7.21944 0.651667 6.785C1.08611 6.35056 1.63556 6.13333 2.3 6.13333C2.96444 6.13333 3.51389 6.35056 3.94833 6.785C4.38278 7.21944 4.6 7.76889 4.6 8.43333C4.6 9.09778 4.38278 9.64722 3.94833 10.0817C3.51389 10.5161 2.96444 10.7333 2.3 10.7333ZM14.5667 10.7333C13.9022 10.7333 13.3528 10.5161 12.9183 10.0817C12.4839 9.64722 12.2667 9.09778 12.2667 8.43333C12.2667 7.76889 12.4839 7.21944 12.9183 6.785C13.3528 6.35056 13.9022 6.13333 14.5667 6.13333C15.2311 6.13333 15.7806 6.35056 16.215 6.785C16.6494 7.21944 16.8667 7.76889 16.8667 8.43333C16.8667 9.09778 16.6494 9.64722 16.215 10.0817C15.7806 10.5161 15.2311 10.7333 14.5667 10.7333ZM8.43333 4.6C7.76889 4.6 7.21944 4.38278 6.785 3.94833C6.35056 3.51389 6.13333 2.96444 6.13333 2.3C6.13333 1.63556 6.35056 1.08611 6.785 0.651667C7.21944 0.217222 7.76889 0 8.43333 0C9.09778 0 9.64722 0.217222 10.0817 0.651667C10.5161 1.08611 10.7333 1.63556 10.7333 2.3C10.7333 2.96444 10.5161 3.51389 10.0817 3.94833C9.64722 4.38278 9.09778 4.6 8.43333 4.6ZM20.7 4.6C20.0356 4.6 19.4861 4.38278 19.0517 3.94833C18.6172 3.51389 18.4 2.96444 18.4 2.3C18.4 1.63556 18.6172 1.08611 19.0517 0.651667C19.4861 0.217222 20.0356 0 20.7 0C21.3644 0 21.9139 0.217222 22.3483 0.651667C22.7828 1.08611 23 1.63556 23 2.3C23 2.96444 22.7828 3.51389 22.3483 3.94833C21.9139 4.38278 21.3644 4.6 20.7 4.6Z" fill="#262626"/>
</svg>
