<svg width="24" height="23" viewBox="0 0 24 23" fill="none" xmlns="http://www.w3.org/2000/svg">
<path d="M0.728333 9.46833C0.626111 9.36611 0.575 9.24472 0.575 9.10417C0.575 8.96361 0.626111 8.82944 0.728333 8.70167L4.37 5.06L2.10833 2.83667L0.958333 3.98667C0.830556 4.11444 0.696389 4.17833 0.555833 4.17833C0.415278 4.17833 0.293889 4.11444 0.191667 3.98667C0.0638889 3.88444 0 3.76306 0 3.6225C0 3.48194 0.0638889 3.34778 0.191667 3.22L3.25833 0.191667C3.36056 0.0638889 3.48194 0 3.6225 0C3.76306 0 3.89722 0.0638889 4.025 0.191667C4.12722 0.293889 4.17833 0.415278 4.17833 0.555833C4.17833 0.696389 4.12722 0.817778 4.025 0.92L2.83667 2.10833L5.09833 4.33167L8.74 0.69C8.86778 0.562222 9.00194 0.498333 9.1425 0.498333C9.28306 0.498333 9.40444 0.562222 9.50667 0.69C9.63444 0.792222 9.69833 0.913611 9.69833 1.05417C9.69833 1.19472 9.63444 1.32889 9.50667 1.45667L8.70167 2.26167L11.73 5.29L8.54833 8.47167C8.44611 8.57389 8.395 8.69528 8.395 8.83583C8.395 8.97639 8.44611 9.11056 8.54833 9.23833C8.67611 9.34056 8.81028 9.39167 8.95083 9.39167C9.09139 9.39167 9.21278 9.34056 9.315 9.23833L12.4967 6.05667L15.9467 9.50667L12.8033 12.6883C12.6756 12.8161 12.6117 12.9503 12.6117 13.0908C12.6117 13.2314 12.6756 13.3528 12.8033 13.455C12.9056 13.5572 13.0269 13.6019 13.1675 13.5892C13.3081 13.5764 13.4294 13.5189 13.5317 13.4167L16.7133 10.2733L18.86 12.42C19.32 12.88 19.55 13.4294 19.55 14.0683C19.55 14.7072 19.32 15.2439 18.86 15.6783L17.6717 16.8667L23.5367 22.7317H22.0033L16.905 17.6333L15.7167 18.8217C15.2822 19.2561 14.7456 19.4733 14.1067 19.4733C13.4678 19.4733 12.9183 19.2561 12.4583 18.8217L2.3 8.66333L1.495 9.46833C1.36722 9.59611 1.23944 9.66 1.11167 9.66C0.983889 9.66 0.856111 9.59611 0.728333 9.46833Z" fill="#262626"/>
</svg>
