<svg width="24" height="27" viewBox="0 0 24 27" fill="none" xmlns="http://www.w3.org/2000/svg">
<path d="M6.70833 19.9717C7.245 20.5083 7.88389 20.7767 8.625 20.7767C9.36611 20.7767 10.005 20.5083 10.5417 19.9717L13.34 17.1733L9.50667 13.34L6.70833 16.1383C6.19722 16.6494 5.94167 17.2883 5.94167 18.055C5.94167 18.8217 6.19722 19.4606 6.70833 19.9717ZM16.8996 9.78037C16.3665 9.26568 15.7294 9.00194 14.9883 8.98917C14.2472 8.97639 13.6083 9.23833 13.0717 9.775L10.2733 12.5733L14.1067 16.4067L16.905 13.6083C17.4417 13.0612 17.7036 12.4196 17.6908 11.6836C17.6781 10.9479 17.4143 10.3135 16.8996 9.78037ZM2.3 26.68C1.6675 26.68 1.12611 26.4547 0.675817 26.0042C0.225272 25.5539 0 25.0125 0 24.38V5.36667C0 4.73417 0.225272 4.19264 0.675817 3.7421C1.12611 3.29181 1.6675 3.06667 2.3 3.06667H9.73667C9.45556 2.32556 9.53222 1.62917 9.96667 0.9775C10.4011 0.325833 11.0208 0 11.8258 0C12.6308 0 13.2506 0.325833 13.685 0.9775C14.1194 1.62917 14.1833 2.32556 13.8767 3.06667H21.3133C21.9458 3.06667 22.4874 3.29181 22.9379 3.7421C23.3882 4.19264 23.6133 4.73417 23.6133 5.36667V24.38C23.6133 25.0125 23.3882 25.5539 22.9379 26.0042C22.4874 26.4547 21.9458 26.68 21.3133 26.68H2.3ZM11.8067 3.37333C12.1389 3.37333 12.4136 3.26472 12.6308 3.0475C12.8481 2.83028 12.9567 2.55556 12.9567 2.22333C12.9567 1.89111 12.8481 1.61639 12.6308 1.39917C12.4136 1.18194 12.1389 1.07333 11.8067 1.07333C11.4744 1.07333 11.1997 1.18194 10.9825 1.39917C10.7653 1.61639 10.6567 1.89111 10.6567 2.22333C10.6567 2.55556 10.7653 2.83028 10.9825 3.0475C11.1997 3.26472 11.4744 3.37333 11.8067 3.37333Z" fill="#262626"/>
</svg>
