<svg width="27" height="27" viewBox="0 0 27 27" fill="none" xmlns="http://www.w3.org/2000/svg">
<path d="M4.79167 25.99C3.64167 25.99 2.67056 25.5939 1.87833 24.8017C1.08611 24.0094 0.69 23.0383 0.69 21.8883C0.69 20.7383 1.08611 19.7672 1.87833 18.975C2.67056 18.1828 3.64167 17.7867 4.79167 17.7867C5.94167 17.7867 6.91278 18.1828 7.705 18.975C8.49722 19.7672 8.89333 20.7383 8.89333 21.8883C8.89333 22.3994 8.80389 22.885 8.625 23.345C8.44611 23.805 8.19055 24.2139 7.85833 24.5717V24.3033C8.70167 24.7378 9.58333 25.0636 10.5033 25.2808C11.4233 25.4981 12.3689 25.6067 13.34 25.6067C16.7644 25.6067 19.665 24.4183 22.0417 22.0417C24.4183 19.665 25.6067 16.7644 25.6067 13.34H26.68C26.68 15.18 26.3286 16.9114 25.6258 18.5342C24.9231 20.1569 23.9711 21.5689 22.77 22.77C21.5689 23.9711 20.1569 24.9231 18.5342 25.6258C16.9114 26.3286 15.18 26.68 13.34 26.68C12.2667 26.68 11.2189 26.5586 10.1967 26.3158C9.17444 26.0731 8.17778 25.6961 7.20667 25.185C6.84889 25.4661 6.46556 25.6706 6.05667 25.7983C5.64778 25.9261 5.22611 25.99 4.79167 25.99ZM13.34 17.4417C12.19 17.4417 11.2189 17.0456 10.4267 16.2533C9.63444 15.4611 9.23833 14.49 9.23833 13.34C9.23833 12.19 9.63444 11.2189 10.4267 10.4267C11.2189 9.63444 12.19 9.23833 13.34 9.23833C14.49 9.23833 15.4611 9.63444 16.2533 10.4267C17.0456 11.2189 17.4417 12.19 17.4417 13.34C17.4417 14.49 17.0456 15.4611 16.2533 16.2533C15.4611 17.0456 14.49 17.4417 13.34 17.4417ZM0 13.34C0 11.5 0.351389 9.76861 1.05417 8.14583C1.75694 6.52306 2.70889 5.11111 3.91 3.91C5.11111 2.70889 6.52306 1.75694 8.14583 1.05417C9.76861 0.351389 11.5 0 13.34 0C14.4133 0 15.4611 0.121389 16.4833 0.364167C17.5056 0.606944 18.5022 0.983889 19.4733 1.495C19.8311 1.23944 20.2144 1.04778 20.6233 0.92C21.0322 0.792222 21.4539 0.728333 21.8883 0.728333C23.0383 0.728333 24.0031 1.11806 24.7825 1.8975C25.5619 2.67694 25.9517 3.64167 25.9517 4.79167C25.9517 5.94167 25.5619 6.91278 24.7825 7.705C24.0031 8.49722 23.0383 8.89333 21.8883 8.89333C20.7383 8.89333 19.7672 8.49722 18.975 7.705C18.1828 6.91278 17.7867 5.94167 17.7867 4.79167C17.7867 4.28056 17.8761 3.795 18.055 3.335C18.2339 2.875 18.4894 2.46611 18.8217 2.10833V2.37667C17.9783 1.94222 17.0967 1.61639 16.1767 1.39917C15.2567 1.18194 14.3111 1.07333 13.34 1.07333C9.91556 1.07333 7.015 2.26167 4.63833 4.63833C2.26167 7.015 1.07333 9.91556 1.07333 13.34H0Z" fill="#262626"/>
</svg>
