<svg width="29" height="29" viewBox="0 0 29 29" fill="none" xmlns="http://www.w3.org/2000/svg">
<ellipse cx="14.1821" cy="14.0043" rx="11" ry="11.0033" fill="#AF0C3E"/>
<path d="M11.3564 19.0612L19.2377 14.0041L11.3564 8.94697V19.0612ZM14.185 26.0077C12.5255 26.0077 10.9654 25.6923 9.50467 25.0614C8.04371 24.4303 6.7729 23.574 5.69224 22.4923C4.61179 21.4107 3.75666 20.1407 3.12685 18.6823C2.49704 17.2237 2.18213 15.6653 2.18213 14.007C2.18213 12.347 2.49747 10.7864 3.12814 9.32523C3.75903 7.86383 4.61513 6.59264 5.69643 5.51165C6.77774 4.43088 8.04737 3.57549 9.50532 2.94549C10.9635 2.31549 12.5215 2.00049 14.1792 2.00049C15.8387 2.00049 17.3988 2.31592 18.8596 2.94678C20.3205 3.57786 21.5914 4.43421 22.672 5.51585C23.7525 6.59748 24.6076 7.86749 25.2374 9.32587C25.8672 10.7845 26.1821 12.3429 26.1821 14.0012C26.1821 15.6612 25.8668 17.2218 25.2361 18.683C24.6052 20.1444 23.7491 21.4155 22.6678 22.4965C21.5865 23.5773 20.3169 24.4327 18.8589 25.0627C17.4008 25.6927 15.8428 26.0077 14.185 26.0077ZM14.1818 24.2016C17.0188 24.2016 19.4271 23.2116 21.4069 21.2317C23.3867 19.2515 24.3766 16.8424 24.3766 14.0044C24.3766 11.1666 23.3869 8.75752 21.4076 6.77714C19.428 4.79677 17.0196 3.80658 14.1825 3.80658C11.3455 3.80658 8.93713 4.79655 6.95735 6.7765C4.97757 8.75666 3.98768 11.1657 3.98768 14.0038C3.98768 16.8416 4.97735 19.2507 6.9567 21.231C8.93627 23.2114 11.3446 24.2016 14.1818 24.2016Z" fill="white"/>
</svg>
