<svg width="24" height="27" viewBox="0 0 24 27" fill="none" xmlns="http://www.w3.org/2000/svg">
<path d="M10.6567 25.99L1.15 20.5083C0.792222 20.3039 0.511111 20.0228 0.306667 19.665C0.102222 19.3072 0 18.9239 0 18.515V7.78167C0 7.37278 0.102222 6.98944 0.306667 6.63167C0.511111 6.27389 0.792222 5.99278 1.15 5.78833L10.6567 0.306667C11.0144 0.102222 11.3978 0 11.8067 0C12.2156 0 12.5989 0.102222 12.9567 0.306667L22.4633 5.78833C22.8211 5.99278 23.1022 6.27389 23.3067 6.63167C23.5111 6.98944 23.6133 7.37278 23.6133 7.78167V18.515C23.6133 18.9239 23.5111 19.3072 23.3067 19.665C23.1022 20.0228 22.8211 20.3039 22.4633 20.5083L12.9567 25.99C12.5989 26.1944 12.2156 26.2967 11.8067 26.2967C11.3978 26.2967 11.0144 26.1944 10.6567 25.99ZM11.27 13.455V25.1083C11.4489 25.2106 11.6278 25.2617 11.8067 25.2617C11.9856 25.2617 12.1644 25.2106 12.3433 25.1083V13.455L22.54 7.55167C22.54 7.42389 22.5081 7.29611 22.4442 7.16833C22.3803 7.04056 22.2844 6.93833 22.1567 6.86167L21.8883 6.70833L11.8067 12.535L1.725 6.70833L1.45667 6.86167C1.32889 6.93833 1.23306 7.04056 1.16917 7.16833C1.10528 7.29611 1.07333 7.42389 1.07333 7.55167L11.27 13.455Z" fill="#262626"/>
</svg>
