<svg width="27" height="24" viewBox="0 0 27 24" fill="none" xmlns="http://www.w3.org/2000/svg">
<path d="M13.34 23.46L12.4967 22.6933C10.0178 20.4189 7.96694 18.4767 6.34417 16.8667C4.72139 15.2567 3.44361 13.8447 2.51083 12.6308C1.57806 11.4169 0.926389 10.3244 0.555833 9.35333C0.185278 8.38222 0 7.41111 0 6.44C0 4.62556 0.619722 3.09861 1.85917 1.85917C3.09861 0.619722 4.62556 0 6.44 0C7.79444 0 9.05944 0.364167 10.235 1.0925C11.4106 1.82083 12.4456 2.88778 13.34 4.29333C14.2344 2.88778 15.2694 1.82083 16.445 1.0925C17.6206 0.364167 18.8856 0 20.24 0C22.0544 0 23.5814 0.619722 24.8208 1.85917C26.0603 3.09861 26.68 4.62556 26.68 6.44C26.68 7.41111 26.4947 8.38222 26.1242 9.35333C25.7536 10.3244 25.1019 11.4169 24.1692 12.6308C23.2364 13.8447 21.965 15.2567 20.355 16.8667C18.745 18.4767 16.6878 20.4189 14.1833 22.6933L13.34 23.46Z" fill="#262626"/>
</svg>
