<svg width="27" height="28" viewBox="0 0 27 28" fill="none" xmlns="http://www.w3.org/2000/svg">
<path d="M18.285 19.78V15.5633L16.6367 12.4967C15.9978 12.5222 15.4611 12.765 15.0267 13.225C14.5922 13.685 14.375 14.2344 14.375 14.8733V22.6933L17.5567 27.9833H26.6417L25.1467 11.385L15.64 0C14.8478 0.792222 14.2728 1.69944 13.915 2.72167C13.5572 3.74389 13.6339 4.715 14.145 5.635L19.3583 15.2567V19.78H18.285ZM7.28333 19.78V15.2567L12.4967 5.635C13.0078 4.715 13.0781 3.74389 12.7075 2.72167C12.3369 1.69944 11.7683 0.792222 11.0017 0L1.495 11.385L0 27.9833H9.085L12.2667 22.6933V14.8733C12.2667 14.2344 12.0494 13.6914 11.615 13.2442C11.1806 12.7969 10.6439 12.5606 10.005 12.535L8.35667 15.5633V19.78H7.28333Z" fill="#262626"/>
</svg>
