<svg width="21" height="27" viewBox="0 0 21 27" fill="none" xmlns="http://www.w3.org/2000/svg">
<path d="M9.73667 20.93L13.7617 13.34H10.81V7.59L6.785 15.18H9.73667V20.93ZM10.2733 26.0667C7.33444 26.0667 4.8875 25.0572 2.9325 23.0383C0.9775 21.0194 0 18.5022 0 15.4867C0 13.3911 0.849722 11.0592 2.54917 8.49083C4.24861 5.9225 6.82333 3.09222 10.2733 0C13.7233 3.09222 16.2981 5.9225 17.9975 8.49083C19.6969 11.0592 20.5467 13.3911 20.5467 15.4867C20.5467 18.5022 19.5692 21.0194 17.6142 23.0383C15.6592 25.0572 13.2122 26.0667 10.2733 26.0667Z" fill="#262626"/>
</svg>
