<svg width="148" height="48" viewBox="0 0 148 48" fill="none" xmlns="http://www.w3.org/2000/svg">
<g clip-path="url(#clip0_397_1447)">
<path d="M13.1468 48H4.6824L4.91652 6.4939L0 6.45732L0.0360185 0H18.4775L18.4415 6.56707L13.3629 6.53049L13.1468 48Z" fill="#DE0835"/>
<path d="M28.1483 24.6585L28.0222 48H20.0981L20.3143 0H28.2203V18.2012H30.2734L30.3634 0H38.1614V48H30.1113L30.2374 24.6585H28.1483Z" fill="#A02383"/>
<path d="M56.2789 6.76829L48.733 6.73171L48.661 18.9512L54.9642 18.9878V24.7866H48.625L48.5529 40.7561L56.0628 40.7927L56.0268 48H40.3047L40.5568 0H56.2789V6.76829Z" fill="#026E9E"/>
<path d="M7.0416 45.1826V46.1338H6.60938L6.62738 43.6826H7.05961L7.0416 44.6704L11.4359 44.707V45.2009L7.0416 45.1826Z" fill="white"/>
<path d="M6.62285 42.4927L6.62012 43.0049L11.4285 43.0313L11.4312 42.5191L6.62285 42.4927Z" fill="white"/>
<path d="M6.64551 41.4511V40.6829L9.14879 40.1158C9.59902 40.0243 10.0673 39.9146 10.6075 39.8414C10.1213 39.7682 9.65305 39.6585 9.14879 39.567L6.64551 38.9451V38.1768H11.454V38.6524H7.00569L11.454 39.7133V40.006L6.98768 41.0304H11.454V41.506H6.64551" fill="white"/>
<path d="M6.66309 37.1155L6.6811 34.9021H7.11332V36.6216H8.77017V35.3777H9.2204L9.20239 36.6216L11.0393 36.6399V34.8838H11.4896L11.4716 37.1338L6.66309 37.1155Z" fill="white"/>
<path d="M10.2112 33.8778C10.8235 33.8595 11.1296 33.6034 11.1296 33.1095C11.1296 32.6887 10.8055 32.3778 10.3372 32.3778C9.81496 32.3778 9.52682 32.7253 9.07658 33.329C8.62635 33.9326 8.30219 34.2802 7.67186 34.2802C7.04154 34.2802 6.59131 33.8229 6.59131 33.2009C6.59131 32.4692 7.05955 32.0302 7.90598 32.0119V32.4875C7.31168 32.5424 7.00552 32.7619 7.00552 33.1826C7.00552 33.6034 7.25765 33.8412 7.67186 33.8412L8.24816 33.6217L8.96853 32.7253C9.40075 32.1948 9.76094 31.957 10.3372 31.957C11.0936 31.957 11.5979 32.4509 11.5799 33.1643C11.5799 33.9509 11.0756 34.39 10.1932 34.39V33.9144" fill="white"/>
<path d="M21.6831 45.8597V45.3658H23.7542L23.7722 43.939H21.7011V43.4268L26.5096 43.4633V43.9572L24.2224 43.939L24.2044 45.3841H26.5096L26.4916 45.8963L21.6831 45.8597Z" fill="white"/>
<path d="M21.7062 41.886L21.7036 42.3799L26.512 42.4063L26.5146 41.9124L21.7062 41.886Z" fill="white"/>
<path d="M26.2577 38.744C26.5098 38.9635 26.6179 39.2196 26.6179 39.6037C26.6179 40.5367 25.7895 40.994 24.1686 40.994C22.4398 40.994 21.6113 40.5549 21.6113 39.5854C21.6113 38.8537 22.1516 38.3781 23.1241 38.3964V38.872C22.4037 38.872 22.0435 39.1647 22.0255 39.5854C22.0255 40.2257 22.7099 40.4452 24.1506 40.4452C25.5013 40.4452 26.1497 40.2074 26.1497 39.5306C26.1497 39.1098 25.8255 38.7988 25.2492 38.7988H24.6909V39.494H24.2767V38.3232H26.5279V38.6891L26.2757 38.7623" fill="white"/>
<path d="M21.7373 37.3905V36.8966L23.8084 36.9149V35.4698H21.7373V34.9941L26.5638 35.0124L26.5458 35.488H24.2586V36.9149H26.5458V37.4271L21.7373 37.3905Z" fill="white"/>
<path d="M21.7554 33.9331V31.738H22.2056V33.4392L23.8444 33.4575L23.8625 32.1953H24.2947V33.4575H26.1136L26.1316 31.7197H26.5819L26.5638 33.9697L21.7554 33.9331Z" fill="white"/>
<path d="M21.7729 30.951V30.0546C21.7729 28.9936 22.2051 28.4814 23.0515 28.4814C23.6459 28.4814 24.0421 28.7558 24.2041 29.268L26.5994 28.4814V29.0119L24.2942 29.7253V30.4571H26.5634V30.9693H21.7549M23.862 30.0363C23.862 29.3595 23.5918 29.0302 23.0335 29.0302C22.4753 29.0302 22.1871 29.3595 22.1871 30.0363V30.4571H23.862V30.0363Z" fill="white"/>
<path d="M42.0156 45.97V43.7749H42.4659L42.4478 45.4761L44.1047 45.4944V44.2322H44.5549V45.4944H46.3559V43.7383L46.8241 43.7566V46.0066L42.0156 45.97Z" fill="white"/>
<path d="M42.0156 42.9334V42.037C42.0156 40.8846 42.772 40.409 44.4289 40.4273C46.0857 40.4456 46.8421 40.8846 46.8421 42.0736V42.9699H42.0336M46.3739 42.4578V42.1834C46.4099 41.2138 45.8336 40.9212 44.4109 40.9212C42.9881 40.9212 42.4298 41.1773 42.4298 42.1651V42.4395H46.3739V42.4578Z" fill="white"/>
<path d="M42.0336 39.5303V39.0364H45.0952C46.0316 39.0364 46.4819 38.9998 46.4819 38.323C46.4819 37.6462 46.0316 37.5913 45.0952 37.5913H42.0156V37.0791H45.1492C45.7795 37.0974 46.2297 37.134 46.5179 37.3535C46.77 37.5547 46.9321 37.9023 46.9321 38.3413C46.9321 38.7803 46.788 39.1279 46.4999 39.3108C46.2117 39.5669 45.7615 39.5486 45.1132 39.5486H41.9976" fill="white"/>
<path d="M45.4011 33.5674C46.4096 33.5674 46.9499 34.043 46.9499 34.8479C46.9499 35.7442 46.1215 36.2198 44.5007 36.2198C42.7718 36.2198 41.9434 35.7808 41.9434 34.793C41.9434 34.0796 42.4836 33.604 43.4561 33.604V34.0979C42.7358 34.0979 42.3576 34.3906 42.3576 34.8113C42.3576 35.4515 43.0239 35.6893 44.4466 35.7076C45.8694 35.7259 46.4997 35.4698 46.4997 34.7747C46.4997 34.3174 46.1035 34.043 45.3651 34.043H45.2571V33.5674H45.3831" fill="white"/>
<path d="M42.0693 32.0484V31.3715L46.8778 30.3105V30.841L45.4731 31.1154V32.341L46.8778 32.6154V33.1093L42.0693 32.0301V32.0484ZM45.0229 31.2069L42.5016 31.7008L45.0229 32.213V31.2069Z" fill="white"/>
<path d="M42.5016 29.012L42.4836 29.9632H42.0874L42.1054 27.5303H42.5016V28.5181L46.8779 28.5364V29.0486L42.5016 29.012Z" fill="white"/>
<path d="M42.0954 26.345L42.0928 26.8389L46.9012 26.8653L46.9038 26.3714L42.0954 26.345Z" fill="white"/>
<path d="M44.519 25.4451C42.8621 25.4451 42.0337 24.9512 42.0337 24.0732C42.0337 23.1951 42.8801 22.7195 44.537 22.7378C46.1938 22.7378 47.0223 23.2317 47.0223 24.1098C47.0223 24.9878 46.1758 25.4634 44.519 25.4451ZM44.3929 24.9146C45.8517 24.9146 46.572 24.6951 46.572 24.1098C46.572 23.5244 45.9057 23.2866 44.537 23.2683C43.1683 23.25 42.4839 23.4878 42.4839 24.0915C42.4839 24.6951 43.0962 24.9146 44.4109 24.9329" fill="white"/>
<path d="M42.5199 21.402H46.9681V21.8776H42.1597V21.1276L44.8971 20.1398C45.2933 19.9935 45.6895 19.8654 46.0857 19.7557C45.6715 19.7923 45.3293 19.7923 45.0231 19.7923H42.1597V19.335H46.9681V19.8654L43.6364 21.0728C43.2402 21.2191 42.862 21.3106 42.5199 21.4203" fill="white"/>
<path d="M58.2058 0H148L147.928 15.6037L58.1338 15.1098L58.2058 0Z" fill="#DE0835"/>
<path d="M58.116 17.0303L134.223 17.451L134.151 31.7193H58.0439L58.116 17.0303Z" fill="#A02383"/>
<path d="M58.0257 33.9697H121.058L120.986 48.0002H57.9536L58.0257 33.9697Z" fill="#026E9E"/>
<path d="M95.2868 11.8723L95.3228 4.07958H96.3493C98.6725 4.07958 99.3029 5.59787 99.2849 7.95763C99.2849 10.6101 98.4744 11.9088 96.0792 11.9088H95.2688M94.1702 12.8784H96.2413C99.0507 12.8967 100.455 11.232 100.473 7.95763C100.473 4.7747 99.1408 3.09177 96.2413 3.07348H94.2243L94.1702 12.8784ZM87.6689 12.8418L92.6575 12.8784V11.8723H88.7855L88.8395 3.0369H87.7229L87.6689 12.8601V12.8418ZM81.2576 7.46372V3.98811H82.7344C83.923 3.98811 84.7154 4.31738 84.6974 5.67104C84.6974 7.07958 83.923 7.44543 82.6443 7.44543H81.2576V7.46372ZM84.031 8.30519C85.0035 7.99421 85.8139 7.24421 85.8139 5.74421C85.8139 3.71372 84.4452 3.0369 82.7163 3.0186H80.159L80.105 12.8235H81.2216V8.46982H82.8964L84.6794 12.8601H85.886L84.031 8.32348M74.7383 11.8723C73.2255 11.8723 72.4691 10.4271 72.4871 7.90275C72.4871 5.37836 73.2795 3.84177 74.7923 3.86007C76.3051 3.87836 77.0614 5.36007 77.0434 7.86616C77.0254 10.3723 76.233 11.8906 74.7383 11.8906M74.7383 12.8601C76.8633 12.8601 78.232 10.9393 78.232 7.79299C78.232 4.64665 76.9714 2.81738 74.7923 2.81738C72.6132 2.81738 71.3165 4.79299 71.3165 7.82958C71.3165 10.8662 72.5952 12.8418 74.7383 12.8601ZM62.3119 12.6954H63.5725L65.3374 4.37226L67.1023 12.7137H68.327L70.308 2.90885H69.2274L67.6966 11.0857L66.0398 2.89055H64.7251L62.9782 11.0674L61.5735 2.87226H60.4209L62.3119 12.6954Z" fill="white"/>
<path d="M122.048 29.5792H123.165V25.4268L125.884 19.7743H124.75L122.697 24.3475L120.716 19.756H119.509L122.084 25.4268V29.5792M115.025 29.5426H116.141L116.195 20.7255H118.609V19.7377L112.63 19.7011V20.7072H115.079L115.025 29.5243V29.5426ZM109.946 29.5243H111.063L111.117 19.7194H110L109.946 29.5243ZM105.21 29.5975C107.011 29.5975 108.091 28.5914 108.109 26.8902C108.109 24.9694 106.813 24.3475 105.588 23.8719C104.309 23.3597 103.697 23.0304 103.697 21.9877C103.697 20.9451 104.345 20.5975 105.282 20.5975C106.074 20.5975 106.669 20.7987 107.209 21.128L107.659 20.1768C106.993 19.756 106.362 19.5365 105.3 19.5365C103.787 19.5365 102.689 20.3963 102.671 21.9694C102.671 23.7438 103.823 24.3841 105.066 24.8963C106.218 25.3536 107.029 25.7377 107.029 26.9085C107.029 27.9694 106.344 28.5548 105.192 28.5548C104.039 28.5548 103.247 28.0609 102.707 27.6036L102.166 28.4816C102.779 29.0304 103.787 29.6158 105.21 29.6341M96.5294 24.1097V20.6158H97.9881C99.1407 20.6158 99.9331 20.9633 99.9331 22.2987C99.9331 23.6341 99.1587 24.0731 97.8981 24.0731H96.5474V24.1097H96.5294ZM99.2848 24.9329C100.257 24.6219 101.05 23.8719 101.05 22.3719C101.05 20.3414 99.699 19.6646 97.9881 19.6463H95.4488L95.3948 29.4511H96.4934V25.0975H98.1682L99.9151 29.4694H101.122L99.2668 24.9329M88.4792 29.3963L93.7559 29.4329V28.4268H89.5958V24.7499H92.6934V23.7438H89.6138V20.5792H93.5759V19.5914L88.5153 19.5548L88.4612 29.378L88.4792 29.3963ZM83.0044 29.3597H84.2831L87.0205 19.5548H85.9039L83.6528 27.9694L81.5097 19.5182H80.321L82.9864 29.3414H83.0044V29.3597ZM77.6557 29.3414H78.7723L78.8263 19.5365H77.7097L77.6557 29.3414ZM69.1733 29.2865H70.2179L70.2539 23.378C70.2539 22.4451 70.2539 21.4938 70.2179 20.8719C70.416 21.3658 70.7041 22.1158 70.9923 22.7011L74.1619 29.3048H75.2785L75.3325 19.4999H74.306L74.2699 25.006C74.2699 25.8841 74.2699 27.1097 74.306 27.5121C74.1619 27.1097 73.8017 26.2133 73.4775 25.5548L70.56 19.4816H69.2454L69.1913 29.2865H69.1733ZM63.9506 29.3597C66.2738 29.3597 66.9402 27.8231 66.9582 25.4633L66.9942 19.4451H65.8776L65.8416 25.7377C65.8416 27.3658 65.4634 28.3719 63.9506 28.3536C62.4379 28.3536 62.1137 27.3475 62.1137 25.7194L62.1497 19.4268H61.0512L61.0151 25.4268C61.0151 27.7865 61.6995 29.3414 63.9506 29.3414" fill="white"/>
<path d="M114.827 46.6285C116.646 46.6285 117.763 45.6224 117.781 43.9212C117.781 41.9821 116.466 41.3785 115.223 40.9029C113.927 40.3907 113.278 40.0431 113.278 39.0004C113.278 37.9577 113.927 37.6102 114.899 37.6102C115.709 37.6102 116.304 37.8114 116.844 38.1407L117.312 37.1895C116.628 36.7687 115.98 36.5492 114.917 36.5492C113.404 36.5492 112.252 37.3907 112.234 38.9821C112.234 40.7565 113.386 41.3968 114.665 41.909C115.854 42.3663 116.682 42.7504 116.682 43.9212C116.682 44.9821 116.016 45.5675 114.827 45.5675C113.638 45.5675 112.864 45.0553 112.324 44.598L111.765 45.476C112.324 46.0065 113.368 46.6102 114.827 46.6285ZM109.478 45.6224L109.712 46.4821H110.379L110.415 41.3785H107.479V42.3663H109.298V44.7077C108.884 45.1468 108.326 45.5492 107.515 45.5492C105.912 45.5492 105.156 44.1041 105.174 41.6346C105.174 39.1285 105.912 37.5736 107.587 37.5919C108.434 37.5919 109.01 37.9029 109.586 38.4882L110.235 37.6834C109.514 36.8785 108.74 36.5492 107.623 36.5309C105.282 36.5309 104.021 38.5248 104.003 41.5431C104.003 44.6163 105.282 46.5919 107.425 46.5919C108.308 46.5919 109.01 46.1712 109.496 45.6224M95.7913 46.409H96.8538L96.8898 40.5004C96.8898 39.5675 96.8898 38.6163 96.8538 37.9943C97.0519 38.5248 97.3581 39.2565 97.6282 39.8236L100.852 46.4273H101.986L102.04 36.6407H100.978L100.942 42.1468C100.942 43.0248 100.942 44.2504 100.978 44.6529C100.834 44.2504 100.438 43.3541 100.113 42.6956L97.1419 36.6224H95.8093L95.7552 46.409H95.7913ZM92.2614 46.3907H93.396L93.4501 36.6041H92.3155L92.2614 46.3907ZM85.7781 41.4882V36.5492H84.6615L84.6075 46.3724H85.7421V42.476L86.9307 41.3602L89.416 46.3907H90.6946L87.7231 40.4638L90.5506 36.5675H89.2539L85.7781 41.5065V41.4882ZM76.1071 46.2992H77.1697L77.2057 40.3907C77.2057 39.4577 77.2057 38.5065 77.1697 37.8846C77.3678 38.4151 77.692 39.1468 77.9441 39.7138L81.1677 46.3175H82.3023L82.3564 36.5309H81.2938L81.2578 42.037C81.2578 42.9151 81.2578 44.1407 81.2938 44.5431C81.1497 44.1407 80.7535 43.2443 80.4474 42.5858L77.4758 36.5126H76.1432L76.0891 46.2992H76.1071ZM72.4513 42.4395H69.8579L71.1906 37.4821L72.4513 42.4395ZM69.5878 43.3907H72.6854L73.4058 46.2992H74.5944L71.929 36.476H70.5063L67.7509 46.2626H68.8314L69.5878 43.3907ZM62.114 40.9029V37.4273H63.5907C64.7793 37.4273 65.5897 37.7565 65.5717 39.1102C65.5537 40.4638 64.7973 40.8846 63.5187 40.8846H62.114V40.9029ZM64.9234 41.726C65.8779 41.3968 66.7063 40.6651 66.7063 39.1651C66.7063 37.1346 65.3376 36.4577 63.5907 36.4395H60.9974L60.9434 46.2443H62.0779V41.8907H63.7708L65.5537 46.2626H66.7603L64.9054 41.726" fill="white"/>
<path d="M124.39 46.8656V45.8047L126.983 41.6339C127.254 41.1949 127.47 40.7742 127.614 40.39C127.758 40.0059 127.83 39.6217 127.83 39.201C127.83 38.6888 127.74 38.3047 127.542 38.0486C127.362 37.7925 127.091 37.6644 126.767 37.6644C126.443 37.6644 126.191 37.7925 125.993 38.0669C125.795 38.3412 125.687 38.7254 125.669 39.2742H124.516C124.516 38.8534 124.57 38.4693 124.696 38.14C124.822 37.8108 124.984 37.5181 125.182 37.2803C125.381 37.0425 125.615 36.8595 125.903 36.7315C126.191 36.6034 126.479 36.5303 126.785 36.5303C127.109 36.5303 127.416 36.6034 127.686 36.7315C127.956 36.8595 128.19 37.0425 128.388 37.262C128.586 37.4815 128.748 37.7742 128.856 38.1034C128.964 38.4327 129.018 38.7986 129.018 39.201C129.018 39.5303 128.982 39.8413 128.91 40.1339C128.838 40.4266 128.748 40.701 128.658 40.9571C128.55 41.2132 128.442 41.451 128.298 41.6705C128.172 41.89 128.046 42.0913 127.938 42.2925L125.885 45.6949H128.982V46.8473H124.372L124.39 46.8656Z" fill="#1D1D1B"/>
<path d="M134.475 45.4937C134.349 45.8413 134.187 46.1156 133.971 46.3352C133.773 46.5547 133.521 46.7193 133.25 46.8291C132.98 46.9388 132.692 46.9754 132.404 46.9754C132.116 46.9754 131.828 46.9205 131.558 46.8291C131.287 46.7193 131.053 46.5547 130.837 46.3352C130.621 46.1156 130.459 45.823 130.333 45.4937C130.207 45.1461 130.153 44.7437 130.153 44.2681V39.2376C130.153 38.762 130.207 38.3595 130.333 38.012C130.459 37.6644 130.621 37.39 130.837 37.1705C131.053 36.951 131.287 36.7864 131.558 36.6766C131.828 36.5669 132.116 36.5303 132.404 36.5303C132.692 36.5303 132.98 36.5852 133.25 36.6766C133.521 36.7681 133.773 36.951 133.971 37.1705C134.169 37.39 134.349 37.6827 134.475 38.012C134.601 38.3595 134.655 38.762 134.655 39.2376V44.2681C134.655 44.7437 134.583 45.1461 134.475 45.4937ZM133.16 38.0486C132.962 37.8108 132.71 37.6827 132.404 37.6827C132.098 37.6827 131.828 37.8108 131.648 38.0486C131.45 38.2864 131.359 38.6888 131.359 39.2376V44.2681C131.359 44.8169 131.45 45.2193 131.648 45.4571C131.846 45.6949 132.098 45.823 132.404 45.823C132.71 45.823 132.98 45.6949 133.16 45.4571C133.358 45.2193 133.449 44.8169 133.449 44.2681V39.2376C133.449 38.6888 133.358 38.2864 133.16 38.0486Z" fill="#1D1D1B"/>
<path d="M135.754 46.8656V45.8047L138.347 41.6339C138.617 41.1949 138.833 40.7742 138.977 40.39C139.122 40.0059 139.194 39.6217 139.194 39.201C139.194 38.6888 139.104 38.3047 138.905 38.0486C138.725 37.7925 138.455 37.6644 138.131 37.6644C137.807 37.6644 137.555 37.7925 137.357 38.0669C137.159 38.3412 137.051 38.7254 137.032 39.2742H135.88C135.88 38.8534 135.934 38.4693 136.06 38.14C136.186 37.8108 136.348 37.5181 136.546 37.2803C136.744 37.0425 136.978 36.8595 137.267 36.7315C137.555 36.6034 137.843 36.5303 138.149 36.5303C138.473 36.5303 138.779 36.6034 139.05 36.7315C139.32 36.8595 139.554 37.0425 139.752 37.262C139.95 37.4815 140.112 37.7742 140.22 38.1034C140.328 38.4327 140.382 38.7986 140.382 39.201C140.382 39.5303 140.346 39.8413 140.274 40.1339C140.202 40.4266 140.112 40.701 140.022 40.9571C139.914 41.2132 139.806 41.451 139.662 41.6705C139.536 41.89 139.41 42.0913 139.302 42.2925L137.249 45.6949H140.346V46.8473H135.736L135.754 46.8656Z" fill="#1D1D1B"/>
<path d="M142.472 44.0482H144.399V41.0299H145.605V44.0482H146.272V45.2006H145.605V46.8653H144.399V45.2006H141.085V44.2677L143.786 36.6396H144.975L142.454 44.0482H142.472Z" fill="#1D1D1B"/>
</g>
<defs>
<clipPath id="clip0_397_1447">
<rect width="148" height="48" fill="white"/>
</clipPath>
</defs>
</svg>
