<svg width="181" height="49" viewBox="0 0 181 49" fill="none" xmlns="http://www.w3.org/2000/svg">
<g clip-path="url(#clip0_397_1583)">
<path d="M50.4916 12.1845V3.78146C50.4916 1.44437 52.2341 0.0263672 54.6199 0.0263672C57.0057 0.0263672 58.4533 1.33934 58.4533 3.46635V5.17321H56.2551V3.72894C56.2551 2.75734 55.6654 2.10086 54.6199 2.10086C53.5744 2.10086 52.9311 2.83612 52.9311 3.86024V12.0269C52.9311 13.1823 53.5744 13.8125 54.6199 13.8125C55.6654 13.8125 56.2283 13.1298 56.2283 12.2107V10.7665H58.4265V12.342C58.4265 14.5478 56.8449 15.9396 54.5931 15.9396C52.3413 15.9396 50.4648 14.6528 50.4648 12.1845H50.4916Z" fill="#59595B"/>
<path d="M62.7423 0.209961H66.0396L69.0955 15.703H66.6561L65.8787 11.659H62.5815L61.8309 15.703H59.5791L62.7423 0.209961ZM65.4766 9.71586L64.2703 2.9672H64.2167L62.9836 9.71586H65.4766Z" fill="#59595B"/>
<path d="M72.0713 2.31093H69.1226V0.262695H77.4327V2.31093H74.5107V15.7032H72.0713V2.31093Z" fill="#59595B"/>
<path d="M78.9604 0.262695H85.7426V2.31093H81.3731V6.69624H84.8848V8.74447H81.3731V13.655H85.7694V15.7295H78.9604V0.262695Z" fill="#59595B"/>
<path d="M87.2173 12.1581V3.78135C87.2173 1.41801 88.9597 0 91.3455 0C93.7314 0 95.2861 1.31297 95.2861 3.41372V5.06806H93.0612V3.65005C93.0612 2.67846 92.3642 2.07449 91.3724 2.07449C90.3805 2.07449 89.6835 2.86227 89.6835 3.88639V12.0531C89.6835 13.1559 90.3001 13.8387 91.3724 13.8387C92.4446 13.8387 92.9808 13.1559 92.9808 12.2369V9.45338H91.1579V7.58896H95.313V12.3944C95.313 14.574 93.8118 15.9394 91.3724 15.9394C88.9329 15.9394 87.2173 14.6265 87.2173 12.1581Z" fill="#59595B"/>
<path d="M97.1357 12.0007V3.99164C97.1357 1.41822 98.9318 0.0527344 101.291 0.0527344C103.65 0.0527344 105.419 1.23441 105.419 3.86034V11.9482C105.419 14.6267 103.596 15.9659 101.264 15.9659C98.9318 15.9659 97.1357 14.6792 97.1357 12.027V12.0007ZM102.953 12.027V3.78157C102.953 2.75745 102.309 2.10097 101.264 2.10097C100.219 2.10097 99.602 2.83623 99.602 3.80783V12.0007C99.602 12.9723 100.138 13.7601 101.291 13.7601C102.444 13.7601 102.98 12.9723 102.98 12.0007L102.953 12.027Z" fill="#59595B"/>
<path d="M107.456 0.262695H111.397C113.917 0.262695 115.337 1.75948 115.337 4.67427C115.337 7.58906 114.587 8.21929 113.38 8.71821L115.525 15.7032H113.005L111.209 9.26966H109.922V15.7032H107.483V0.262695H107.456ZM111.236 7.45776C112.308 7.45776 112.898 6.64372 112.898 4.88435C112.898 3.12497 112.442 2.31093 111.209 2.31093H109.895V7.45776H111.236Z" fill="#59595B"/>
<path d="M119.332 9.40096L116.195 0.262695H118.769L120.699 6.51243L122.549 0.262695H124.881L121.771 9.42722V15.7295H119.359V9.40096H119.332Z" fill="#59595B"/>
<path d="M130.349 2.6523L129.143 2.96741L128.848 1.20803L131.288 0.262695H132.628V15.7295H130.349V2.6523Z" fill="#59595B"/>
<path d="M50.4916 29.5676V21.8998C50.4916 19.7466 52.1001 18.4336 54.2714 18.4336C56.4428 18.4336 57.8903 19.6153 57.8903 21.5847V23.0815H55.853V21.7685C55.853 20.8757 55.2097 20.3243 54.2982 20.3243C53.3868 20.3243 52.7434 21.0333 52.7434 22.0049V29.4888C52.7434 30.5129 53.3064 31.1169 54.2982 31.1169C55.2901 31.1169 55.7726 30.5129 55.7726 29.6463V27.0729H54.0838V25.3661H57.8903V29.7776C57.8903 31.7734 56.5232 33.0338 54.2714 33.0338C52.0196 33.0338 50.4648 31.8521 50.4648 29.5676H50.4916Z" fill="#59595B"/>
<path d="M59.7666 18.6699H63.3855C65.6909 18.6699 67.0045 20.0354 67.0045 22.7139C67.0045 25.3923 66.3075 25.97 65.2084 26.4164L67.1653 32.8237H64.8599L63.1979 26.9154H62.0184V32.8237H59.7934V18.6699H59.7666ZM63.2247 25.261C64.1897 25.261 64.7527 24.4995 64.7527 22.8977C64.7527 21.2959 64.3238 20.5343 63.1979 20.5343H61.9916V25.261H63.2247Z" fill="#59595B"/>
<path d="M71.1598 18.6172H74.189L76.9769 32.8235H74.752L74.0282 29.1209H71.0258L70.3556 32.8235H68.2915L71.1866 18.6172H71.1598ZM73.6797 27.3353L72.5806 21.1643H72.527L71.4011 27.3353H73.7065H73.6797Z" fill="#59595B"/>
<path d="M78.5049 18.6699H82.231C84.2416 18.6699 85.8232 19.694 85.8232 21.8736V29.4363C85.8232 31.7471 84.2415 32.8237 82.2042 32.8237H78.5049V18.6699ZM82.0166 30.9331C83.1693 30.9331 83.5714 30.0928 83.5714 29.3312V22.0836C83.5714 21.2171 83.0889 20.5606 82.0166 20.5606H80.7298V30.9331H82.0166Z" fill="#59595B"/>
<path d="M87.6728 18.6699H93.892V20.5343H89.871V24.552H93.0878V26.4427H89.871V30.9331H93.892V32.85H87.646V18.6962L87.6728 18.6699Z" fill="#59595B"/>
<path d="M95.6074 18.6699H99.3336C101.344 18.6699 102.926 19.694 102.926 21.8736V29.4363C102.926 31.7471 101.344 32.8237 99.3068 32.8237H95.6074V18.6699ZM99.1191 30.9331C100.272 30.9331 100.674 30.0928 100.674 29.3312V22.0836C100.674 21.2171 100.191 20.5606 99.1191 20.5606H97.8324V30.9331H99.1191Z" fill="#59595B"/>
<path d="M110.029 18.6172H113.059L115.847 32.8235H113.622L112.898 29.1209H109.895L109.225 32.8235H107.161L110.056 18.6172H110.029ZM112.549 27.3353L111.45 21.1643H111.397L110.271 27.3353H112.576H112.549Z" fill="#59595B"/>
<path d="M117 29.5413V18.6699H119.251V29.41C119.251 30.5654 119.921 31.0906 120.779 31.0906C121.637 31.0906 122.28 30.4079 122.254 29.4363V18.6699H124.398V29.4363C124.398 31.7208 122.817 33.0601 120.645 33.0601C118.474 33.0601 117.026 31.9572 117.026 29.5413H117Z" fill="#59595B"/>
<path d="M128.419 20.5606H125.712V18.6699H133.325V20.5606H130.644V32.8237H128.419V20.5606Z" fill="#59595B"/>
<path d="M134.317 29.41V22.0574C134.317 19.694 135.952 18.4336 138.123 18.4336C140.295 18.4336 141.903 19.5365 141.903 21.9261V29.3312C141.903 31.7996 140.214 33.0075 138.097 33.0075C135.979 33.0075 134.317 31.8259 134.317 29.3838V29.41ZM139.678 29.4625V21.9261C139.678 20.9808 139.089 20.403 138.123 20.403C137.158 20.403 136.595 21.0858 136.595 21.9786V29.4888C136.595 30.3816 137.105 31.0906 138.123 31.0906C139.142 31.0906 139.651 30.3816 139.651 29.4888L139.678 29.4625Z" fill="#59595B"/>
<path d="M143.78 18.6699H146.085L149.409 27.4406H149.463V18.6699H151.447V32.8237H149.409L145.79 23.1603H145.737V32.8237H143.753V18.6699H143.78Z" fill="#59595B"/>
<path d="M153.269 29.41V22.0574C153.269 19.694 154.904 18.4336 157.076 18.4336C159.247 18.4336 160.855 19.5365 160.855 21.9261V29.3312C160.855 31.7996 159.167 33.0075 157.049 33.0075C154.931 33.0075 153.269 31.8259 153.269 29.3838V29.41ZM158.63 29.4625V21.9261C158.63 20.9808 158.041 20.403 157.076 20.403C156.111 20.403 155.548 21.0858 155.548 21.9786V29.4888C155.548 30.3816 156.057 31.0906 157.076 31.0906C158.094 31.0906 158.604 30.3816 158.604 29.4888L158.63 29.4625Z" fill="#59595B"/>
<path d="M162.732 18.6699H165.493L167.343 24.552H167.396L169.3 18.6699H171.953V32.8237H169.97V22.2412H169.916L168.093 28.1758H166.565L164.742 22.2412H164.689V32.8237H162.705V18.6699H162.732Z" fill="#59595B"/>
<path d="M176.082 27.0203L173.213 18.6436H175.572L177.342 24.3681L179.03 18.6436H181.175L178.333 27.0466V32.8236H176.109V27.0203H176.082Z" fill="#59595B"/>
<path d="M50.3574 44.7461V36.6845H52.0463V44.6673C52.0463 45.5339 52.5556 45.9015 53.1721 45.9015C53.7887 45.9015 54.2712 45.4026 54.2712 44.6673V36.6582H55.8528V44.6673C55.8528 46.3742 54.6733 47.3458 53.0649 47.3458C51.4565 47.3458 50.3574 46.5317 50.3574 44.7461Z" fill="#59595B"/>
<path d="M57.1396 44.7727V39.0744C57.1396 37.4726 58.3192 36.501 59.9544 36.501C61.5896 36.501 62.6351 37.3938 62.6351 38.8381V39.9672H61.1339V38.9956C61.1339 38.3391 60.6514 37.919 59.9812 37.919C59.311 37.919 58.8285 38.4442 58.8285 39.1532V44.7202C58.8285 45.4817 59.2574 45.9281 59.9812 45.9281C60.705 45.9281 61.0803 45.4817 61.0803 44.8252V42.9345H59.8471V41.6741H62.6887V44.9565C62.6887 46.4533 61.67 47.3724 60.008 47.3724C58.346 47.3724 57.1665 46.4795 57.1665 44.7989L57.1396 44.7727Z" fill="#59595B"/>
<path d="M63.895 44.799V39.0745C63.895 37.4727 65.0745 36.5273 66.7097 36.5273C68.345 36.5273 69.31 37.4202 69.31 38.8644V40.0198H67.8088V39.022C67.8088 38.3655 67.4067 37.9191 66.7097 37.9191C66.0128 37.9191 65.557 38.418 65.557 39.127V44.694C65.557 45.4818 65.986 45.9019 66.7097 45.9019C67.4335 45.9019 67.8088 45.4555 67.8088 44.799V43.8012H69.31V44.8778C69.31 46.3746 68.2377 47.3199 66.7097 47.3199C65.1817 47.3199 63.895 46.4534 63.895 44.7728V44.799Z" fill="#59595B"/>
<path d="M71.0253 47.0839H70.4624V45.167H71.9636V47.0051L71.4006 48.8958H70.6232L71.0253 47.0839Z" fill="#59595B"/>
<path d="M75.3413 44.7727V39.0744C75.3413 37.4726 76.5208 36.501 78.156 36.501C79.7912 36.501 80.8367 37.3938 80.8367 38.8381V39.9672H79.3355V38.9956C79.3355 38.3391 78.853 37.919 78.1828 37.919C77.5127 37.919 77.0301 38.4442 77.0301 39.1532V44.7202C77.0301 45.4817 77.4591 45.9281 78.1828 45.9281C78.9066 45.9281 79.2819 45.4817 79.2819 44.8252V42.9345H78.0488V41.6741H80.8903V44.9565C80.8903 46.4533 79.8717 47.3724 78.2096 47.3724C76.5476 47.3724 75.3681 46.4795 75.3681 44.7989L75.3413 44.7727Z" fill="#59595B"/>
<path d="M82.0698 44.6414V39.1794C82.0698 37.4201 83.2761 36.501 84.9114 36.501C86.5466 36.501 87.7261 37.315 87.7261 39.1007V44.6151C87.7261 46.4533 86.493 47.3461 84.8845 47.3461C83.2761 47.3461 82.0698 46.4795 82.0698 44.6676V44.6414ZM86.0372 44.6939V39.0744C86.0372 38.3917 85.6083 37.9452 84.8845 37.9452C84.1608 37.9452 83.7587 38.4442 83.7587 39.1007V44.6676C83.7587 45.3241 84.134 45.8756 84.9114 45.8756C85.6888 45.8756 86.064 45.3504 86.064 44.6676L86.0372 44.6939Z" fill="#59595B"/>
<path d="M88.4233 36.6582H90.0586L91.3721 44.1421H91.4257L92.7392 36.6582H94.2404L92.2299 47.2407H90.4875L88.4501 36.6582H88.4233Z" fill="#59595B"/>
<path d="M96.8674 38.0763H94.8569V36.6846H100.513V38.0763H98.5295V47.1883H96.8674V38.0763Z" fill="#59595B"/>
<path d="M100.728 45.167H102.229V47.189H100.728V45.167Z" fill="#59595B"/>
<path d="M105.58 44.6414V39.1794C105.58 37.4201 106.786 36.501 108.421 36.501C110.056 36.501 111.236 37.315 111.236 39.1007V44.6151C111.236 46.4533 110.003 47.3461 108.394 47.3461C106.786 47.3461 105.58 46.4795 105.58 44.6676V44.6414ZM109.574 44.6939V39.0744C109.574 38.3917 109.145 37.9452 108.421 37.9452C107.697 37.9452 107.295 38.4442 107.295 39.1007V44.6676C107.295 45.3241 107.671 45.8756 108.448 45.8756C109.225 45.8756 109.601 45.3504 109.601 44.6676L109.574 44.6939Z" fill="#59595B"/>
<path d="M112.603 36.6582H117.214V38.0499H114.238V41.0698H116.597V42.4878H114.238V47.1882H112.603V36.6582Z" fill="#59595B"/>
<path d="M120.538 36.6582H122.2V47.1882H120.538V36.6582Z" fill="#59595B"/>
<path d="M123.674 36.6582H125.39L127.856 43.1705H127.883V36.6582H129.357V47.1882H127.856L125.175 39.9931H125.149V47.1882H123.674V36.6582Z" fill="#59595B"/>
<path d="M130.885 36.6581H133.646C135.148 36.6581 136.327 37.4196 136.327 39.0214V44.6409C136.327 46.3478 135.148 47.1618 133.646 47.1618H130.885V36.6318V36.6581ZM133.486 45.7701C134.343 45.7701 134.638 45.1399 134.638 44.5884V39.2053C134.638 38.575 134.29 38.0761 133.486 38.0761H132.52V45.7701H133.486Z" fill="#59595B"/>
<path d="M137.694 36.6582H139.356V47.1882H137.694V36.6582Z" fill="#59595B"/>
<path d="M142.6 36.6318H144.852L146.916 47.1881H145.254L144.718 44.4309H142.493L141.984 47.1881H140.429L142.573 36.6318H142.6ZM144.45 43.0916L143.646 38.4963H143.592L142.734 43.0916H144.45Z" fill="#59595B"/>
<path fill-rule="evenodd" clip-rule="evenodd" d="M21.7137 14.3637C21.9282 14.1537 20.2929 12.1579 18.068 9.92589C15.8162 7.69384 13.8325 6.06576 13.618 6.3021C13.4036 6.53843 15.0388 8.50788 17.2638 10.7399C19.5155 12.972 21.4992 14.6001 21.7137 14.3637Z" fill="#E84E13"/>
<path fill-rule="evenodd" clip-rule="evenodd" d="M22.1423 14.0226C22.4104 13.865 21.3649 11.5279 19.7833 8.79695C18.2017 6.06597 16.7005 3.99148 16.4057 4.14904C16.1376 4.30659 17.1831 6.64368 18.7647 9.37465C20.3463 12.1056 21.8475 14.2064 22.1423 14.0488V14.0226Z" fill="#E84E13"/>
<path fill-rule="evenodd" clip-rule="evenodd" d="M21.1503 15.335C21.2308 15.0199 18.8181 14.1271 15.7622 13.3131C12.7062 12.499 10.1595 12.0789 10.0791 12.394C9.99868 12.7091 12.4113 13.6019 15.4673 14.416C18.5233 15.23 21.0699 15.6501 21.1503 15.335Z" fill="#E84E13"/>
<path fill-rule="evenodd" clip-rule="evenodd" d="M21.07 15.8873C21.07 15.5722 18.4966 15.3096 15.3334 15.3096C12.1701 15.3096 9.59668 15.5722 9.59668 15.8873C9.59668 16.2024 12.1701 16.465 15.3334 16.465C18.4966 16.465 21.07 16.2024 21.07 15.8873Z" fill="#E84E13"/>
<path fill-rule="evenodd" clip-rule="evenodd" d="M16.111 12.4473C18.8453 14.0229 21.2043 15.0733 21.3652 14.8107C21.526 14.5481 19.4351 13.025 16.674 11.4495C13.9397 9.87389 11.5807 8.82352 11.4198 9.08611C11.259 9.34871 13.3499 10.8718 16.111 12.4473Z" fill="#E84E13"/>
<path fill-rule="evenodd" clip-rule="evenodd" d="M22.6788 13.8125C22.9736 13.7337 22.5715 11.1866 21.7405 8.14049C20.9095 5.0944 19.9981 2.67854 19.7032 2.78357C19.4083 2.86235 19.8104 5.40951 20.6414 8.4556C21.4725 11.5017 22.3839 13.9175 22.6788 13.8125Z" fill="#E84E13"/>
<path fill-rule="evenodd" clip-rule="evenodd" d="M25.118 14.8107C25.2788 15.0733 27.6378 14.0229 30.3721 12.4473C33.1064 10.8718 35.2242 9.37497 35.0633 9.08611C34.9025 8.82352 32.5435 9.87389 29.8092 11.4495C27.0749 13.025 24.9571 14.5218 25.118 14.8107Z" fill="#E84E13"/>
<path fill-rule="evenodd" clip-rule="evenodd" d="M21.1503 16.4643C21.0699 16.1492 18.5233 16.5693 15.4673 17.3834C12.4113 18.1974 9.99868 19.1165 10.0791 19.4053C10.1595 19.7205 12.7062 19.3003 15.7622 18.4863C18.8181 17.6722 21.2308 16.7532 21.1503 16.4643Z" fill="#E84E13"/>
<path fill-rule="evenodd" clip-rule="evenodd" d="M23.2417 13.7335C23.5633 13.7335 23.8046 11.1863 23.8046 8.0352C23.8046 4.88407 23.5365 2.33691 23.2417 2.33691C22.92 2.33691 22.6787 4.88407 22.6787 8.0352C22.6787 11.1863 22.9468 13.7335 23.2417 13.7335Z" fill="#E84E13"/>
<path fill-rule="evenodd" clip-rule="evenodd" d="M24.7697 14.3643C24.9842 14.6006 26.9947 12.9726 29.2196 10.7405C31.4714 8.50847 33.1066 6.51276 32.8654 6.30268C32.6509 6.09261 30.6404 7.69443 28.4154 9.92648C26.1637 12.1585 24.5284 14.1542 24.7697 14.3643Z" fill="#E84E13"/>
<path fill-rule="evenodd" clip-rule="evenodd" d="M25.3325 15.335C25.4129 15.6501 27.9596 15.23 31.0156 14.416C34.0716 13.6019 36.4842 12.6828 36.4038 12.394C36.3233 12.0789 33.7767 12.499 30.7207 13.3131C27.6647 14.1271 25.2521 15.0462 25.3325 15.335Z" fill="#E84E13"/>
<path fill-rule="evenodd" clip-rule="evenodd" d="M23.8043 13.8121C24.0992 13.8909 25.0106 11.5013 25.8416 8.45517C26.6726 5.40908 27.0747 2.86192 26.7798 2.78314C26.485 2.70436 25.5735 5.09397 24.7425 8.14006C23.9115 11.1861 23.5094 13.7333 23.8043 13.8121Z" fill="#E84E13"/>
<path fill-rule="evenodd" clip-rule="evenodd" d="M24.3408 14.0226C24.6089 14.1801 26.1101 12.1056 27.7185 9.37465C29.3001 6.64368 30.3724 4.30659 30.0775 4.14904C29.8094 3.99148 28.3082 6.06597 26.6998 8.79695C25.1182 11.5279 24.046 13.865 24.3408 14.0226Z" fill="#E84E13"/>
<path fill-rule="evenodd" clip-rule="evenodd" d="M24.7962 17.4359C24.5818 17.646 26.217 19.6417 28.442 21.8737C30.6938 24.1058 32.6775 25.7338 32.8919 25.4975C33.1064 25.2612 31.4712 23.2917 29.2462 21.0597C26.9944 18.8276 25.0107 17.1996 24.7962 17.4359Z" fill="#E84E13"/>
<path fill-rule="evenodd" clip-rule="evenodd" d="M24.3407 17.7773C24.0727 17.9349 25.1181 20.272 26.6997 23.003C28.2813 25.7339 29.7825 27.8084 30.0774 27.6771C30.3455 27.5196 29.3 25.1825 27.7184 22.4515C26.1368 19.7205 24.6356 17.6198 24.3407 17.8036V17.7773Z" fill="#E84E13"/>
<path fill-rule="evenodd" clip-rule="evenodd" d="M21.3651 16.9894C21.2042 16.7268 18.8452 17.7772 16.1109 19.3528C13.3766 20.9283 11.2589 22.4251 11.4197 22.714C11.5806 22.9766 13.9396 21.9262 16.6739 20.3506C19.4082 18.7751 21.5259 17.2783 21.3651 16.9894Z" fill="#E84E13"/>
<path fill-rule="evenodd" clip-rule="evenodd" d="M30.3722 19.3274C27.6379 17.7518 25.2789 16.7014 25.1181 16.964C24.9572 17.2266 27.0482 18.7497 29.8093 20.3252C32.5436 21.9008 34.9026 22.9512 35.0634 22.6886C35.2243 22.426 33.1333 20.9029 30.3722 19.3274Z" fill="#E84E13"/>
<path fill-rule="evenodd" clip-rule="evenodd" d="M25.4131 15.8873C25.4131 16.2024 27.9865 16.465 31.1498 16.465C34.313 16.465 36.8864 16.2024 36.8864 15.8873C36.8864 15.5722 34.313 15.3096 31.1498 15.3096C27.9865 15.3096 25.4131 15.5722 25.4131 15.8873Z" fill="#E84E13"/>
<path fill-rule="evenodd" clip-rule="evenodd" d="M31.0424 17.3834C27.9865 16.5693 25.4398 16.1492 25.3594 16.4643C25.279 16.7794 27.6916 17.6722 30.7476 18.4863C33.8035 19.3003 36.3502 19.7205 36.4306 19.4053C36.511 19.0902 34.0984 18.1974 31.0424 17.3834Z" fill="#E84E13"/>
<path fill-rule="evenodd" clip-rule="evenodd" d="M23.8043 18.014C23.5094 18.0928 23.9115 20.64 24.7425 23.6861C25.5735 26.7322 26.485 29.148 26.7798 29.043C27.0747 28.9642 26.6726 26.417 25.8416 23.371C25.0106 20.3249 24.0992 17.909 23.8043 18.014Z" fill="#E84E13"/>
<path fill-rule="evenodd" clip-rule="evenodd" d="M21.7135 17.4362C21.4991 17.2261 19.4886 18.8542 17.2636 21.06C15.0118 23.2921 13.3766 25.2878 13.6178 25.4978C13.8323 25.7079 15.8428 24.0798 18.0678 21.8741C20.3196 19.642 21.9548 17.6463 21.7135 17.4362Z" fill="#E84E13"/>
<path fill-rule="evenodd" clip-rule="evenodd" d="M22.1693 17.7779C21.9012 17.6204 20.4 19.6949 18.7916 22.4259C17.21 25.1568 16.1377 27.4939 16.4326 27.6515C16.7007 27.809 18.2019 25.7345 19.8103 23.0036C21.3919 20.2726 22.4642 17.9355 22.1693 17.7779Z" fill="#E84E13"/>
<path fill-rule="evenodd" clip-rule="evenodd" d="M23.2417 18.0664C22.92 18.0664 22.6787 20.6136 22.6787 23.7647C22.6787 26.9158 22.9468 29.463 23.2417 29.4892C23.5633 29.4892 23.8046 26.9421 23.8046 23.7909C23.8046 20.6398 23.5365 18.0664 23.2417 18.0664Z" fill="#E84E13"/>
<path fill-rule="evenodd" clip-rule="evenodd" d="M22.6788 18.0136C22.3839 17.9348 21.4725 20.3244 20.6414 23.3705C19.8104 26.4166 19.4083 28.9638 19.7032 29.0426C19.9981 29.1213 20.9095 26.7317 21.7405 23.6856C22.5715 20.6395 22.9736 18.0924 22.6788 18.0136Z" fill="#E84E13"/>
<path fill-rule="evenodd" clip-rule="evenodd" d="M23.2951 31.7213C32.1949 31.7213 39.3792 24.6313 39.3792 15.8607C39.3792 7.09003 32.1681 0 23.2951 0C14.422 0 7.21094 7.09003 7.21094 15.8607C7.21094 24.6313 14.422 31.7213 23.2951 31.7213ZM23.2951 0.577706C31.766 0.577706 38.6554 7.4314 38.6554 15.8607C38.6554 24.2899 31.766 31.1436 23.2951 31.1436C14.8241 31.1436 7.93472 24.2899 7.93472 15.8607C7.93472 7.4314 14.8241 0.577706 23.2951 0.577706Z" fill="#E84E13"/>
<path fill-rule="evenodd" clip-rule="evenodd" d="M23.2953 30.4079C31.3642 30.4079 37.905 23.8956 37.905 15.8602C37.905 7.82483 31.3642 1.3125 23.2953 1.3125C15.2264 1.3125 8.68555 7.82483 8.68555 15.8602C8.68555 23.8956 15.2264 30.4079 23.2953 30.4079ZM10.8837 23.0027C11.0714 22.6614 11.1786 22.2675 11.1786 21.8473C11.1786 20.7707 10.4548 19.8516 9.43614 19.5628C9.70421 19.2739 9.91866 18.9325 10.0259 18.5124C10.3208 17.462 9.83824 16.3854 8.95362 15.8602C9.3021 15.6501 9.59698 15.3613 9.78463 15.0199C10.3208 14.0746 10.1599 12.9191 9.43614 12.1839C9.81144 12.0788 10.1867 11.8688 10.4816 11.5799C11.259 10.8184 11.393 9.63672 10.8837 8.7439C11.2858 8.7439 11.6879 8.63887 12.0364 8.42879C12.9746 7.87734 13.4036 6.80071 13.1623 5.77659C13.5376 5.88163 13.9665 5.88163 14.3686 5.77659C15.4141 5.48774 16.1111 4.5424 16.1379 3.51829C16.4863 3.7021 16.8884 3.80714 17.2906 3.80714C18.3896 3.80714 19.3011 3.07188 19.5959 2.07402C19.8908 2.33662 20.2393 2.54669 20.6414 2.65173C21.6869 2.94058 22.786 2.46791 23.2953 1.57509C23.5097 1.91647 23.7778 2.20532 24.1531 2.41539C25.0914 2.96684 26.2709 2.78303 27.0214 2.04776C27.1287 2.41539 27.3431 2.78303 27.638 3.07188C28.4154 3.8334 29.5681 3.9647 30.4795 3.46577C30.4795 3.85966 30.5868 4.25355 30.8012 4.62118C31.3374 5.56652 32.4364 5.98667 33.4551 5.72408C33.3479 6.09171 33.3479 6.51186 33.4551 6.93201C33.75 7.98238 34.6882 8.66513 35.7337 8.69138C35.546 9.03276 35.4388 9.42665 35.4388 9.8468C35.4388 10.9234 36.1626 11.8425 37.1813 12.1314C36.9132 12.4202 36.6987 12.7616 36.5915 13.1817C36.2966 14.2321 36.7792 15.3087 37.6638 15.8339C37.3153 16.044 37.0204 16.3329 36.8328 16.6742C36.2966 17.6196 36.4575 18.775 37.1813 19.5103C36.806 19.6153 36.4575 19.8254 36.1358 20.1142C35.3584 20.8757 35.2244 22.0574 35.7337 22.9502C35.3316 22.9502 34.9295 23.0553 34.581 23.2653C33.6427 23.8168 33.2138 24.8934 33.4551 25.9175C33.0798 25.8125 32.6509 25.8125 32.2488 25.9175C31.2033 26.2064 30.5063 27.1517 30.4795 28.1758C30.131 27.992 29.7289 27.887 29.3268 27.887C28.2278 27.887 27.3163 28.6223 27.0214 29.6201C26.7266 29.3575 26.3781 29.1474 25.976 29.0424C24.9305 28.7535 23.8314 29.2262 23.3221 30.119C23.1076 29.7777 22.8396 29.4888 22.4643 29.2787C21.526 28.7273 20.3465 28.9111 19.5959 29.6464C19.4887 29.2787 19.2743 28.9111 18.9794 28.6223C18.202 27.8607 17.0493 27.7294 16.1379 28.2284C16.1379 27.8345 16.0306 27.4406 15.8162 27.0729C15.28 26.1276 14.181 25.7075 13.1623 25.9701C13.2695 25.6024 13.2695 25.1823 13.1623 24.7621C12.8674 23.7118 11.9292 23.029 10.8837 23.0027Z" fill="#E84E13"/>
<path fill-rule="evenodd" clip-rule="evenodd" d="M10.6154 44.3525H2.6001L2.86817 44.8515H5.20036V45.2454H3.45792C3.27027 45.2454 3.10943 45.4029 3.10943 45.5867C3.10943 45.9281 3.67237 46.4008 3.69918 46.4008C3.91363 46.3483 4.50339 46.2432 4.50339 46.5583C4.50339 46.8734 3.99405 46.8734 3.94044 46.8472C3.94044 46.8472 3.7796 46.6108 3.53834 46.6108C3.27027 46.6108 3.10943 46.7421 3.10943 46.926C3.10943 47.3198 3.91363 47.3724 3.94044 47.3198L4.31574 47.7925L4.63742 47.6087L4.23532 47.2673C4.28893 47.2673 4.79826 47.0573 4.79826 46.6634C4.79826 46.0857 4.1549 45.9544 3.67237 46.0594C3.67237 46.0594 3.48472 45.8756 3.56515 45.7968C3.56515 45.7443 3.64557 45.718 3.72599 45.718H5.25398V47.3198L5.92415 47.7137V44.904H6.64793V47.3198L7.31811 47.7137V44.8777H9.6503V45.5867H8.04189C7.96147 45.5867 7.88105 45.6655 7.88105 45.7443C7.85424 46.0594 8.49761 46.6896 8.71206 46.6896C8.92652 46.6896 8.79248 46.6108 8.79248 46.5583V46.1119H9.6503V47.3461L10.3205 47.7663V44.904H10.9638L10.6958 44.4051L10.6154 44.3525Z" fill="#E84E13"/>
<path fill-rule="evenodd" clip-rule="evenodd" d="M10.562 45.6123L10.8033 46.1638H12.5993L12.3045 45.6123H10.562Z" fill="#E84E13"/>
<path fill-rule="evenodd" clip-rule="evenodd" d="M39.5135 44.3517H27.1824C27.1824 44.3517 27.0215 44.1942 27.0215 43.9316C27.0215 43.669 27.2896 43.4326 27.7721 43.4326C28.7908 43.4326 29.6218 44.2729 29.6218 44.2992L29.7826 44.1416C29.7826 44.1416 28.6031 42.96 27.4504 42.96C26.2978 42.96 26.3514 43.879 26.8607 44.3517H26.2441L26.5122 44.8506H26.8875V47.2665L27.5577 47.6604V44.8244H29.595V46.1111C29.595 46.1111 29.2733 46.3737 28.7908 46.3999C28.63 46.3999 28.4423 46.3999 28.4423 46.2161C28.4423 45.7172 29.461 45.6647 29.461 45.6647L29.2197 45.192C29.2197 45.192 28.0938 45.192 28.0938 45.8485C28.0938 46.505 28.4691 46.8726 29.0321 46.8726C29.595 46.8726 29.5414 46.715 29.5682 46.715V47.2402L30.2384 47.6341V44.8244H31.0426V45.7435H30.7477C30.6941 45.7435 30.6673 45.8222 30.6673 45.8747C30.6673 46.0848 31.3106 46.6363 31.5787 46.6363C31.8468 46.6363 31.6591 46.5838 31.6591 46.5312V46.2161H32.5438V47.2402L32.9727 47.5028C32.8922 47.5028 32.8118 47.4503 32.7046 47.4503C32.3293 47.4503 31.8736 47.8967 31.8468 47.923L32.2757 48.2644C32.2757 47.8705 33.1871 47.6079 33.1871 48.1331C33.1871 48.6582 32.6778 48.632 32.3025 48.632C31.5787 48.632 30.7477 47.6866 30.7477 47.6866L30.56 47.8705C30.56 47.8967 31.5519 48.9996 32.4365 48.9996C32.9727 48.9996 33.482 48.8683 33.5088 48.2906C33.5088 48.0543 33.4284 47.7917 33.2139 47.6341V44.8244H35.2244V45.9798C35.2244 45.9798 34.876 46.4262 34.3934 46.4262C33.9109 46.4262 34.0181 46.4262 34.0181 46.1899C34.0181 45.6647 35.1172 45.7172 35.1172 45.7435L34.7419 45.2183C34.7419 45.2183 33.6965 45.2708 33.6965 45.901C33.6965 46.5312 34.179 46.8463 34.6347 46.8463C35.0904 46.8463 35.2244 46.6625 35.2244 46.6625V47.1877L35.8946 47.6079V46.3737C35.8946 46.0586 36.3771 45.9535 36.6452 46.006C36.7524 46.6363 37.5566 47.6079 37.5834 47.6079L37.8783 47.4503C37.8247 47.4503 37.1009 46.5838 37.1009 46.1373C37.1009 45.6909 37.2886 45.796 37.4762 45.796H38.4413V47.214L39.1114 47.6079V44.7981H40.2105C40.2105 44.7981 40.3446 45.0344 40.3446 45.2183C40.3446 45.6647 39.6208 45.6384 39.6208 45.6384C39.6208 45.6909 39.6476 46.8463 40.8003 46.8463C41.953 46.8463 41.2024 46.7938 41.39 46.6625V47.2665L42.0602 47.6866V44.8244H42.6768L42.4355 44.3254H39.4867L39.5135 44.3517ZM32.5706 45.7435H31.6859V44.8244H32.5706V45.7435ZM38.4949 45.297H37.2618C36.9937 45.297 36.806 45.4809 36.7256 45.6909C36.6184 45.6384 36.5112 45.5859 36.3771 45.5859C36.1895 45.5859 35.9482 45.6647 35.9482 45.6647V44.8506H38.4949V45.3233V45.297ZM41.4436 45.9535C41.2024 46.4262 40.425 46.61 40.0765 46.1636C40.7735 46.1636 40.9343 45.2445 40.559 44.8244H41.4168V45.9535H41.4436Z" fill="#E84E13"/>
<path fill-rule="evenodd" clip-rule="evenodd" d="M40.6928 43.4326C40.8269 43.4326 40.9877 43.4851 41.0949 43.6164L41.6579 44.3517H41.9259C41.9259 44.3517 41.4702 43.669 41.0681 43.1963C40.9609 43.065 40.8001 42.96 40.6124 42.96H39.8618L40.1031 43.5114C40.1031 43.5114 40.4784 43.4326 40.7196 43.4589L40.6928 43.4326Z" fill="#E84E13"/>
<path fill-rule="evenodd" clip-rule="evenodd" d="M21.258 44.3517H13.1355C13.1355 44.3517 12.9747 44.1942 12.9747 43.9316C12.9747 43.669 13.2427 43.4326 13.7253 43.4326C14.7439 43.4326 15.5749 44.2729 15.5749 44.2992L15.7358 44.1416C15.7358 44.1416 14.5563 42.96 13.4036 42.96C12.2509 42.96 12.3045 43.879 12.8138 44.3517H12.1973L12.4653 44.8506H12.8406V47.2665L13.5108 47.6604V44.8244H15.5481V46.1111C15.5481 46.1111 15.2264 46.3737 14.7439 46.3999C14.5831 46.3999 14.3954 46.3999 14.3954 46.2161C14.3954 45.7172 15.4141 45.6647 15.4141 45.6647L15.1728 45.192C15.1728 45.192 14.0469 45.192 14.0469 45.8485C14.0469 46.505 14.4222 46.8726 14.9852 46.8726C15.5481 46.8726 15.4945 46.715 15.5213 46.715V47.2402L16.1915 47.6341V44.8244H18.8186V45.2183H17.0761C16.8885 45.2183 16.7276 45.3758 16.7276 45.5596C16.7276 45.901 17.2906 46.3737 17.3174 46.3737C17.5318 46.3212 18.1216 46.2161 18.1216 46.5312C18.1216 46.8463 17.6123 46.8463 17.5586 46.8201C17.5586 46.8201 17.3978 46.5838 17.1565 46.5838C16.8885 46.5838 16.7276 46.7151 16.7276 46.8989C16.7276 47.2928 17.5318 47.3453 17.5586 47.2928L17.9339 47.7654L18.2556 47.5816L17.8535 47.2402C17.9071 47.2402 18.4165 47.0302 18.4165 46.6363C18.4165 46.0586 17.7731 45.9273 17.2906 46.0323C17.2906 46.0323 17.1029 45.8485 17.1833 45.7697C17.1833 45.7172 17.2638 45.6909 17.3442 45.6909H18.8722V47.2928L19.5423 47.6866V44.8769H20.2661V47.2928L20.9363 47.6866V44.8506H23.2685V45.5596H21.6601C21.5797 45.5596 21.4992 45.6384 21.4992 45.7172C21.4724 46.0323 22.1158 46.6625 22.3303 46.6625C22.5447 46.6625 22.4107 46.5838 22.4107 46.5312V46.0848H23.2685V47.319L23.9387 47.7392V44.8769H24.582L24.314 44.378H21.3116L21.258 44.3517Z" fill="#E84E13"/>
<path fill-rule="evenodd" clip-rule="evenodd" d="M23.2684 36.9735C14.3685 32.063 9.83812 30.9076 0 30.5137V31.0914C7.77399 34.5576 15.5212 38.0239 23.2952 41.4901L45.3572 31.3802V30.8025C36.0552 30.9076 30.8011 32.4306 23.2684 36.9472V36.9735ZM39.2453 32.8245C33.9375 35.2141 28.6029 37.6825 23.2952 40.0983C17.6121 37.6037 12.0095 35.0565 6.32642 32.5619C5.60264 32.2205 5.57583 32.063 6.43365 32.2731C13.3498 33.7173 17.5585 37.0785 23.2416 39.048C28.5225 36.8159 34.152 33.7436 39.1648 32.3781C40.1835 32.1418 40.1031 32.4043 39.2453 32.8508V32.8245Z" fill="#E84E13"/>
<path fill-rule="evenodd" clip-rule="evenodd" d="M34.1251 30.4347C31.7393 30.5397 29.2999 30.9861 26.7264 32.6667C25.6005 33.3495 24.421 34.1635 23.2683 34.8463C21.6331 34.0322 20.0515 33.0869 18.3895 32.2729C15.7624 30.9074 13.2158 29.962 11.2589 30.1984C10.7495 30.2771 10.8568 30.3034 11.3393 30.5397C15.3067 32.1941 19.2741 33.8484 23.2683 35.5028C26.8873 33.9272 30.533 32.3254 34.1519 30.7498C34.7953 30.4872 34.7685 30.3822 34.0983 30.4347H34.1251Z" fill="#E84E13"/>
</g>
<defs>
<clipPath id="clip0_397_1583">
<rect width="181" height="49" fill="white"/>
</clipPath>
</defs>
</svg>
